<svg id="SvgjsSvg1006" width="571.859375" height="473.5" xmlns="http://www.w3.org/2000/svg" version="1.1" xmlns:xlink="http://www.w3.org/1999/xlink" xmlns:svgjs="http://svgjs.com/svgjs"><defs id="SvgjsDefs1007"><marker id="SvgjsMarker1015" markerWidth="16" markerHeight="12" refX="16" refY="6" viewBox="0 0 16 12" orient="auto" markerUnits="userSpaceOnUse"><path id="SvgjsPath1016" d="M0,2 L14,6 L0,11 L0,2" fill="#323232" stroke="#323232" stroke-width="2"></path></marker><marker id="SvgjsMarker1051" markerWidth="16" markerHeight="12" refX="16" refY="6" viewBox="0 0 16 12" orient="auto" markerUnits="userSpaceOnUse"><path id="SvgjsPath1052" d="M0,2 L14,6 L0,11 L0,2" fill="#323232" stroke="#323232" stroke-width="2"></path></marker><marker id="SvgjsMarker1085" markerWidth="16" markerHeight="12" refX="16" refY="6" viewBox="0 0 16 12" orient="auto" markerUnits="userSpaceOnUse"><path id="SvgjsPath1086" d="M0,2 L14,6 L0,11 L0,2" fill="#323232" stroke="#323232" stroke-width="2"></path></marker><marker id="SvgjsMarker1089" markerWidth="16" markerHeight="12" refX="16" refY="6" viewBox="0 0 16 12" orient="auto" markerUnits="userSpaceOnUse"><path id="SvgjsPath1090" d="M0,2 L14,6 L0,11 L0,2" fill="#323232" stroke="#323232" stroke-width="2"></path></marker><marker id="SvgjsMarker1093" markerWidth="16" markerHeight="12" refX="16" refY="6" viewBox="0 0 16 12" orient="auto" markerUnits="userSpaceOnUse"><path id="SvgjsPath1094" d="M0,2 L14,6 L0,11 L0,2" fill="#323232" stroke="#323232" stroke-width="2"></path></marker><marker id="SvgjsMarker1097" markerWidth="16" markerHeight="12" refX="16" refY="6" viewBox="0 0 16 12" orient="auto" markerUnits="userSpaceOnUse"><path id="SvgjsPath1098" d="M0,2 L14,6 L0,11 L0,2" fill="#323232" stroke="#323232" stroke-width="2"></path></marker><marker id="SvgjsMarker1101" markerWidth="16" markerHeight="12" refX="16" refY="6" viewBox="0 0 16 12" orient="auto" markerUnits="userSpaceOnUse"><path id="SvgjsPath1102" d="M0,2 L14,6 L0,11 L0,2" fill="#323232" stroke="#323232" stroke-width="2"></path></marker><marker id="SvgjsMarker1141" markerWidth="16" markerHeight="12" refX="16" refY="6" viewBox="0 0 16 12" orient="auto" markerUnits="userSpaceOnUse"><path id="SvgjsPath1142" d="M0,2 L14,6 L0,11 L0,2" fill="#323232" stroke="#323232" stroke-width="2"></path></marker><marker id="SvgjsMarker1145" markerWidth="16" markerHeight="12" refX="16" refY="6" viewBox="0 0 16 12" orient="auto" markerUnits="userSpaceOnUse"><path id="SvgjsPath1146" d="M0,2 L14,6 L0,11 L0,2" fill="#323232" stroke="#323232" stroke-width="2"></path></marker><marker id="SvgjsMarker1149" markerWidth="16" markerHeight="12" refX="16" refY="6" viewBox="0 0 16 12" orient="auto" markerUnits="userSpaceOnUse"><path id="SvgjsPath1150" d="M0,2 L14,6 L0,11 L0,2" fill="#323232" stroke="#323232" stroke-width="2"></path></marker><marker id="SvgjsMarker1153" markerWidth="16" markerHeight="12" refX="16" refY="6" viewBox="0 0 16 12" orient="auto" markerUnits="userSpaceOnUse"><path id="SvgjsPath1154" d="M0,2 L14,6 L0,11 L0,2" fill="#323232" stroke="#323232" stroke-width="2"></path></marker><marker id="SvgjsMarker1169" markerWidth="16" markerHeight="12" refX="16" refY="6" viewBox="0 0 16 12" orient="auto" markerUnits="userSpaceOnUse"><path id="SvgjsPath1170" d="M0,2 L14,6 L0,11 L0,2" fill="#323232" stroke="#323232" stroke-width="2"></path></marker></defs><rect id="SvgjsRect1008" width="571.859375" height="473.5" fill="#cce5ff"></rect><g id="SvgjsG1009" transform="translate(275.859375,234)"><path id="SvgjsPath1010" d="M 0 0L 271 0L 271 211.5L 0 211.5Z" stroke="#323232" stroke-width="2" fill-opacity="1" fill="#ffffff"></path><g id="SvgjsG1011"><text id="SvgjsText1012" font-family="微软雅黑" text-anchor="middle" font-size="13px" width="0" fill="#323232" font-weight="400" align="middle" anchor="middle" family="微软雅黑" size="13px" weight="400" font-style="" y="95.8" transform="rotate(0)"></text></g></g><g id="SvgjsG1013"><path id="SvgjsPath1014" d="M457.7065972222222 319.32991287901234L446.05381944444434 360.5" stroke="#323232" stroke-width="2" fill="none" marker-end="url(#SvgjsMarker1015)"></path></g><g id="SvgjsG1017" transform="translate(25.0121527777776,234)"><path id="SvgjsPath1018" d="M 0 0L 235.8472222222224 0L 235.8472222222224 211.5L 0 211.5Z" stroke="#323232" stroke-width="2" fill-opacity="1" fill="#ffffff"></path><g id="SvgjsG1019"><text id="SvgjsText1020" font-family="微软雅黑" text-anchor="middle" font-size="13px" width="0" fill="#323232" font-weight="400" align="middle" anchor="middle" family="微软雅黑" size="13px" weight="400" font-style="" y="95.8" transform="rotate(0)"></text></g></g><g id="SvgjsG1021" transform="translate(58.512152777777715,25)"><path id="SvgjsPath1022" d="M 0 0L 464.3472222222223 0L 464.3472222222223 159.5L 0 159.5Z" stroke="#323232" stroke-width="2" fill-opacity="1" fill="#ffffff"></path><g id="SvgjsG1023"><text id="SvgjsText1024" font-family="微软雅黑" text-anchor="middle" font-size="13px" width="0" fill="#323232" font-weight="400" align="middle" anchor="middle" family="微软雅黑" size="13px" weight="400" font-style="" y="69.8" transform="rotate(0)"></text></g></g><g id="SvgjsG1025" transform="translate(286.0121527777777,48.5)"><path id="SvgjsPath1026" d="M 0 22.5C 0 -7.5 44.69444444444446 -7.5 44.69444444444446 22.5C 44.69444444444446 52.5 0 52.5 0 22.5Z" stroke="#323232" stroke-width="2" fill-opacity="1" fill="#ffffff"></path><g id="SvgjsG1027"><text id="SvgjsText1028" font-family="微软雅黑" text-anchor="middle" font-size="13px" width="8" fill="#323232" font-weight="400" align="middle" anchor="middle" family="微软雅黑" size="13px" weight="400" font-style="" y="12.55" transform="rotate(0)"><tspan id="SvgjsTspan1029" dy="16" x="22.5"><tspan id="SvgjsTspan1030" style="text-decoration:;">3</tspan></tspan></text></g></g><g id="SvgjsG1031" transform="translate(224.81770833333326,98.82991287901234)"><path id="SvgjsPath1032" d="M 0 22.5C 0 -7.5 44.69444444444446 -7.5 44.69444444444446 22.5C 44.69444444444446 52.5 0 52.5 0 22.5Z" stroke="#323232" stroke-width="2" fill-opacity="1" fill="#ffffff"></path><g id="SvgjsG1033"><text id="SvgjsText1034" font-family="微软雅黑" text-anchor="middle" font-size="13px" width="8" fill="#323232" font-weight="400" align="middle" anchor="middle" family="微软雅黑" size="13px" weight="400" font-style="" y="12.55" transform="rotate(0)"><tspan id="SvgjsTspan1035" dy="16" x="22.5"><tspan id="SvgjsTspan1036" style="text-decoration:;">2</tspan></tspan></text></g></g><g id="SvgjsG1037" transform="translate(393.1232638888888,48.5)"><path id="SvgjsPath1038" d="M 0 22.5C 0 -7.5 44.69444444444446 -7.5 44.69444444444446 22.5C 44.69444444444446 52.5 0 52.5 0 22.5Z" stroke="#323232" stroke-width="2" fill-opacity="1" fill="#ffffff"></path><g id="SvgjsG1039"><text id="SvgjsText1040" font-family="微软雅黑" text-anchor="middle" font-size="13px" width="8" fill="#323232" font-weight="400" align="middle" anchor="middle" family="微软雅黑" size="13px" weight="400" font-style="" y="12.55" transform="rotate(0)"><tspan id="SvgjsTspan1041" dy="16" x="22.5"><tspan id="SvgjsTspan1042" style="text-decoration:;">1</tspan></tspan></text></g></g><g id="SvgjsG1043" transform="translate(444.81770833333326,99.5)"><path id="SvgjsPath1044" d="M 0 22.5C 0 -7.5 44.69444444444446 -7.5 44.69444444444446 22.5C 44.69444444444446 52.5 0 52.5 0 22.5Z" stroke="#323232" stroke-width="2" fill-opacity="1" fill="#ffffff"></path><g id="SvgjsG1045"><text id="SvgjsText1046" font-family="微软雅黑" text-anchor="middle" font-size="13px" width="8" fill="#323232" font-weight="400" align="middle" anchor="middle" family="微软雅黑" size="13px" weight="400" font-style="" y="12.55" transform="rotate(0)"><tspan id="SvgjsTspan1047" dy="16" x="22.5"><tspan id="SvgjsTspan1048" style="text-decoration:;">9</tspan></tspan></text></g></g><g id="SvgjsG1049"><path id="SvgjsPath1050" d="M286.0121527777777 71L262.9994904410356 105.20710678118655" stroke="#323232" stroke-width="2" fill="none" marker-end="url(#SvgjsMarker1051)"></path></g><g id="SvgjsG1053" transform="translate(145.20659722222217,246.5)"><path id="SvgjsPath1054" d="M 0 22.5C 0 -7.5 44.69444444444446 -7.5 44.69444444444446 22.5C 44.69444444444446 52.5 0 52.5 0 22.5Z" stroke="#323232" stroke-width="2" fill-opacity="1" fill="#ffffff"></path><g id="SvgjsG1055"><text id="SvgjsText1056" font-family="微软雅黑" text-anchor="middle" font-size="13px" width="8" fill="#323232" font-weight="400" align="middle" anchor="middle" family="微软雅黑" size="13px" weight="400" font-style="" y="12.55" transform="rotate(0)"><tspan id="SvgjsTspan1057" dy="16" x="22.5"><tspan id="SvgjsTspan1058" style="text-decoration:;">9</tspan></tspan></text></g></g><g id="SvgjsG1059" transform="translate(83.0121527777776,296.82991287901234)"><path id="SvgjsPath1060" d="M 0 22.5C 0 -7.5 44.69444444444446 -7.5 44.69444444444446 22.5C 44.69444444444446 52.5 0 52.5 0 22.5Z" stroke="#323232" stroke-width="2" fill-opacity="1" fill="#ffffff"></path><g id="SvgjsG1061"><text id="SvgjsText1062" font-family="微软雅黑" text-anchor="middle" font-size="13px" width="8" fill="#323232" font-weight="400" align="middle" anchor="middle" family="微软雅黑" size="13px" weight="400" font-style="" y="12.55" transform="rotate(0)"><tspan id="SvgjsTspan1063" dy="16" x="22.5"><tspan id="SvgjsTspan1064" style="text-decoration:;">3</tspan></tspan></text></g></g><g id="SvgjsG1065" transform="translate(203.31770833333326,296.82991287901234)"><path id="SvgjsPath1066" d="M 0 22.5C 0 -7.5 44.69444444444446 -7.5 44.69444444444446 22.5C 44.69444444444446 52.5 0 52.5 0 22.5Z" stroke="#323232" stroke-width="2" fill-opacity="1" fill="#ffffff"></path><g id="SvgjsG1067"><text id="SvgjsText1068" font-family="微软雅黑" text-anchor="middle" font-size="13px" width="8" fill="#323232" font-weight="400" align="middle" anchor="middle" family="微软雅黑" size="13px" weight="400" font-style="" y="12.55" transform="rotate(0)"><tspan id="SvgjsTspan1069" dy="16" x="22.5"><tspan id="SvgjsTspan1070" style="text-decoration:;">8</tspan></tspan></text></g></g><g id="SvgjsG1071" transform="translate(38.31770833333326,356.5)"><path id="SvgjsPath1072" d="M 0 22.5C 0 -7.5 44.69444444444446 -7.5 44.69444444444446 22.5C 44.69444444444446 52.5 0 52.5 0 22.5Z" stroke="#323232" stroke-width="2" fill-opacity="1" fill="#ffffff"></path><g id="SvgjsG1073"><text id="SvgjsText1074" font-family="微软雅黑" text-anchor="middle" font-size="13px" width="8" fill="#323232" font-weight="400" align="middle" anchor="middle" family="微软雅黑" size="13px" weight="400" font-style="" y="12.55" transform="rotate(0)"><tspan id="SvgjsTspan1075" dy="16" x="22.5"><tspan id="SvgjsTspan1076" style="text-decoration:;">1</tspan></tspan></text></g></g><g id="SvgjsG1077" transform="translate(125.0121527777776,356.5)"><path id="SvgjsPath1078" d="M 0 22.5C 0 -7.5 44.69444444444446 -7.5 44.69444444444446 22.5C 44.69444444444446 52.5 0 52.5 0 22.5Z" stroke="#323232" stroke-width="2" fill-opacity="1" fill="#ffffff"></path><g id="SvgjsG1079"><text id="SvgjsText1080" font-family="微软雅黑" text-anchor="middle" font-size="13px" width="8" fill="#323232" font-weight="400" align="middle" anchor="middle" family="微软雅黑" size="13px" weight="400" font-style="" y="12.55" transform="rotate(0)"><tspan id="SvgjsTspan1081" dy="16" x="22.5"><tspan id="SvgjsTspan1082" style="text-decoration:;">2</tspan></tspan></text></g></g><g id="SvgjsG1083"><path id="SvgjsPath1084" d="M145.20659722222217 269L121.19393488548008 303.20710678118655" stroke="#323232" stroke-width="2" fill="none" marker-end="url(#SvgjsMarker1085)"></path></g><g id="SvgjsG1087"><path id="SvgjsPath1088" d="M189.90104166666652 269L210.31525522903962 302.9142135623731" stroke="#323232" stroke-width="2" fill="none" marker-end="url(#SvgjsMarker1089)"></path></g><g id="SvgjsG1091"><path id="SvgjsPath1092" d="M83.0121527777776 319.32991287901234L60.66493055555543 356.5" stroke="#323232" stroke-width="2" fill="none" marker-end="url(#SvgjsMarker1093)"></path></g><g id="SvgjsG1095"><path id="SvgjsPath1096" d="M127.70659722222217 319.32991287901234L147.359375 356.5" stroke="#323232" stroke-width="2" fill="none" marker-end="url(#SvgjsMarker1097)"></path></g><g id="SvgjsG1099"><path id="SvgjsPath1100" d="M437.81770833333326 71L467.1649305555555 99.5" stroke="#323232" stroke-width="2" fill="none" marker-end="url(#SvgjsMarker1101)"></path></g><g id="SvgjsG1103" transform="translate(116.01215277777771,48.5)"><path id="SvgjsPath1104" d="M 0 22.5C 0 -7.5 44.69444444444446 -7.5 44.69444444444446 22.5C 44.69444444444446 52.5 0 52.5 0 22.5Z" stroke="#323232" stroke-width="2" fill-opacity="1" fill="#ffffff"></path><g id="SvgjsG1105"><text id="SvgjsText1106" font-family="微软雅黑" text-anchor="middle" font-size="13px" width="8" fill="#323232" font-weight="400" align="middle" anchor="middle" family="微软雅黑" size="13px" weight="400" font-style="" y="12.55" transform="rotate(0)"><tspan id="SvgjsTspan1107" dy="16" x="22.5"><tspan id="SvgjsTspan1108" style="text-decoration:;">3</tspan></tspan></text></g></g><g id="SvgjsG1109" transform="translate(210.68576388888886,144.5)"><path id="SvgjsPath1110" d="M 0 0L 160 0L 160 40L 0 40Z" stroke="none" fill="none"></path><g id="SvgjsG1111"><text id="SvgjsText1112" font-family="微软雅黑" text-anchor="middle" font-size="13px" width="39" fill="#323232" font-weight="400" align="middle" anchor="middle" family="微软雅黑" size="13px" weight="400" font-style="" y="10.05" transform="rotate(0)"><tspan id="SvgjsTspan1113" dy="16" x="80"><tspan id="SvgjsTspan1114" style="text-decoration:;">二叉树</tspan></tspan></text></g></g><g id="SvgjsG1115" transform="translate(399.5954861111111,246.5)"><path id="SvgjsPath1116" d="M 0 22.5C 0 -7.5 44.69444444444446 -7.5 44.69444444444446 22.5C 44.69444444444446 52.5 0 52.5 0 22.5Z" stroke="#323232" stroke-width="2" fill-opacity="1" fill="#ffffff"></path><g id="SvgjsG1117"><text id="SvgjsText1118" font-family="微软雅黑" text-anchor="middle" font-size="13px" width="8" fill="#323232" font-weight="400" align="middle" anchor="middle" family="微软雅黑" size="13px" weight="400" font-style="" y="12.55" transform="rotate(0)"><tspan id="SvgjsTspan1119" dy="16" x="22.5"><tspan id="SvgjsTspan1120" style="text-decoration:;">9</tspan></tspan></text></g></g><g id="SvgjsG1121" transform="translate(337.4010416666665,296.82991287901234)"><path id="SvgjsPath1122" d="M 0 22.5C 0 -7.5 44.69444444444446 -7.5 44.69444444444446 22.5C 44.69444444444446 52.5 0 52.5 0 22.5Z" stroke="#323232" stroke-width="2" fill-opacity="1" fill="#ffffff"></path><g id="SvgjsG1123"><text id="SvgjsText1124" font-family="微软雅黑" text-anchor="middle" font-size="13px" width="8" fill="#323232" font-weight="400" align="middle" anchor="middle" family="微软雅黑" size="13px" weight="400" font-style="" y="12.55" transform="rotate(0)"><tspan id="SvgjsTspan1125" dy="16" x="22.5"><tspan id="SvgjsTspan1126" style="text-decoration:;">3</tspan></tspan></text></g></g><g id="SvgjsG1127" transform="translate(457.7065972222222,296.82991287901234)"><path id="SvgjsPath1128" d="M 0 22.5C 0 -7.5 44.69444444444446 -7.5 44.69444444444446 22.5C 44.69444444444446 52.5 0 52.5 0 22.5Z" stroke="#323232" stroke-width="2" fill-opacity="1" fill="#ffffff"></path><g id="SvgjsG1129"><text id="SvgjsText1130" font-family="微软雅黑" text-anchor="middle" font-size="13px" width="8" fill="#323232" font-weight="400" align="middle" anchor="middle" family="微软雅黑" size="13px" weight="400" font-style="" y="12.55" transform="rotate(0)"><tspan id="SvgjsTspan1131" dy="16" x="22.5"><tspan id="SvgjsTspan1132" style="text-decoration:;">8</tspan></tspan></text></g></g><g id="SvgjsG1133" transform="translate(292.7065972222222,356.5)"><path id="SvgjsPath1134" d="M 0 22.5C 0 -7.5 44.69444444444446 -7.5 44.69444444444446 22.5C 44.69444444444446 52.5 0 52.5 0 22.5Z" stroke="#323232" stroke-width="2" fill-opacity="1" fill="#ffffff"></path><g id="SvgjsG1135"><text id="SvgjsText1136" font-family="微软雅黑" text-anchor="middle" font-size="13px" width="8" fill="#323232" font-weight="400" align="middle" anchor="middle" family="微软雅黑" size="13px" weight="400" font-style="" y="12.55" transform="rotate(0)"><tspan id="SvgjsTspan1137" dy="16" x="22.5"><tspan id="SvgjsTspan1138" style="text-decoration:;">1</tspan></tspan></text></g></g><g id="SvgjsG1139"><path id="SvgjsPath1140" d="M399.5954861111111 269L375.582823774369 303.20710678118655" stroke="#323232" stroke-width="2" fill="none" marker-end="url(#SvgjsMarker1141)"></path></g><g id="SvgjsG1143"><path id="SvgjsPath1144" d="M444.28993055555543 269L464.70414411792854 302.9142135623731" stroke="#323232" stroke-width="2" fill="none" marker-end="url(#SvgjsMarker1145)"></path></g><g id="SvgjsG1147"><path id="SvgjsPath1148" d="M337.4010416666665 319.32991287901234L315.05381944444434 356.5" stroke="#323232" stroke-width="2" fill="none" marker-end="url(#SvgjsMarker1149)"></path></g><g id="SvgjsG1151"><path id="SvgjsPath1152" d="M382.0954861111111 319.32991287901234L384.47048611111103 356.5" stroke="#323232" stroke-width="2" fill="none" marker-end="url(#SvgjsMarker1153)"></path></g><g id="SvgjsG1155" transform="translate(362.1232638888888,356.5)"><path id="SvgjsPath1156" d="M 0 22.5C 0 -7.5 44.69444444444446 -7.5 44.69444444444446 22.5C 44.69444444444446 52.5 0 52.5 0 22.5Z" stroke="#323232" stroke-width="2" fill-opacity="1" fill="#ffffff"></path><g id="SvgjsG1157"><text id="SvgjsText1158" font-family="微软雅黑" text-anchor="middle" font-size="13px" width="8" fill="#323232" font-weight="400" align="middle" anchor="middle" family="微软雅黑" size="13px" weight="400" font-style="" y="12.55" transform="rotate(0)"><tspan id="SvgjsTspan1159" dy="16" x="22.5"><tspan id="SvgjsTspan1160" style="text-decoration:;">1</tspan></tspan></text></g></g><g id="SvgjsG1161" transform="translate(423.7065972222222,360.5)"><path id="SvgjsPath1162" d="M 0 22.5C 0 -7.5 44.69444444444446 -7.5 44.69444444444446 22.5C 44.69444444444446 52.5 0 52.5 0 22.5Z" stroke="#323232" stroke-width="2" fill-opacity="1" fill="#ffffff"></path><g id="SvgjsG1163"><text id="SvgjsText1164" font-family="微软雅黑" text-anchor="middle" font-size="13px" width="8" fill="#323232" font-weight="400" align="middle" anchor="middle" family="微软雅黑" size="13px" weight="400" font-style="" y="12.55" transform="rotate(0)"><tspan id="SvgjsTspan1165" dy="16" x="22.5"><tspan id="SvgjsTspan1166" style="text-decoration:;">1</tspan></tspan></text></g></g><g id="SvgjsG1167"><path id="SvgjsPath1168" d="M502.40104166666663 319.32991287901234L519.2065972222223 356.5" stroke="#323232" stroke-width="2" fill="none" marker-end="url(#SvgjsMarker1169)"></path></g><g id="SvgjsG1171" transform="translate(496.859375,356.5)"><path id="SvgjsPath1172" d="M 0 22.5C 0 -7.5 44.69444444444446 -7.5 44.69444444444446 22.5C 44.69444444444446 52.5 0 52.5 0 22.5Z" stroke="#323232" stroke-width="2" fill-opacity="1" fill="#ffffff"></path><g id="SvgjsG1173"><text id="SvgjsText1174" font-family="微软雅黑" text-anchor="middle" font-size="13px" width="8" fill="#323232" font-weight="400" align="middle" anchor="middle" family="微软雅黑" size="13px" weight="400" font-style="" y="12.55" transform="rotate(0)"><tspan id="SvgjsTspan1175" dy="16" x="22.5"><tspan id="SvgjsTspan1176" style="text-decoration:;">1</tspan></tspan></text></g></g><g id="SvgjsG1177" transform="translate(62.9357638888888,408.5)"><path id="SvgjsPath1178" d="M 0 0L 160 0L 160 40L 0 40Z" stroke="none" fill="none"></path><g id="SvgjsG1179"><text id="SvgjsText1180" font-family="微软雅黑" text-anchor="middle" font-size="13px" width="65" fill="#323232" font-weight="400" align="middle" anchor="middle" family="微软雅黑" size="13px" weight="400" font-style="" y="10.05" transform="rotate(0)"><tspan id="SvgjsTspan1181" dy="16" x="80"><tspan id="SvgjsTspan1182" style="text-decoration:;">完全二叉树</tspan></tspan></text></g></g><g id="SvgjsG1183" transform="translate(339.9357638888888,408.5)"><path id="SvgjsPath1184" d="M 0 0L 160 0L 160 40L 0 40Z" stroke="none" fill="none"></path><g id="SvgjsG1185"><text id="SvgjsText1186" font-family="微软雅黑" text-anchor="middle" font-size="13px" width="52" fill="#323232" font-weight="400" align="middle" anchor="middle" family="微软雅黑" size="13px" weight="400" font-style="" y="10.05" transform="rotate(0)"><tspan id="SvgjsTspan1187" dy="16" x="80"><tspan id="SvgjsTspan1188" style="text-decoration:;">满二叉树</tspan></tspan></text></g></g></svg>