<svg id="SvgjsSvg1006" width="529.9375" height="312.328125" xmlns="http://www.w3.org/2000/svg" version="1.1" xmlns:xlink="http://www.w3.org/1999/xlink" xmlns:svgjs="http://svgjs.com/svgjs"><defs id="SvgjsDefs1007"><marker id="SvgjsMarker1047" markerWidth="16" markerHeight="12" refX="16" refY="6" viewBox="0 0 16 12" orient="auto" markerUnits="userSpaceOnUse"><path id="SvgjsPath1048" d="M0,2 L14,6 L0,11 L0,2" fill="#323232" stroke="#323232" stroke-width="2"></path></marker><marker id="SvgjsMarker1051" markerWidth="16" markerHeight="12" refX="16" refY="6" viewBox="0 0 16 12" orient="auto" markerUnits="userSpaceOnUse"><path id="SvgjsPath1052" d="M0,2 L14,6 L0,11 L0,2" fill="#323232" stroke="#323232" stroke-width="2"></path></marker><marker id="SvgjsMarker1055" markerWidth="16" markerHeight="12" refX="16" refY="6" viewBox="0 0 16 12" orient="auto" markerUnits="userSpaceOnUse"><path id="SvgjsPath1056" d="M0,2 L14,6 L0,11 L0,2" fill="#323232" stroke="#323232" stroke-width="2"></path></marker><marker id="SvgjsMarker1059" markerWidth="16" markerHeight="12" refX="16" refY="6" viewBox="0 0 16 12" orient="auto" markerUnits="userSpaceOnUse"><path id="SvgjsPath1060" d="M0,2 L14,6 L0,11 L0,2" fill="#323232" stroke="#323232" stroke-width="2"></path></marker><marker id="SvgjsMarker1081" markerWidth="16" markerHeight="12" refX="16" refY="6" viewBox="0 0 16 12" orient="auto" markerUnits="userSpaceOnUse"><path id="SvgjsPath1082" d="M0,2 L14,6 L0,11 L0,2" fill="#323232" stroke="#323232" stroke-width="2"></path></marker><marker id="SvgjsMarker1097" markerWidth="16" markerHeight="12" refX="16" refY="6" viewBox="0 0 16 12" orient="auto" markerUnits="userSpaceOnUse"><path id="SvgjsPath1098" d="M0,2 L14,6 L0,11 L0,2" fill="#323232" stroke="#323232" stroke-width="2"></path></marker><marker id="SvgjsMarker1101" markerWidth="16" markerHeight="12" refX="16" refY="6" viewBox="0 0 16 12" orient="auto" markerUnits="userSpaceOnUse"><path id="SvgjsPath1102" d="M0,2 L14,6 L0,11 L0,2" fill="#323232" stroke="#323232" stroke-width="2"></path></marker></defs><rect id="SvgjsRect1008" width="529.9375" height="312.328125" fill="#cce5ff"></rect><g id="SvgjsG1009" transform="translate(121.86111111111086,83)"><path id="SvgjsPath1010" d="M 0 22.5C 0 -7.5 44.69444444444446 -7.5 44.69444444444446 22.5C 44.69444444444446 52.5 0 52.5 0 22.5Z" stroke="#323232" stroke-width="2" fill-opacity="1" fill="#ffffff"></path><g id="SvgjsG1011"><text id="SvgjsText1012" font-family="微软雅黑" text-anchor="middle" font-size="13px" width="8" fill="#323232" font-weight="400" align="middle" anchor="middle" family="微软雅黑" size="13px" weight="400" font-style="" y="12.55" transform="rotate(0)"><tspan id="SvgjsTspan1013" dy="16" x="22.5"><tspan id="SvgjsTspan1014" style="text-decoration:;">4</tspan></tspan></text></g></g><g id="SvgjsG1015" transform="translate(166.55555555555532,25)"><path id="SvgjsPath1016" d="M 0 22.5C 0 -7.5 44.69444444444446 -7.5 44.69444444444446 22.5C 44.69444444444446 52.5 0 52.5 0 22.5Z" stroke="#323232" stroke-width="2" fill-opacity="1" fill="#ffffff"></path><g id="SvgjsG1017"><text id="SvgjsText1018" font-family="微软雅黑" text-anchor="middle" font-size="13px" width="8" fill="#323232" font-weight="400" align="middle" anchor="middle" family="微软雅黑" size="13px" weight="400" font-style="" y="12.55" transform="rotate(0)"><tspan id="SvgjsTspan1019" dy="16" x="22.5"><tspan id="SvgjsTspan1020" style="text-decoration:;">5</tspan></tspan></text></g></g><g id="SvgjsG1021" transform="translate(362.6736111111111,31.32991287901234)"><path id="SvgjsPath1022" d="M 0 22.5C 0 -7.5 44.69444444444446 -7.5 44.69444444444446 22.5C 44.69444444444446 52.5 0 52.5 0 22.5Z" stroke="#323232" stroke-width="2" fill-opacity="1" fill="#ffffff"></path><g id="SvgjsG1023"><text id="SvgjsText1024" font-family="微软雅黑" text-anchor="middle" font-size="13px" width="8" fill="#323232" font-weight="400" align="middle" anchor="middle" family="微软雅黑" size="13px" weight="400" font-style="" y="12.55" transform="rotate(0)"><tspan id="SvgjsTspan1025" dy="16" x="22.5"><tspan id="SvgjsTspan1026" style="text-decoration:;">3</tspan></tspan></text></g></g><g id="SvgjsG1027" transform="translate(300.47916666666663,81.65982575802468)"><path id="SvgjsPath1028" d="M 0 22.5C 0 -7.5 44.69444444444446 -7.5 44.69444444444446 22.5C 44.69444444444446 52.5 0 52.5 0 22.5Z" stroke="#323232" stroke-width="2" fill-opacity="1" fill="#ffffff"></path><g id="SvgjsG1029"><text id="SvgjsText1030" font-family="微软雅黑" text-anchor="middle" font-size="13px" width="8" fill="#323232" font-weight="400" align="middle" anchor="middle" family="微软雅黑" size="13px" weight="400" font-style="" y="12.55" transform="rotate(0)"><tspan id="SvgjsTspan1031" dy="16" x="22.5"><tspan id="SvgjsTspan1032" style="text-decoration:;">2</tspan></tspan></text></g></g><g id="SvgjsG1033" transform="translate(420.7847222222222,81.65982575802468)"><path id="SvgjsPath1034" d="M 0 22.5C 0 -7.5 44.69444444444446 -7.5 44.69444444444446 22.5C 44.69444444444446 52.5 0 52.5 0 22.5Z" stroke="#323232" stroke-width="2" fill-opacity="1" fill="#ffffff"></path><g id="SvgjsG1035"><text id="SvgjsText1036" font-family="微软雅黑" text-anchor="middle" font-size="13px" width="8" fill="#323232" font-weight="400" align="middle" anchor="middle" family="微软雅黑" size="13px" weight="400" font-style="" y="12.55" transform="rotate(0)"><tspan id="SvgjsTspan1037" dy="16" x="22.5"><tspan id="SvgjsTspan1038" style="text-decoration:;">4</tspan></tspan></text></g></g><g id="SvgjsG1039" transform="translate(255.78472222222217,141.32991287901234)"><path id="SvgjsPath1040" d="M 0 22.5C 0 -7.5 44.69444444444446 -7.5 44.69444444444446 22.5C 44.69444444444446 52.5 0 52.5 0 22.5Z" stroke="#323232" stroke-width="2" fill-opacity="1" fill="#ffffff"></path><g id="SvgjsG1041"><text id="SvgjsText1042" font-family="微软雅黑" text-anchor="middle" font-size="13px" width="8" fill="#323232" font-weight="400" align="middle" anchor="middle" family="微软雅黑" size="13px" weight="400" font-style="" y="12.55" transform="rotate(0)"><tspan id="SvgjsTspan1043" dy="16" x="22.5"><tspan id="SvgjsTspan1044" style="text-decoration:;">1</tspan></tspan></text></g></g><g id="SvgjsG1045"><path id="SvgjsPath1046" d="M362.6736111111111 53.82991287901234L338.6609487743691 88.0370196601989" stroke="#323232" stroke-width="2" fill="none" marker-end="url(#SvgjsMarker1047)"></path></g><g id="SvgjsG1049"><path id="SvgjsPath1050" d="M407.36805555555543 53.82991287901234L427.78226911792854 87.74412644138545" stroke="#323232" stroke-width="2" fill="none" marker-end="url(#SvgjsMarker1051)"></path></g><g id="SvgjsG1053"><path id="SvgjsPath1054" d="M300.47916666666663 104.15982575802468L278.13194444444434 141.32991287901234" stroke="#323232" stroke-width="2" fill="none" marker-end="url(#SvgjsMarker1055)"></path></g><g id="SvgjsG1057"><path id="SvgjsPath1058" d="M465.47916666666663 104.15982575802468L482.2847222222223 141.32991287901234" stroke="#323232" stroke-width="2" fill="none" marker-end="url(#SvgjsMarker1059)"></path></g><g id="SvgjsG1061" transform="translate(459.9375,141.32991287901234)"><path id="SvgjsPath1062" d="M 0 22.5C 0 -7.5 44.69444444444446 -7.5 44.69444444444446 22.5C 44.69444444444446 52.5 0 52.5 0 22.5Z" stroke="#323232" stroke-width="2" fill-opacity="1" fill="#ffffff"></path><g id="SvgjsG1063"><text id="SvgjsText1064" font-family="微软雅黑" text-anchor="middle" font-size="13px" width="8" fill="#323232" font-weight="400" align="middle" anchor="middle" family="微软雅黑" size="13px" weight="400" font-style="" y="12.55" transform="rotate(0)"><tspan id="SvgjsTspan1065" dy="16" x="22.5"><tspan id="SvgjsTspan1066" style="text-decoration:;">5</tspan></tspan></text></g></g><g id="SvgjsG1067" transform="translate(25.0138888888888,247.32991287901234)"><path id="SvgjsPath1068" d="M 0 0L 160 0L 160 40L 0 40Z" stroke="none" fill="none"></path><g id="SvgjsG1069"><text id="SvgjsText1070" font-family="微软雅黑" text-anchor="middle" font-size="13px" width="52" fill="#323232" font-weight="400" align="middle" anchor="middle" family="微软雅黑" size="13px" weight="400" font-style="" y="10.05" transform="rotate(0)"><tspan id="SvgjsTspan1071" dy="16" x="80"><tspan id="SvgjsTspan1072" style="text-decoration:;">最坏情况</tspan></tspan></text></g></g><g id="SvgjsG1073" transform="translate(299.9375,247.32991287901234)"><path id="SvgjsPath1074" d="M 0 0L 160 0L 160 40L 0 40Z" stroke="none" fill="none"></path><g id="SvgjsG1075"><text id="SvgjsText1076" font-family="微软雅黑" text-anchor="middle" font-size="13px" width="52" fill="#323232" font-weight="400" align="middle" anchor="middle" family="微软雅黑" size="13px" weight="400" font-style="" y="10.05" transform="rotate(0)"><tspan id="SvgjsTspan1077" dy="16" x="80"><tspan id="SvgjsTspan1078" style="text-decoration:;">最好情况</tspan></tspan></text></g></g><g id="SvgjsG1079"><path id="SvgjsPath1080" d="M177.70833333333326 66.53589838486224L160.0776154410355 89.70710678118655" stroke="#323232" stroke-width="2" fill="none" marker-end="url(#SvgjsMarker1081)"></path></g><g id="SvgjsG1083" transform="translate(27.472222222221944,198)"><path id="SvgjsPath1084" d="M 0 22.5C 0 -7.5 44.69444444444446 -7.5 44.69444444444446 22.5C 44.69444444444446 52.5 0 52.5 0 22.5Z" stroke="#323232" stroke-width="2" fill-opacity="1" fill="#ffffff"></path><g id="SvgjsG1085"><text id="SvgjsText1086" font-family="微软雅黑" text-anchor="middle" font-size="13px" width="8" fill="#323232" font-weight="400" align="middle" anchor="middle" family="微软雅黑" size="13px" weight="400" font-style="" y="12.55" transform="rotate(0)"><tspan id="SvgjsTspan1087" dy="16" x="22.5"><tspan id="SvgjsTspan1088" style="text-decoration:;">2</tspan></tspan></text></g></g><g id="SvgjsG1089" transform="translate(72.1666666666664,140)"><path id="SvgjsPath1090" d="M 0 22.5C 0 -7.5 44.69444444444446 -7.5 44.69444444444446 22.5C 44.69444444444446 52.5 0 52.5 0 22.5Z" stroke="#323232" stroke-width="2" fill-opacity="1" fill="#ffffff"></path><g id="SvgjsG1091"><text id="SvgjsText1092" font-family="微软雅黑" text-anchor="middle" font-size="13px" width="8" fill="#323232" font-weight="400" align="middle" anchor="middle" family="微软雅黑" size="13px" weight="400" font-style="" y="12.55" transform="rotate(0)"><tspan id="SvgjsTspan1093" dy="16" x="22.5"><tspan id="SvgjsTspan1094" style="text-decoration:;">3</tspan></tspan></text></g></g><g id="SvgjsG1095"><path id="SvgjsPath1096" d="M83.31944444444434 181.53589838486224L65.68872655214659 204.70710678118655" stroke="#323232" stroke-width="2" fill="none" marker-end="url(#SvgjsMarker1097)"></path></g><g id="SvgjsG1099"><path id="SvgjsPath1100" d="M128.05882034355966 120.87867965644037L108.21677069094687 144.45745613286698" stroke="#323232" stroke-width="2" fill="none" marker-end="url(#SvgjsMarker1101)"></path></g></svg>