<svg id="SvgjsSvg1006" width="721" height="409.16668701171875" xmlns="http://www.w3.org/2000/svg" version="1.1" xmlns:xlink="http://www.w3.org/1999/xlink" xmlns:svgjs="http://svgjs.com/svgjs"><defs id="SvgjsDefs1007"><marker id="SvgjsMarker1029" markerWidth="16" markerHeight="12" refX="16" refY="6" viewBox="0 0 16 12" orient="auto" markerUnits="userSpaceOnUse"><path id="SvgjsPath1030" d="M0,2 L14,6 L0,11 L0,2" fill="#323232" stroke="#323232" stroke-width="2"></path></marker><marker id="SvgjsMarker1061" markerWidth="16" markerHeight="12" refX="16" refY="6" viewBox="0 0 16 12" orient="auto" markerUnits="userSpaceOnUse"><path id="SvgjsPath1062" d="M0,2 L14,6 L0,11 L0,2" fill="#323232" stroke="#323232" stroke-width="2"></path></marker><marker id="SvgjsMarker1069" markerWidth="16" markerHeight="12" refX="16" refY="6" viewBox="0 0 16 12" orient="auto" markerUnits="userSpaceOnUse"><path id="SvgjsPath1070" d="M0,2 L14,6 L0,11 L0,2" fill="#323232" stroke="#323232" stroke-width="2"></path></marker><marker id="SvgjsMarker1089" markerWidth="16" markerHeight="12" refX="16" refY="6" viewBox="0 0 16 12" orient="auto" markerUnits="userSpaceOnUse"><path id="SvgjsPath1090" d="M0,2 L14,6 L0,11 L0,2" fill="#323232" stroke="#323232" stroke-width="2"></path></marker><marker id="SvgjsMarker1121" markerWidth="16" markerHeight="12" refX="16" refY="6" viewBox="0 0 16 12" orient="auto" markerUnits="userSpaceOnUse"><path id="SvgjsPath1122" d="M0,2 L14,6 L0,11 L0,2" fill="#323232" stroke="#323232" stroke-width="2"></path></marker><marker id="SvgjsMarker1129" markerWidth="16" markerHeight="12" refX="16" refY="6" viewBox="0 0 16 12" orient="auto" markerUnits="userSpaceOnUse"><path id="SvgjsPath1130" d="M0,2 L14,6 L0,11 L0,2" fill="#323232" stroke="#323232" stroke-width="2"></path></marker><marker id="SvgjsMarker1149" markerWidth="16" markerHeight="12" refX="16" refY="6" viewBox="0 0 16 12" orient="auto" markerUnits="userSpaceOnUse"><path id="SvgjsPath1150" d="M0,2 L14,6 L0,11 L0,2" fill="#323232" stroke="#323232" stroke-width="2"></path></marker><marker id="SvgjsMarker1163" markerWidth="16" markerHeight="12" refX="16" refY="6" viewBox="0 0 16 12" orient="auto" markerUnits="userSpaceOnUse"><path id="SvgjsPath1164" d="M0,2 L14,6 L0,11 L0,2" fill="#323232" stroke="#323232" stroke-width="2"></path></marker><marker id="SvgjsMarker1177" markerWidth="16" markerHeight="12" refX="16" refY="6" viewBox="0 0 16 12" orient="auto" markerUnits="userSpaceOnUse"><path id="SvgjsPath1178" d="M0,2 L14,6 L0,11 L0,2" fill="#323232" stroke="#323232" stroke-width="2"></path></marker></defs><rect id="SvgjsRect1008" width="721" height="409.16668701171875" fill="#cce5ff"></rect><g id="SvgjsG1009" transform="translate(25.006939358181455,297.17712874340583)"><path id="SvgjsPath1010" d="M 0 4Q 0 0 4 0L 667.2222171359591 0Q 671.2222171359591 0 671.2222171359591 4L 671.2222171359591 82.8888888888888Q 671.2222171359591 86.8888888888888 667.2222171359591 86.8888888888888L 4 86.8888888888888Q 0 86.8888888888888 0 82.8888888888888Z" stroke="#323232" stroke-width="2" fill-opacity="1" fill="#ffffff"></path><g id="SvgjsG1011"><text id="SvgjsText1012" font-family="微软雅黑" text-anchor="middle" font-size="13px" width="32" fill="#323232" font-weight="400" align="middle" anchor="middle" family="微软雅黑" size="13px" weight="400" font-style="" y="-2.743650793650801" transform="rotate(0)"><tspan id="SvgjsTspan1013" dy="16" x="336"><tspan id="SvgjsTspan1014" style="text-decoration:;">队列</tspan></tspan></text></g></g><g id="SvgjsG1015" transform="translate(25.006939358181455,99.125)"><path id="SvgjsPath1016" d="M 0 4Q 0 0 4 0L 667.2222171359591 0Q 671.2222171359591 0 671.2222171359591 4L 671.2222171359591 82.8888888888888Q 671.2222171359591 86.8888888888888 667.2222171359591 86.8888888888888L 4 86.8888888888888Q 0 86.8888888888888 0 82.8888888888888Z" stroke="#323232" stroke-width="2" fill-opacity="1" fill="#ffffff"></path><g id="SvgjsG1017"><text id="SvgjsText1018" font-family="微软雅黑" text-anchor="middle" font-size="13px" width="32" fill="#323232" font-weight="400" align="middle" anchor="middle" family="微软雅黑" size="13px" weight="400" font-style="" y="-2.743650793650801" transform="rotate(0)"><tspan id="SvgjsTspan1019" dy="16" x="336"><tspan id="SvgjsTspan1020" style="text-decoration:;">队列</tspan></tspan></text></g></g><g id="SvgjsG1021" transform="translate(60.784712049696054,124.45490524961781)"><path id="SvgjsPath1022" d="M 0 0L 101 0L 101 44.333335876464844L 0 44.333335876464844Z" stroke="#323232" stroke-width="2" fill-opacity="1" fill="#ffffff"></path><g id="SvgjsG1023"><text id="SvgjsText1024" font-family="微软雅黑" text-anchor="middle" font-size="13px" width="9" fill="#323232" font-weight="400" align="middle" anchor="middle" family="微软雅黑" size="13px" weight="400" font-style="" y="12.216667938232423" transform="rotate(0)"><tspan id="SvgjsTspan1025" dy="16" x="50.5"><tspan id="SvgjsTspan1026" style="text-decoration:;">1</tspan></tspan></text></g></g><g id="SvgjsG1027"><path id="SvgjsPath1028" d="M161.78471204969594 146.62157318785023L190.84026760525165 146.62157318785023L190.84026760525165 146.62157318785023L219.89582316080737 146.62157318785023" stroke="#323232" stroke-width="2" fill="none" marker-end="url(#SvgjsMarker1029)"></path><rect id="SvgjsRect1031" width="33" height="16" x="174.34026760525165" y="138.62157318785023" fill="#ffffff"></rect><text id="SvgjsText1032" font-family="微软雅黑" text-anchor="middle" font-size="13px" width="33" fill="#323232" font-weight="400" align="top" anchor="middle" family="微软雅黑" size="13px" weight="400" font-style="" y="136.67157318785024" transform="rotate(0)"><tspan id="SvgjsTspan1033" dy="16" x="190.84026760525165"><tspan id="SvgjsTspan1034" style="text-decoration:;">next</tspan></tspan></text></g><g id="SvgjsG1035" transform="translate(219.89582316080737,124.45490524961781)"><path id="SvgjsPath1036" d="M 0 0L 101 0L 101 44.333335876464844L 0 44.333335876464844Z" stroke="#323232" stroke-width="2" fill-opacity="1" fill="#ffffff"></path><g id="SvgjsG1037"><text id="SvgjsText1038" font-family="微软雅黑" text-anchor="middle" font-size="13px" width="9" fill="#323232" font-weight="400" align="middle" anchor="middle" family="微软雅黑" size="13px" weight="400" font-style="" y="12.216667938232423" transform="rotate(0)"><tspan id="SvgjsTspan1039" dy="16" x="50.5"><tspan id="SvgjsTspan1040" style="text-decoration:;">2</tspan></tspan></text></g></g><g id="SvgjsG1041" transform="translate(57.621820216970264,55.01388888888883)"><path id="SvgjsPath1042" d="M 11.055 0L 22.445 0L 22.445 41.25L 33.5 41.25L 16.75 58L 0 41.25L 11.055 41.25L 11.055 0Z" stroke="#323232" stroke-width="2" fill-opacity="1" fill="#ffffff"></path><g id="SvgjsG1043"><text id="SvgjsText1044" font-family="微软雅黑" text-anchor="middle" font-size="13px" width="39" fill="#323232" font-weight="400" align="middle" anchor="middle" family="微软雅黑" size="13px" weight="400" font-style="" y="16.150000000000002" transform="rotate(0)"><tspan id="SvgjsTspan1045" dy="16" x="16.8"><tspan id="SvgjsTspan1046" style="text-decoration:;">front</tspan></tspan></text></g></g><g id="SvgjsG1047" transform="translate(385.89582316080737,124.45490524961781)"><path id="SvgjsPath1048" d="M 0 0L 101 0L 101 44.333335876464844L 0 44.333335876464844Z" stroke="#323232" stroke-width="2" fill-opacity="1" fill="#ffffff"></path><g id="SvgjsG1049"><text id="SvgjsText1050" font-family="微软雅黑" text-anchor="middle" font-size="13px" width="9" fill="#323232" font-weight="400" align="middle" anchor="middle" family="微软雅黑" size="13px" weight="400" font-style="" y="12.216667938232423" transform="rotate(0)"><tspan id="SvgjsTspan1051" dy="16" x="50.5"><tspan id="SvgjsTspan1052" style="text-decoration:;">3</tspan></tspan></text></g></g><g id="SvgjsG1053" transform="translate(553.8958231608074,124.45490524961781)"><path id="SvgjsPath1054" d="M 0 0L 101 0L 101 44.333335876464844L 0 44.333335876464844Z" stroke="#323232" stroke-width="2" fill-opacity="1" fill="#ffffff"></path><g id="SvgjsG1055"><text id="SvgjsText1056" font-family="微软雅黑" text-anchor="middle" font-size="13px" width="28" fill="#323232" font-weight="400" align="middle" anchor="middle" family="微软雅黑" size="13px" weight="400" font-style="" y="12.216667938232423" transform="rotate(0)"><tspan id="SvgjsTspan1057" dy="16" x="50.5"><tspan id="SvgjsTspan1058" style="text-decoration:;">null</tspan></tspan></text></g></g><g id="SvgjsG1059"><path id="SvgjsPath1060" d="M320.89582316080737 146.62157318785023L353.39582316080737 146.62157318785023L353.39582316080737 146.62157318785023L385.89582316080737 146.62157318785023" stroke="#323232" stroke-width="2" fill="none" marker-end="url(#SvgjsMarker1061)"></path><rect id="SvgjsRect1063" width="33" height="16" x="336.89582316080737" y="138.62157318785023" fill="#ffffff"></rect><text id="SvgjsText1064" font-family="微软雅黑" text-anchor="middle" font-size="13px" width="33" fill="#323232" font-weight="400" align="top" anchor="middle" family="微软雅黑" size="13px" weight="400" font-style="" y="136.67157318785024" transform="rotate(0)"><tspan id="SvgjsTspan1065" dy="16" x="353.39582316080737"><tspan id="SvgjsTspan1066" style="text-decoration:;">next</tspan></tspan></text></g><g id="SvgjsG1067"><path id="SvgjsPath1068" d="M486.89582316080737 146.62157318785023L520.3958231608074 146.62157318785023L520.3958231608074 146.62157318785023L553.8958231608074 146.62157318785023" stroke="#323232" stroke-width="2" fill="none" marker-end="url(#SvgjsMarker1069)"></path><rect id="SvgjsRect1071" width="33" height="16" x="503.89582316080737" y="138.62157318785023" fill="#ffffff"></rect><text id="SvgjsText1072" font-family="微软雅黑" text-anchor="middle" font-size="13px" width="33" fill="#323232" font-weight="400" align="top" anchor="middle" family="微软雅黑" size="13px" weight="400" font-style="" y="136.67157318785024" transform="rotate(0)"><tspan id="SvgjsTspan1073" dy="16" x="520.3958231608074"><tspan id="SvgjsTspan1074" style="text-decoration:;">next</tspan></tspan></text></g><g id="SvgjsG1075" transform="translate(419.64582316080737,55.01388888888883)"><path id="SvgjsPath1076" d="M 11.055 0L 22.445 0L 22.445 41.25L 33.5 41.25L 16.75 58L 0 41.25L 11.055 41.25L 11.055 0Z" stroke="#323232" stroke-width="2" fill-opacity="1" fill="#ffffff"></path><g id="SvgjsG1077"><text id="SvgjsText1078" font-family="微软雅黑" text-anchor="middle" font-size="13px" width="31" fill="#323232" font-weight="400" align="middle" anchor="middle" family="微软雅黑" size="13px" weight="400" font-style="" y="16.150000000000002" transform="rotate(0)"><tspan id="SvgjsTspan1079" dy="16" x="16.8"><tspan id="SvgjsTspan1080" style="text-decoration:;">rear</tspan></tspan></text></g></g><g id="SvgjsG1081" transform="translate(63.56249237060541,318.4549052496178)"><path id="SvgjsPath1082" d="M 0 0L 101 0L 101 44.333335876464844L 0 44.333335876464844Z" stroke="#323232" stroke-width="2" fill-opacity="1" fill="#ffffff"></path><g id="SvgjsG1083"><text id="SvgjsText1084" font-family="微软雅黑" text-anchor="middle" font-size="13px" width="9" fill="#323232" font-weight="400" align="middle" anchor="middle" family="微软雅黑" size="13px" weight="400" font-style="" y="12.216667938232423" transform="rotate(0)"><tspan id="SvgjsTspan1085" dy="16" x="50.5"><tspan id="SvgjsTspan1086" style="text-decoration:;">1</tspan></tspan></text></g></g><g id="SvgjsG1087"><path id="SvgjsPath1088" d="M164.5624923706053 340.62157318785023L193.618047926161 340.62157318785023L193.618047926161 340.62157318785023L222.67360348171673 340.62157318785023" stroke="#323232" stroke-width="2" fill="none" marker-end="url(#SvgjsMarker1089)"></path><rect id="SvgjsRect1091" width="33" height="16" x="177.118047926161" y="332.62157318785023" fill="#ffffff"></rect><text id="SvgjsText1092" font-family="微软雅黑" text-anchor="middle" font-size="13px" width="33" fill="#323232" font-weight="400" align="top" anchor="middle" family="微软雅黑" size="13px" weight="400" font-style="" y="330.67157318785024" transform="rotate(0)"><tspan id="SvgjsTspan1093" dy="16" x="193.618047926161"><tspan id="SvgjsTspan1094" style="text-decoration:;">next</tspan></tspan></text></g><g id="SvgjsG1095" transform="translate(222.67360348171673,318.4549052496178)"><path id="SvgjsPath1096" d="M 0 0L 101 0L 101 44.333335876464844L 0 44.333335876464844Z" stroke="#323232" stroke-width="2" fill-opacity="1" fill="#ffffff"></path><g id="SvgjsG1097"><text id="SvgjsText1098" font-family="微软雅黑" text-anchor="middle" font-size="13px" width="9" fill="#323232" font-weight="400" align="middle" anchor="middle" family="微软雅黑" size="13px" weight="400" font-style="" y="12.216667938232423" transform="rotate(0)"><tspan id="SvgjsTspan1099" dy="16" x="50.5"><tspan id="SvgjsTspan1100" style="text-decoration:;">2</tspan></tspan></text></g></g><g id="SvgjsG1101" transform="translate(91.12182021697032,249.0138888888888)"><path id="SvgjsPath1102" d="M 11.055 0L 22.445 0L 22.445 41.25L 33.5 41.25L 16.75 58L 0 41.25L 11.055 41.25L 11.055 0Z" stroke="#323232" stroke-width="2" fill-opacity="1" fill="#ffffff"></path><g id="SvgjsG1103"><text id="SvgjsText1104" font-family="微软雅黑" text-anchor="middle" font-size="13px" width="39" fill="#323232" font-weight="400" align="middle" anchor="middle" family="微软雅黑" size="13px" weight="400" font-style="" y="16.150000000000002" transform="rotate(0)"><tspan id="SvgjsTspan1105" dy="16" x="16.8"><tspan id="SvgjsTspan1106" style="text-decoration:;">front</tspan></tspan></text></g></g><g id="SvgjsG1107" transform="translate(388.6736034817168,318.4549052496178)"><path id="SvgjsPath1108" d="M 0 0L 101 0L 101 44.333335876464844L 0 44.333335876464844Z" stroke="#323232" stroke-width="2" fill-opacity="1" fill="#ffffff"></path><g id="SvgjsG1109"><text id="SvgjsText1110" font-family="微软雅黑" text-anchor="middle" font-size="13px" width="9" fill="#323232" font-weight="400" align="middle" anchor="middle" family="微软雅黑" size="13px" weight="400" font-style="" y="12.216667938232423" transform="rotate(0)"><tspan id="SvgjsTspan1111" dy="16" x="50.5"><tspan id="SvgjsTspan1112" style="text-decoration:;">3</tspan></tspan></text></g></g><g id="SvgjsG1113" transform="translate(556.6736034817168,318.4549052496178)"><path id="SvgjsPath1114" d="M 0 0L 101 0L 101 44.333335876464844L 0 44.333335876464844Z" stroke="#323232" stroke-width="2" fill-opacity="1" fill="#ffffff"></path><g id="SvgjsG1115"><text id="SvgjsText1116" font-family="微软雅黑" text-anchor="middle" font-size="13px" width="28" fill="#323232" font-weight="400" align="middle" anchor="middle" family="微软雅黑" size="13px" weight="400" font-style="" y="12.216667938232423" transform="rotate(0)"><tspan id="SvgjsTspan1117" dy="16" x="50.5"><tspan id="SvgjsTspan1118" style="text-decoration:;">null</tspan></tspan></text></g></g><g id="SvgjsG1119"><path id="SvgjsPath1120" d="M323.6736034817167 340.62157318785023L356.1736034817167 340.62157318785023L356.1736034817167 340.62157318785023L388.6736034817168 340.62157318785023" stroke="#323232" stroke-width="2" fill="none" marker-end="url(#SvgjsMarker1121)"></path><rect id="SvgjsRect1123" width="33" height="16" x="339.6736034817167" y="332.62157318785023" fill="#ffffff"></rect><text id="SvgjsText1124" font-family="微软雅黑" text-anchor="middle" font-size="13px" width="33" fill="#323232" font-weight="400" align="top" anchor="middle" family="微软雅黑" size="13px" weight="400" font-style="" y="330.67157318785024" transform="rotate(0)"><tspan id="SvgjsTspan1125" dy="16" x="356.1736034817167"><tspan id="SvgjsTspan1126" style="text-decoration:;">next</tspan></tspan></text></g><g id="SvgjsG1127"><path id="SvgjsPath1128" d="M489.6736034817168 340.62157318785023L523.1736034817168 340.62157318785023L523.1736034817168 340.62157318785023L556.6736034817168 340.62157318785023" stroke="#323232" stroke-width="2" fill="none" marker-end="url(#SvgjsMarker1129)"></path><rect id="SvgjsRect1131" width="33" height="16" x="506.6736034817168" y="332.62157318785023" fill="#ffffff"></rect><text id="SvgjsText1132" font-family="微软雅黑" text-anchor="middle" font-size="13px" width="33" fill="#323232" font-weight="400" align="top" anchor="middle" family="微软雅黑" size="13px" weight="400" font-style="" y="330.67157318785024" transform="rotate(0)"><tspan id="SvgjsTspan1133" dy="16" x="523.1736034817168"><tspan id="SvgjsTspan1134" style="text-decoration:;">next</tspan></tspan></text></g><g id="SvgjsG1135" transform="translate(422.4236034817168,249.0138888888888)"><path id="SvgjsPath1136" d="M 11.055 0L 22.445 0L 22.445 41.25L 33.5 41.25L 16.75 58L 0 41.25L 11.055 41.25L 11.055 0Z" stroke="#323232" stroke-width="2" fill-opacity="1" fill="#ffffff"></path><g id="SvgjsG1137"><text id="SvgjsText1138" font-family="微软雅黑" text-anchor="middle" font-size="13px" width="31" fill="#323232" font-weight="400" align="middle" anchor="middle" family="微软雅黑" size="13px" weight="400" font-style="" y="16.150000000000002" transform="rotate(0)"><tspan id="SvgjsTspan1139" dy="16" x="16.8"><tspan id="SvgjsTspan1140" style="text-decoration:;">rear</tspan></tspan></text></g></g><g id="SvgjsG1141" transform="translate(256.42360348171667,55.01388888888883)"><path id="SvgjsPath1142" d="M 11.055 0L 22.445 0L 22.445 41.25L 33.5 41.25L 16.75 58L 0 41.25L 11.055 41.25L 11.055 0Z" stroke-dasharray="10,6" stroke="#323232" stroke-width="2" fill-opacity="1" fill="#ffffff"></path><g id="SvgjsG1143"><text id="SvgjsText1144" font-family="微软雅黑" text-anchor="middle" font-size="13px" width="31" fill="#323232" font-weight="400" align="middle" anchor="middle" family="微软雅黑" size="13px" weight="400" font-style="" y="16.150000000000002" transform="rotate(0)"><tspan id="SvgjsTspan1145" dy="16" x="16.8"><tspan id="SvgjsTspan1146" style="text-decoration:;">rear</tspan></tspan></text></g></g><g id="SvgjsG1147"><path id="SvgjsPath1148" d="M141.37182021697026 55.01388888888883L141.37182021697026 25.01388888888883L273.17360348171667 25.01388888888883L273.17360348171667 55.01388888888883" stroke-dasharray="8,5" stroke="#323232" stroke-width="2" fill="none" marker-end="url(#SvgjsMarker1149)"></path><rect id="SvgjsRect1151" width="32" height="16" x="191.27271184934347" y="17.01388888888883" fill="#ffffff"></rect><text id="SvgjsText1152" font-family="微软雅黑" text-anchor="middle" font-size="13px" width="32" fill="#323232" font-weight="400" align="top" anchor="middle" family="微软雅黑" size="13px" weight="400" font-style="" y="15.06388888888883" transform="rotate(0)"><tspan id="SvgjsTspan1153" dy="16" x="207.27271184934347"><tspan id="SvgjsTspan1154" style="text-decoration:;">入队</tspan></tspan></text></g><g id="SvgjsG1155" transform="translate(124.62182021697026,55.01388888888883)"><path id="SvgjsPath1156" d="M 11.055 0L 22.445 0L 22.445 41.25L 33.5 41.25L 16.75 58L 0 41.25L 11.055 41.25L 11.055 0Z" stroke="#323232" stroke-width="2" fill-opacity="1" fill="#ffffff"></path><g id="SvgjsG1157"><text id="SvgjsText1158" font-family="微软雅黑" text-anchor="middle" font-size="13px" width="31" fill="#323232" font-weight="400" align="middle" anchor="middle" family="微软雅黑" size="13px" weight="400" font-style="" y="16.150000000000002" transform="rotate(0)"><tspan id="SvgjsTspan1159" dy="16" x="16.8"><tspan id="SvgjsTspan1160" style="text-decoration:;">rear</tspan></tspan></text></g></g><g id="SvgjsG1161"><path id="SvgjsPath1162" d="M273.17360348171667 55.01388888888883L273.17360348171667 25.01388888888883L436.39582316080737 25.01388888888883L436.39582316080737 55.01388888888883" stroke-dasharray="8,5" stroke="#323232" stroke-width="2" fill="none" marker-end="url(#SvgjsMarker1163)"></path><rect id="SvgjsRect1165" width="32" height="16" x="338.784713321262" y="17.01388888888883" fill="#ffffff"></rect><text id="SvgjsText1166" font-family="微软雅黑" text-anchor="middle" font-size="13px" width="32" fill="#323232" font-weight="400" align="top" anchor="middle" family="微软雅黑" size="13px" weight="400" font-style="" y="15.06388888888883" transform="rotate(0)"><tspan id="SvgjsTspan1167" dy="16" x="354.784713321262"><tspan id="SvgjsTspan1168" style="text-decoration:;">入队</tspan></tspan></text></g><g id="SvgjsG1169" transform="translate(256.4236034817167,252.0138888888888)"><path id="SvgjsPath1170" d="M 11.055 0L 22.445 0L 22.445 41.25L 33.5 41.25L 16.75 58L 0 41.25L 11.055 41.25L 11.055 0Z" stroke="#323232" stroke-width="2" fill-opacity="1" fill="#ffffff"></path><g id="SvgjsG1171"><text id="SvgjsText1172" font-family="微软雅黑" text-anchor="middle" font-size="13px" width="39" fill="#323232" font-weight="400" align="middle" anchor="middle" family="微软雅黑" size="13px" weight="400" font-style="" y="16.150000000000002" transform="rotate(0)"><tspan id="SvgjsTspan1173" dy="16" x="16.8"><tspan id="SvgjsTspan1174" style="text-decoration:;">front</tspan></tspan></text></g></g><g id="SvgjsG1175"><path id="SvgjsPath1176" d="M107.87182021697032 249.0138888888888L107.87182021697032 219.0138888888888L273.1736034817167 219.0138888888888L273.1736034817167 252.0138888888888" stroke-dasharray="8,5" stroke="#323232" stroke-width="2" fill="none" marker-end="url(#SvgjsMarker1177)"></path><rect id="SvgjsRect1179" width="32" height="16" x="176.02271184934352" y="211.0138888888888" fill="#ffffff"></rect><text id="SvgjsText1180" font-family="微软雅黑" text-anchor="middle" font-size="13px" width="32" fill="#323232" font-weight="400" align="top" anchor="middle" family="微软雅黑" size="13px" weight="400" font-style="" y="209.0638888888888" transform="rotate(0)"><tspan id="SvgjsTspan1181" dy="16" x="192.02271184934352"><tspan id="SvgjsTspan1182" style="text-decoration:;">出队</tspan></tspan></text></g></svg>