<svg id="SvgjsSvg1142" width="1016.4791564941406" height="394.0833435058594" xmlns="http://www.w3.org/2000/svg" version="1.1" xmlns:xlink="http://www.w3.org/1999/xlink" xmlns:svgjs="http://svgjs.com/svgjs"><defs id="SvgjsDefs1143"><marker id="SvgjsMarker1177" markerWidth="16" markerHeight="12" refX="16" refY="6" viewBox="0 0 16 12" orient="auto" markerUnits="userSpaceOnUse"><path id="SvgjsPath1178" d="M0,2 L14,6 L0,11 L0,2" fill="#323232" stroke="#323232" stroke-width="2"></path></marker><marker id="SvgjsMarker1203" markerWidth="16" markerHeight="12" refX="16" refY="6" viewBox="0 0 16 12" orient="auto" markerUnits="userSpaceOnUse"><path id="SvgjsPath1204" d="M0,2 L14,6 L0,11 L0,2" fill="#323232" stroke="#323232" stroke-width="2"></path></marker><marker id="SvgjsMarker1229" markerWidth="16" markerHeight="12" refX="16" refY="6" viewBox="0 0 16 12" orient="auto" markerUnits="userSpaceOnUse"><path id="SvgjsPath1230" d="M0,2 L14,6 L0,11 L0,2" fill="#323232" stroke="#323232" stroke-width="2"></path></marker><marker id="SvgjsMarker1237" markerWidth="16" markerHeight="12" refX="16" refY="6" viewBox="0 0 16 12" orient="auto" markerUnits="userSpaceOnUse"><path id="SvgjsPath1238" d="M0,2 L14,6 L0,11 L0,2" fill="#323232" stroke="#323232" stroke-width="2"></path></marker><marker id="SvgjsMarker1251" markerWidth="16" markerHeight="12" refX="16" refY="6" viewBox="0 0 16 12" orient="auto" markerUnits="userSpaceOnUse"><path id="SvgjsPath1252" d="M0,2 L14,6 L0,11 L0,2" fill="#323232" stroke="#323232" stroke-width="2"></path></marker><marker id="SvgjsMarker1277" markerWidth="16" markerHeight="12" refX="16" refY="6" viewBox="0 0 16 12" orient="auto" markerUnits="userSpaceOnUse"><path id="SvgjsPath1278" d="M0,2 L14,6 L0,11 L0,2" fill="#323232" stroke="#323232" stroke-width="2"></path></marker><marker id="SvgjsMarker1285" markerWidth="16" markerHeight="12" refX="16" refY="6" viewBox="0 0 16 12" orient="auto" markerUnits="userSpaceOnUse"><path id="SvgjsPath1286" d="M0,2 L14,6 L0,11 L0,2" fill="#323232" stroke="#323232" stroke-width="2"></path></marker><marker id="SvgjsMarker1293" markerWidth="16" markerHeight="12" refX="16" refY="6" viewBox="0 0 16 12" orient="auto" markerUnits="userSpaceOnUse"><path id="SvgjsPath1294" d="M0,2 L14,6 L0,11 L0,2" fill="#323232" stroke="#323232" stroke-width="2"></path></marker><marker id="SvgjsMarker1307" markerWidth="16" markerHeight="12" refX="16" refY="6" viewBox="0 0 16 12" orient="auto" markerUnits="userSpaceOnUse"><path id="SvgjsPath1308" d="M0,2 L14,6 L0,11 L0,2" fill="#323232" stroke="#323232" stroke-width="2"></path></marker><marker id="SvgjsMarker1327" markerWidth="16" markerHeight="12" refX="16" refY="6" viewBox="0 0 16 12" orient="auto" markerUnits="userSpaceOnUse"><path id="SvgjsPath1328" d="M0,2 L14,6 L0,11 L0,2" fill="#323232" stroke="#323232" stroke-width="2"></path></marker></defs><rect id="SvgjsRect1144" width="1016.4791564941406" height="394.0833435058594" fill="#cce5ff"></rect><g id="SvgjsG1145" transform="translate(25.075526463805602,243.422639254496)"><path id="SvgjsPath1146" d="M 0 4Q 0 0 4 0L 413.3333282470703 0Q 417.3333282470703 0 417.3333282470703 4L 417.3333282470703 89.33332824707031Q 417.3333282470703 93.33332824707031 413.3333282470703 93.33332824707031L 4 93.33332824707031Q 0 93.33332824707031 0 89.33332824707031Z" stroke="#323232" stroke-width="2" fill-opacity="1" fill="#ffffff"></path><g id="SvgjsG1147"><text id="SvgjsText1148" font-family="微软雅黑" text-anchor="middle" font-size="13px" width="32" fill="#323232" font-weight="400" align="middle" anchor="middle" family="微软雅黑" size="13px" weight="400" font-style="" y="-2.2833336966378353" transform="rotate(0)"><tspan id="SvgjsTspan1149" dy="16" x="209"><tspan id="SvgjsTspan1150" style="text-decoration:;">链表</tspan></tspan></text></g></g><g id="SvgjsG1151" transform="translate(555.4996908618713,248.12500508626323)"><path id="SvgjsPath1152" d="M 0 4Q 0 0 4 0L 432.3374434734078 0Q 436.3374434734078 0 436.3374434734078 4L 436.3374434734078 89.82790807813342Q 436.3374434734078 93.82790807813342 432.3374434734078 93.82790807813342L 4 93.82790807813342Q 0 93.82790807813342 0 89.82790807813342Z" stroke="#323232" stroke-width="2" fill-opacity="1" fill="#ffffff"></path><g id="SvgjsG1153"><text id="SvgjsText1154" font-family="微软雅黑" text-anchor="middle" font-size="13px" width="32" fill="#323232" font-weight="400" align="middle" anchor="middle" family="微软雅黑" size="13px" weight="400" font-style="" y="-2.2480065658476134" transform="rotate(0)"><tspan id="SvgjsTspan1155" dy="16" x="218.5"><tspan id="SvgjsTspan1156" style="text-decoration:;">链表</tspan></tspan></text></g></g><g id="SvgjsG1157" transform="translate(555.254106964745,73.68056064181846)"><path id="SvgjsPath1158" d="M 0 4Q 0 0 4 0L 432.3374434734078 0Q 436.3374434734078 0 436.3374434734078 4L 436.3374434734078 89.82790807813342Q 436.3374434734078 93.82790807813342 432.3374434734078 93.82790807813342L 4 93.82790807813342Q 0 93.82790807813342 0 89.82790807813342Z" stroke="#323232" stroke-width="2" fill-opacity="1" fill="#ffffff"></path><g id="SvgjsG1159"><text id="SvgjsText1160" font-family="微软雅黑" text-anchor="middle" font-size="13px" width="32" fill="#323232" font-weight="400" align="middle" anchor="middle" family="微软雅黑" size="13px" weight="400" font-style="" y="-2.2480065658476134" transform="rotate(0)"><tspan id="SvgjsTspan1161" dy="16" x="218.5"><tspan id="SvgjsTspan1162" style="text-decoration:;">链表</tspan></tspan></text></g></g><g id="SvgjsG1163" transform="translate(25.00693935818147,73.68056064181849)"><path id="SvgjsPath1164" d="M 0 4Q 0 0 4 0L 413.3333282470703 0Q 417.3333282470703 0 417.3333282470703 4L 417.3333282470703 89.33332824707031Q 417.3333282470703 93.33332824707031 413.3333282470703 93.33332824707031L 4 93.33332824707031Q 0 93.33332824707031 0 89.33332824707031Z" stroke="#323232" stroke-width="2" fill-opacity="1" fill="#ffffff"></path><g id="SvgjsG1165"><text id="SvgjsText1166" font-family="微软雅黑" text-anchor="middle" font-size="13px" width="32" fill="#323232" font-weight="400" align="middle" anchor="middle" family="微软雅黑" size="13px" weight="400" font-style="" y="-2.2833336966378353" transform="rotate(0)"><tspan id="SvgjsTspan1167" dy="16" x="209"><tspan id="SvgjsTspan1168" style="text-decoration:;">链表</tspan></tspan></text></g></g><g id="SvgjsG1169" transform="translate(36.78471204969607,98.45490524961781)"><path id="SvgjsPath1170" d="M 0 0L 101 0L 101 44.333335876464844L 0 44.333335876464844Z" stroke="#323232" stroke-width="2" fill-opacity="1" fill="#ffffff"></path><g id="SvgjsG1171"><text id="SvgjsText1172" font-family="微软雅黑" text-anchor="middle" font-size="13px" width="9" fill="#323232" font-weight="400" align="middle" anchor="middle" family="微软雅黑" size="13px" weight="400" font-style="" y="12.216667938232423" transform="rotate(0)"><tspan id="SvgjsTspan1173" dy="16" x="50.5"><tspan id="SvgjsTspan1174" style="text-decoration:;">1</tspan></tspan></text></g></g><g id="SvgjsG1175"><path id="SvgjsPath1176" d="M137.78471204969594 120.62157318785023L163.34026760525165 120.62157318785023L163.34026760525165 120.12774602735641L188.89582316080737 120.12774602735641" stroke="#323232" stroke-width="2" fill="none" marker-end="url(#SvgjsMarker1177)"></path><rect id="SvgjsRect1179" width="33" height="16" x="146.84026760525165" y="112.37465960760332" fill="#ffffff"></rect><text id="SvgjsText1180" font-family="微软雅黑" text-anchor="middle" font-size="13px" width="33" fill="#323232" font-weight="400" align="top" anchor="middle" family="微软雅黑" size="13px" weight="400" font-style="" y="110.42465960760332" transform="rotate(0)"><tspan id="SvgjsTspan1181" dy="16" x="163.34026760525165"><tspan id="SvgjsTspan1182" style="text-decoration:;">next</tspan></tspan></text></g><g id="SvgjsG1183" transform="translate(188.89582316080737,97.96107808912399)"><path id="SvgjsPath1184" d="M 0 0L 101 0L 101 44.333335876464844L 0 44.333335876464844Z" stroke="#323232" stroke-width="2" fill-opacity="1" fill="#ffffff"></path><g id="SvgjsG1185"><text id="SvgjsText1186" font-family="微软雅黑" text-anchor="middle" font-size="13px" width="28" fill="#323232" font-weight="400" align="middle" anchor="middle" family="微软雅黑" size="13px" weight="400" font-style="" y="12.216667938232423" transform="rotate(0)"><tspan id="SvgjsTspan1187" dy="16" x="50.5"><tspan id="SvgjsTspan1188" style="text-decoration:;">null</tspan></tspan></text></g></g><g id="SvgjsG1189" transform="translate(71.34403989606099,25.01388888888883)"><path id="SvgjsPath1190" d="M 11.055 0L 22.445 0L 22.445 41.25L 33.5 41.25L 16.75 58L 0 41.25L 11.055 41.25L 11.055 0Z" stroke="#323232" stroke-width="2" fill-opacity="1" fill="#ffffff"></path><g id="SvgjsG1191"><text id="SvgjsText1192" font-family="微软雅黑" text-anchor="middle" font-size="13px" width="32" fill="#323232" font-weight="400" align="middle" anchor="middle" family="微软雅黑" size="13px" weight="400" font-style="" y="16.150000000000002" transform="rotate(0)"><tspan id="SvgjsTspan1193" dy="16" x="16.8"><tspan id="SvgjsTspan1194" style="text-decoration:;">节点</tspan></tspan></text></g></g><g id="SvgjsG1195" transform="translate(566.544202475772,98.45490524961778)"><path id="SvgjsPath1196" d="M 0 0L 101 0L 101 44.333335876464844L 0 44.333335876464844Z" stroke="#323232" stroke-width="2" fill-opacity="1" fill="#ffffff"></path><g id="SvgjsG1197"><text id="SvgjsText1198" font-family="微软雅黑" text-anchor="middle" font-size="13px" width="9" fill="#323232" font-weight="400" align="middle" anchor="middle" family="微软雅黑" size="13px" weight="400" font-style="" y="12.216667938232423" transform="rotate(0)"><tspan id="SvgjsTspan1199" dy="16" x="50.5"><tspan id="SvgjsTspan1200" style="text-decoration:;">2</tspan></tspan></text></g></g><g id="SvgjsG1201"><path id="SvgjsPath1202" d="M667.544202475772 120.6215731878502L695.1933794305045 120.6215731878502L695.1933794305045 120.59447704735672L722.8425563852369 120.59447704735672" stroke="#323232" stroke-width="2" fill="none" marker-end="url(#SvgjsMarker1203)"></path><rect id="SvgjsRect1205" width="33" height="16" x="678.6933794305046" y="112.60802511760352" fill="#ffffff"></rect><text id="SvgjsText1206" font-family="微软雅黑" text-anchor="middle" font-size="13px" width="33" fill="#323232" font-weight="400" align="top" anchor="middle" family="微软雅黑" size="13px" weight="400" font-style="" y="110.65802511760351" transform="rotate(0)"><tspan id="SvgjsTspan1207" dy="16" x="695.1933794305046"><tspan id="SvgjsTspan1208" style="text-decoration:;">next</tspan></tspan></text></g><g id="SvgjsG1209" transform="translate(722.8425563852369,98.4278091091243)"><path id="SvgjsPath1210" d="M 0 0L 101 0L 101 44.333335876464844L 0 44.333335876464844Z" stroke="#323232" stroke-width="2" fill-opacity="1" fill="#ffffff"></path><g id="SvgjsG1211"><text id="SvgjsText1212" font-family="微软雅黑" text-anchor="middle" font-size="13px" width="9" fill="#323232" font-weight="400" align="middle" anchor="middle" family="微软雅黑" size="13px" weight="400" font-style="" y="12.216667938232423" transform="rotate(0)"><tspan id="SvgjsTspan1213" dy="16" x="50.5"><tspan id="SvgjsTspan1214" style="text-decoration:;">1</tspan></tspan></text></g></g><g id="SvgjsG1215" transform="translate(600.7674535045785,25.01388888888883)"><path id="SvgjsPath1216" d="M 11.055 0L 22.445 0L 22.445 41.25L 33.5 41.25L 16.75 58L 0 41.25L 11.055 41.25L 11.055 0Z" stroke="#323232" stroke-width="2" fill-opacity="1" fill="#ffffff"></path><g id="SvgjsG1217"><text id="SvgjsText1218" font-family="微软雅黑" text-anchor="middle" font-size="13px" width="32" fill="#323232" font-weight="400" align="middle" anchor="middle" family="微软雅黑" size="13px" weight="400" font-style="" y="16.150000000000002" transform="rotate(0)"><tspan id="SvgjsTspan1219" dy="16" x="16.8"><tspan id="SvgjsTspan1220" style="text-decoration:;">节点</tspan></tspan></text></g></g><g id="SvgjsG1221" transform="translate(877.8404987720677,98.42784674265275)"><path id="SvgjsPath1222" d="M 0 0L 101 0L 101 44.333335876464844L 0 44.333335876464844Z" stroke="#323232" stroke-width="2" fill-opacity="1" fill="#ffffff"></path><g id="SvgjsG1223"><text id="SvgjsText1224" font-family="微软雅黑" text-anchor="middle" font-size="13px" width="28" fill="#323232" font-weight="400" align="middle" anchor="middle" family="微软雅黑" size="13px" weight="400" font-style="" y="12.216667938232423" transform="rotate(0)"><tspan id="SvgjsTspan1225" dy="16" x="50.5"><tspan id="SvgjsTspan1226" style="text-decoration:;">null</tspan></tspan></text></g></g><g id="SvgjsG1227"><path id="SvgjsPath1228" d="M823.8425563852369 120.59447704735672L850.8415275786523 120.59447704735672L850.8415275786523 120.59451468088517L877.8404987720677 120.59451468088517" stroke="#323232" stroke-width="2" fill="none" marker-end="url(#SvgjsMarker1229)"></path><rect id="SvgjsRect1231" width="33" height="16" x="834.3415275786523" y="112.59449586412094" fill="#ffffff"></rect><text id="SvgjsText1232" font-family="微软雅黑" text-anchor="middle" font-size="13px" width="33" fill="#323232" font-weight="400" align="top" anchor="middle" family="微软雅黑" size="13px" weight="400" font-style="" y="110.64449586412094" transform="rotate(0)"><tspan id="SvgjsTspan1233" dy="16" x="850.8415275786523"><tspan id="SvgjsTspan1234" style="text-decoration:;">next</tspan></tspan></text></g><g id="SvgjsG1235"><path id="SvgjsPath1236" d="M442.34026760525177 120.34722476535364L498.79718728499836 120.34722476535364L498.79718728499836 120.59451468088517L555.254106964745 120.59451468088517" stroke="#323232" stroke-width="2" fill="none" marker-end="url(#SvgjsMarker1237)"></path><rect id="SvgjsRect1239" width="64" height="16" x="466.79718728499836" y="112.47086972311943" fill="#ffffff"></rect><text id="SvgjsText1240" font-family="微软雅黑" text-anchor="middle" font-size="13px" width="64" fill="#323232" font-weight="400" align="top" anchor="middle" family="微软雅黑" size="13px" weight="400" font-style="" y="110.52086972311943" transform="rotate(0)"><tspan id="SvgjsTspan1241" dy="16" x="498.79718728499836"><tspan id="SvgjsTspan1242" style="text-decoration:;">新增节点</tspan></tspan></text></g><g id="SvgjsG1243" transform="translate(569.3323636921966,272.76088130758546)"><path id="SvgjsPath1244" d="M 0 0L 101 0L 101 44.333335876464844L 0 44.333335876464844Z" stroke="#323232" stroke-width="2" fill-opacity="1" fill="#ffffff"></path><g id="SvgjsG1245"><text id="SvgjsText1246" font-family="微软雅黑" text-anchor="middle" font-size="13px" width="9" fill="#323232" font-weight="400" align="middle" anchor="middle" family="微软雅黑" size="13px" weight="400" font-style="" y="12.216667938232423" transform="rotate(0)"><tspan id="SvgjsTspan1247" dy="16" x="50.5"><tspan id="SvgjsTspan1248" style="text-decoration:;">2</tspan></tspan></text></g></g><g id="SvgjsG1249"><path id="SvgjsPath1250" d="M670.3323636921966 294.9275492458179L697.9815406469291 294.9275492458179L697.9815406469291 294.9004531053244L725.6307176016616 294.9004531053244" stroke="#323232" stroke-width="2" fill="none" marker-end="url(#SvgjsMarker1251)"></path><rect id="SvgjsRect1253" width="32" height="16" x="681.9815406469293" y="286.91400117557123" fill="#ffffff"></rect><text id="SvgjsText1254" font-family="微软雅黑" text-anchor="middle" font-size="13px" width="32" fill="#323232" font-weight="400" align="top" anchor="middle" family="微软雅黑" size="13px" weight="400" font-style="" y="284.96400117557124" transform="rotate(0)"><tspan id="SvgjsTspan1255" dy="16" x="697.9815406469293"><tspan id="SvgjsTspan1256" style="text-decoration:;">断开</tspan></tspan></text></g><g id="SvgjsG1257" transform="translate(725.6307176016616,272.733785167092)"><path id="SvgjsPath1258" d="M 0 0L 101 0L 101 44.333335876464844L 0 44.333335876464844Z" stroke="#323232" stroke-width="2" fill-opacity="1" fill="#ffffff"></path><g id="SvgjsG1259"><text id="SvgjsText1260" font-family="微软雅黑" text-anchor="middle" font-size="13px" width="9" fill="#323232" font-weight="400" align="middle" anchor="middle" family="微软雅黑" size="13px" weight="400" font-style="" y="12.216667938232423" transform="rotate(0)"><tspan id="SvgjsTspan1261" dy="16" x="50.5"><tspan id="SvgjsTspan1262" style="text-decoration:;">1</tspan></tspan></text></g></g><g id="SvgjsG1263" transform="translate(602.4711014158305,201.68055555555537)"><path id="SvgjsPath1264" d="M 11.055 0L 22.445 0L 22.445 41.25L 33.5 41.25L 16.75 58L 0 41.25L 11.055 41.25L 11.055 0Z" stroke="#323232" stroke-width="2" fill-opacity="1" fill="#ffffff"></path><g id="SvgjsG1265"><text id="SvgjsText1266" font-family="微软雅黑" text-anchor="middle" font-size="13px" width="32" fill="#323232" font-weight="400" align="middle" anchor="middle" family="微软雅黑" size="13px" weight="400" font-style="" y="16.150000000000002" transform="rotate(0)"><tspan id="SvgjsTspan1267" dy="16" x="16.8"><tspan id="SvgjsTspan1268" style="text-decoration:;">节点</tspan></tspan></text></g></g><g id="SvgjsG1269" transform="translate(880.6286599884924,272.73382280062043)"><path id="SvgjsPath1270" d="M 0 0L 101 0L 101 44.333335876464844L 0 44.333335876464844Z" stroke="#323232" stroke-width="2" fill-opacity="1" fill="#ffffff"></path><g id="SvgjsG1271"><text id="SvgjsText1272" font-family="微软雅黑" text-anchor="middle" font-size="13px" width="28" fill="#323232" font-weight="400" align="middle" anchor="middle" family="微软雅黑" size="13px" weight="400" font-style="" y="12.216667938232423" transform="rotate(0)"><tspan id="SvgjsTspan1273" dy="16" x="50.5"><tspan id="SvgjsTspan1274" style="text-decoration:;">null</tspan></tspan></text></g></g><g id="SvgjsG1275"><path id="SvgjsPath1276" d="M826.6307176016616 294.9004531053244L853.629688795077 294.9004531053244L853.629688795077 294.90049073885285L880.6286599884924 294.90049073885285" stroke="#323232" stroke-width="2" fill="none" marker-end="url(#SvgjsMarker1277)"></path><rect id="SvgjsRect1279" width="33" height="16" x="837.129688795077" y="286.9004719220886" fill="#ffffff"></rect><text id="SvgjsText1280" font-family="微软雅黑" text-anchor="middle" font-size="13px" width="33" fill="#323232" font-weight="400" align="top" anchor="middle" family="微软雅黑" size="13px" weight="400" font-style="" y="284.95047192208864" transform="rotate(0)"><tspan id="SvgjsTspan1281" dy="16" x="853.629688795077"><tspan id="SvgjsTspan1282" style="text-decoration:;">next</tspan></tspan></text></g><g id="SvgjsG1283"><path id="SvgjsPath1284" d="M773.4228287014489 167.50846871995188L773.4228287014489 207.81673690310754L773.6684125985752 207.81673690310754L773.6684125985752 248.12500508626323" stroke="#323232" stroke-width="2" fill="none" marker-end="url(#SvgjsMarker1285)"></path><rect id="SvgjsRect1287" width="64" height="16" x="741.5456206500121" y="199.81673690310754" fill="#ffffff"></rect><text id="SvgjsText1288" font-family="微软雅黑" text-anchor="middle" font-size="13px" width="64" fill="#323232" font-weight="400" align="top" anchor="middle" family="微软雅黑" size="13px" weight="400" font-style="" y="197.86673690310755" transform="rotate(0)"><tspan id="SvgjsTspan1289" dy="16" x="773.5456206500121"><tspan id="SvgjsTspan1290" style="text-decoration:;">删除节点</tspan></tspan></text></g><g id="SvgjsG1291"><path id="SvgjsPath1292" d="M619.8323636921966 317.0942171840503L619.8323636921966 369.3164394062724L931.1286599884924 369.3164394062724L931.1286599884924 317.0671586770853" stroke="#323232" stroke-width="2" fill="none" marker-end="url(#SvgjsMarker1293)"></path><rect id="SvgjsRect1295" width="33" height="16" x="758.994041093827" y="361.3164394062724" fill="#ffffff"></rect><text id="SvgjsText1296" font-family="微软雅黑" text-anchor="middle" font-size="13px" width="33" fill="#323232" font-weight="400" align="top" anchor="middle" family="微软雅黑" size="13px" weight="400" font-style="" y="359.36643940627243" transform="rotate(0)"><tspan id="SvgjsTspan1297" dy="16" x="775.494041093827"><tspan id="SvgjsTspan1298" style="text-decoration:;">next</tspan></tspan></text></g><g id="SvgjsG1299" transform="translate(44.52134321550287,267.9062084046246)"><path id="SvgjsPath1300" d="M 0 0L 101 0L 101 44.333335876464844L 0 44.333335876464844Z" stroke="#323232" stroke-width="2" fill-opacity="1" fill="#ffffff"></path><g id="SvgjsG1301"><text id="SvgjsText1302" font-family="微软雅黑" text-anchor="middle" font-size="13px" width="9" fill="#323232" font-weight="400" align="middle" anchor="middle" family="微软雅黑" size="13px" weight="400" font-style="" y="12.216667938232423" transform="rotate(0)"><tspan id="SvgjsTspan1303" dy="16" x="50.5"><tspan id="SvgjsTspan1304" style="text-decoration:;">2</tspan></tspan></text></g></g><g id="SvgjsG1305"><path id="SvgjsPath1306" d="M145.52134321550275 290.07287634285706L171.00831166543432 290.07287634285706L171.00831166543432 290.12774602735635L196.4952801153659 290.12774602735635" stroke="#323232" stroke-width="2" fill="none" marker-end="url(#SvgjsMarker1307)"></path><rect id="SvgjsRect1309" width="33" height="16" x="154.50831166543432" y="282.1003111851067" fill="#ffffff"></rect><text id="SvgjsText1310" font-family="微软雅黑" text-anchor="middle" font-size="13px" width="33" fill="#323232" font-weight="400" align="top" anchor="middle" family="微软雅黑" size="13px" weight="400" font-style="" y="280.1503111851067" transform="rotate(0)"><tspan id="SvgjsTspan1311" dy="16" x="171.00831166543432"><tspan id="SvgjsTspan1312" style="text-decoration:;">next</tspan></tspan></text></g><g id="SvgjsG1313" transform="translate(196.4952801153659,267.9610780891239)"><path id="SvgjsPath1314" d="M 0 0L 101 0L 101 44.333335876464844L 0 44.333335876464844Z" stroke="#323232" stroke-width="2" fill-opacity="1" fill="#ffffff"></path><g id="SvgjsG1315"><text id="SvgjsText1316" font-family="微软雅黑" text-anchor="middle" font-size="13px" width="28" fill="#323232" font-weight="400" align="middle" anchor="middle" family="微软雅黑" size="13px" weight="400" font-style="" y="12.216667938232423" transform="rotate(0)"><tspan id="SvgjsTspan1317" dy="16" x="50.5"><tspan id="SvgjsTspan1318" style="text-decoration:;">null</tspan></tspan></text></g></g><g id="SvgjsG1319" transform="translate(78.25762579437806,195.01388888888886)"><path id="SvgjsPath1320" d="M 11.055 0L 22.445 0L 22.445 41.25L 33.5 41.25L 16.75 58L 0 41.25L 11.055 41.25L 11.055 0Z" stroke="#323232" stroke-width="2" fill-opacity="1" fill="#ffffff"></path><g id="SvgjsG1321"><text id="SvgjsText1322" font-family="微软雅黑" text-anchor="middle" font-size="13px" width="32" fill="#323232" font-weight="400" align="middle" anchor="middle" family="微软雅黑" size="13px" weight="400" font-style="" y="16.150000000000002" transform="rotate(0)"><tspan id="SvgjsTspan1323" dy="16" x="16.8"><tspan id="SvgjsTspan1324" style="text-decoration:;">节点</tspan></tspan></text></g></g><g id="SvgjsG1325"><path id="SvgjsPath1326" d="M233.6736034817166 167.0138888888888L233.6736034817166 205.21826407169237L233.74219058734073 205.21826407169237L233.74219058734073 243.422639254496" stroke="#323232" stroke-width="2" fill="none" marker-end="url(#SvgjsMarker1327)"></path><rect id="SvgjsRect1329" width="64" height="16" x="201.70789703452868" y="197.21826407169237" fill="#ffffff"></rect><text id="SvgjsText1330" font-family="微软雅黑" text-anchor="middle" font-size="13px" width="64" fill="#323232" font-weight="400" align="top" anchor="middle" family="微软雅黑" size="13px" weight="400" font-style="" y="195.26826407169239" transform="rotate(0)"><tspan id="SvgjsTspan1331" dy="16" x="233.70789703452868"><tspan id="SvgjsTspan1332" style="text-decoration:;">修改节点</tspan></tspan></text></g></svg>