<svg id="SvgjsSvg1267" width="827" height="276" xmlns="http://www.w3.org/2000/svg" version="1.1" xmlns:xlink="http://www.w3.org/1999/xlink" xmlns:svgjs="http://svgjs.com/svgjs"><defs id="SvgjsDefs1268"><marker id="SvgjsMarker1306" markerWidth="16" markerHeight="12" refX="16" refY="6" viewBox="0 0 16 12" orient="auto" markerUnits="userSpaceOnUse"><path id="SvgjsPath1307" d="M0,2 L14,6 L0,11 L0,2" fill="#323232" stroke="#323232" stroke-width="2"></path></marker><marker id="SvgjsMarker1392" markerWidth="16" markerHeight="12" refX="16" refY="6" viewBox="0 0 16 12" orient="auto" markerUnits="userSpaceOnUse"><path id="SvgjsPath1393" d="M0,2 L14,6 L0,11 L0,2" fill="#323232" stroke="#323232" stroke-width="2"></path></marker></defs><rect id="SvgjsRect1269" width="827" height="276" fill="#cce5ff"></rect><g id="SvgjsG1270" transform="translate(25,25)"><path id="SvgjsPath1271" d="M 0 4Q 0 0 4 0L 204 0Q 208 0 208 4L 208 222Q 208 226 204 226L 4 226Q 0 226 0 222Z" stroke="#323232" stroke-width="2" fill-opacity="1" fill="#ffffff"></path><g id="SvgjsG1272"><text id="SvgjsText1273" font-family="微软雅黑" text-anchor="middle" font-size="13px" width="13" fill="#323232" font-weight="400" align="middle" anchor="middle" family="微软雅黑" size="13px" weight="400" font-style="" y="7.192857142857142" transform="rotate(0)"><tspan id="SvgjsTspan1274" dy="16" x="104"><tspan id="SvgjsTspan1275" style="text-decoration:;">栈</tspan></tspan></text></g></g><g id="SvgjsG1276" transform="translate(109,81)"><path id="SvgjsPath1277" d="M 0 0L 102 0L 102 29L 0 29Z" stroke="#323232" stroke-width="2" fill-opacity="1" fill="#ffffff"></path><g id="SvgjsG1278"><text id="SvgjsText1279" font-family="微软雅黑" text-anchor="middle" font-size="13px" width="0" fill="#323232" font-weight="400" align="middle" anchor="middle" family="微软雅黑" size="13px" weight="400" font-style="" y="4.55" transform="rotate(0)"></text></g></g><g id="SvgjsG1280" transform="translate(109,128)"><path id="SvgjsPath1281" d="M 0 0L 102 0L 102 29L 0 29Z" stroke="#323232" stroke-width="2" fill-opacity="1" fill="#ffffff"></path><g id="SvgjsG1282"><text id="SvgjsText1283" font-family="微软雅黑" text-anchor="middle" font-size="13px" width="0" fill="#323232" font-weight="400" align="middle" anchor="middle" family="微软雅黑" size="13px" weight="400" font-style="" y="4.55" transform="rotate(0)"></text></g></g><g id="SvgjsG1284" transform="translate(30,167.5)"><path id="SvgjsPath1285" d="M 0 6.6000000000000005L 41 6.6000000000000005L 41 0L 51 10L 41 20L 41 13.4L 0 13.4L 0 6.6000000000000005Z" stroke="#323232" stroke-width="2" fill-opacity="1" fill="#ffffff"></path><g id="SvgjsG1286"><text id="SvgjsText1287" font-family="微软雅黑" text-anchor="middle" font-size="13px" width="26" fill="#323232" font-weight="400" align="middle" anchor="middle" family="微软雅黑" size="13px" weight="400" font-style="" y="-7.949999999999999" transform="rotate(0)"><tspan id="SvgjsTspan1288" dy="16" x="25.5"><tspan id="SvgjsTspan1289" style="text-decoration:;">栈顶</tspan></tspan><tspan id="SvgjsTspan1290" dy="16" x="25.5"><tspan id="SvgjsTspan1291" style="text-decoration:;"> </tspan></tspan></text></g></g><g id="SvgjsG1292" transform="translate(30,195)"><path id="SvgjsPath1293" d="M 0 6.6000000000000005L 41 6.6000000000000005L 41 0L 51 10L 41 20L 41 13.4L 0 13.4L 0 6.6000000000000005Z" stroke="#323232" stroke-width="2" fill-opacity="1" fill="#ffffff"></path><g id="SvgjsG1294"><text id="SvgjsText1295" font-family="微软雅黑" text-anchor="middle" font-size="13px" width="26" fill="#323232" font-weight="400" align="middle" anchor="middle" family="微软雅黑" size="13px" weight="400" font-style="" y="-7.949999999999999" transform="rotate(0)"><tspan id="SvgjsTspan1296" dy="16" x="25.5"><tspan id="SvgjsTspan1297" style="text-decoration:;">栈底</tspan></tspan><tspan id="SvgjsTspan1298" dy="16" x="25.5"><tspan id="SvgjsTspan1299" style="text-decoration:;"> </tspan></tspan></text></g></g><g id="SvgjsG1300" transform="translate(109,174.5)"><path id="SvgjsPath1301" d="M 0 0L 102 0L 102 29L 0 29Z" stroke="#323232" stroke-width="2" fill-opacity="1" fill="#ffffff"></path><g id="SvgjsG1302"><text id="SvgjsText1303" font-family="微软雅黑" text-anchor="middle" font-size="13px" width="0" fill="#323232" font-weight="400" align="middle" anchor="middle" family="微软雅黑" size="13px" weight="400" font-style="" y="4.55" transform="rotate(0)"></text></g></g><g id="SvgjsG1304"><path id="SvgjsPath1305" d="M233 138L271 138L271 138L309 138" stroke="#323232" stroke-width="2" fill="none" marker-end="url(#SvgjsMarker1306)"></path><rect id="SvgjsRect1308" width="52" height="16" x="245" y="130" fill="#ffffff"></rect><text id="SvgjsText1309" font-family="微软雅黑" text-anchor="middle" font-size="13px" width="52" fill="#323232" font-weight="400" align="top" anchor="middle" family="微软雅黑" size="13px" weight="400" font-style="" y="128.05" transform="rotate(0)"><tspan id="SvgjsTspan1310" dy="16" x="271"><tspan id="SvgjsTspan1311" style="text-decoration:;">增加元素</tspan></tspan></text></g><g id="SvgjsG1312" transform="translate(309,25)"><path id="SvgjsPath1313" d="M 0 4Q 0 0 4 0L 204 0Q 208 0 208 4L 208 222Q 208 226 204 226L 4 226Q 0 226 0 222Z" stroke="#323232" stroke-width="2" fill-opacity="1" fill="#ffffff"></path><g id="SvgjsG1314"><text id="SvgjsText1315" font-family="微软雅黑" text-anchor="middle" font-size="13px" width="13" fill="#323232" font-weight="400" align="middle" anchor="middle" family="微软雅黑" size="13px" weight="400" font-style="" y="7.192857142857142" transform="rotate(0)"><tspan id="SvgjsTspan1316" dy="16" x="104"><tspan id="SvgjsTspan1317" style="text-decoration:;">栈</tspan></tspan></text></g></g><g id="SvgjsG1318" transform="translate(393,81)"><path id="SvgjsPath1319" d="M 0 0L 102 0L 102 29L 0 29Z" stroke="#323232" stroke-width="2" fill-opacity="1" fill="#ffffff"></path><g id="SvgjsG1320"><text id="SvgjsText1321" font-family="微软雅黑" text-anchor="middle" font-size="13px" width="8" fill="#323232" font-weight="400" align="middle" anchor="middle" family="微软雅黑" size="13px" weight="400" font-style="" y="4.55" transform="rotate(0)"><tspan id="SvgjsTspan1322" dy="16" x="51"><tspan id="SvgjsTspan1323" style="text-decoration:;">3</tspan></tspan></text></g></g><g id="SvgjsG1324" transform="translate(393,128)"><path id="SvgjsPath1325" d="M 0 0L 102 0L 102 29L 0 29Z" stroke="#323232" stroke-width="2" fill-opacity="1" fill="#ffffff"></path><g id="SvgjsG1326"><text id="SvgjsText1327" font-family="微软雅黑" text-anchor="middle" font-size="13px" width="8" fill="#323232" font-weight="400" align="middle" anchor="middle" family="微软雅黑" size="13px" weight="400" font-style="" y="4.55" transform="rotate(0)"><tspan id="SvgjsTspan1328" dy="16" x="51"><tspan id="SvgjsTspan1329" style="text-decoration:;">2</tspan></tspan></text></g></g><g id="SvgjsG1330" transform="translate(314,64.5)"><path id="SvgjsPath1331" d="M 0 6.6000000000000005L 41 6.6000000000000005L 41 0L 51 10L 41 20L 41 13.4L 0 13.4L 0 6.6000000000000005Z" stroke="#323232" stroke-width="2" fill-opacity="1" fill="#ffffff"></path><g id="SvgjsG1332"><text id="SvgjsText1333" font-family="微软雅黑" text-anchor="middle" font-size="13px" width="26" fill="#323232" font-weight="400" align="middle" anchor="middle" family="微软雅黑" size="13px" weight="400" font-style="" y="-7.949999999999999" transform="rotate(0)"><tspan id="SvgjsTspan1334" dy="16" x="25.5"><tspan id="SvgjsTspan1335" style="text-decoration:;">栈顶</tspan></tspan><tspan id="SvgjsTspan1336" dy="16" x="25.5"><tspan id="SvgjsTspan1337" style="text-decoration:;"> </tspan></tspan></text></g></g><g id="SvgjsG1338" transform="translate(314,195)"><path id="SvgjsPath1339" d="M 0 6.6000000000000005L 41 6.6000000000000005L 41 0L 51 10L 41 20L 41 13.4L 0 13.4L 0 6.6000000000000005Z" stroke="#323232" stroke-width="2" fill-opacity="1" fill="#ffffff"></path><g id="SvgjsG1340"><text id="SvgjsText1341" font-family="微软雅黑" text-anchor="middle" font-size="13px" width="26" fill="#323232" font-weight="400" align="middle" anchor="middle" family="微软雅黑" size="13px" weight="400" font-style="" y="-7.949999999999999" transform="rotate(0)"><tspan id="SvgjsTspan1342" dy="16" x="25.5"><tspan id="SvgjsTspan1343" style="text-decoration:;">栈底</tspan></tspan><tspan id="SvgjsTspan1344" dy="16" x="25.5"><tspan id="SvgjsTspan1345" style="text-decoration:;"> </tspan></tspan></text></g></g><g id="SvgjsG1346" transform="translate(393,174.5)"><path id="SvgjsPath1347" d="M 0 0L 102 0L 102 29L 0 29Z" stroke="#323232" stroke-width="2" fill-opacity="1" fill="#ffffff"></path><g id="SvgjsG1348"><text id="SvgjsText1349" font-family="微软雅黑" text-anchor="middle" font-size="13px" width="8" fill="#323232" font-weight="400" align="middle" anchor="middle" family="微软雅黑" size="13px" weight="400" font-style="" y="4.55" transform="rotate(0)"><tspan id="SvgjsTspan1350" dy="16" x="51"><tspan id="SvgjsTspan1351" style="text-decoration:;">1</tspan></tspan></text></g></g><g id="SvgjsG1352" transform="translate(594,25)"><path id="SvgjsPath1353" d="M 0 4Q 0 0 4 0L 204 0Q 208 0 208 4L 208 222Q 208 226 204 226L 4 226Q 0 226 0 222Z" stroke="#323232" stroke-width="2" fill-opacity="1" fill="#ffffff"></path><g id="SvgjsG1354"><text id="SvgjsText1355" font-family="微软雅黑" text-anchor="middle" font-size="13px" width="13" fill="#323232" font-weight="400" align="middle" anchor="middle" family="微软雅黑" size="13px" weight="400" font-style="" y="7.192857142857142" transform="rotate(0)"><tspan id="SvgjsTspan1356" dy="16" x="104"><tspan id="SvgjsTspan1357" style="text-decoration:;">栈</tspan></tspan></text></g></g><g id="SvgjsG1358" transform="translate(678,81)"><path id="SvgjsPath1359" d="M 0 0L 102 0L 102 29L 0 29Z" stroke="#323232" stroke-width="2" fill-opacity="1" fill="#ffffff"></path><g id="SvgjsG1360"><text id="SvgjsText1361" font-family="微软雅黑" text-anchor="middle" font-size="13px" width="0" fill="#323232" font-weight="400" align="middle" anchor="middle" family="微软雅黑" size="13px" weight="400" font-style="" y="4.55" transform="rotate(0)"></text></g></g><g id="SvgjsG1362" transform="translate(678,128)"><path id="SvgjsPath1363" d="M 0 0L 102 0L 102 29L 0 29Z" stroke="#323232" stroke-width="2" fill-opacity="1" fill="#ffffff"></path><g id="SvgjsG1364"><text id="SvgjsText1365" font-family="微软雅黑" text-anchor="middle" font-size="13px" width="8" fill="#323232" font-weight="400" align="middle" anchor="middle" family="微软雅黑" size="13px" weight="400" font-style="" y="4.55" transform="rotate(0)"><tspan id="SvgjsTspan1366" dy="16" x="51"><tspan id="SvgjsTspan1367" style="text-decoration:;">2</tspan></tspan></text></g></g><g id="SvgjsG1368" transform="translate(599,112.5)"><path id="SvgjsPath1369" d="M 0 6.6000000000000005L 41 6.6000000000000005L 41 0L 51 10L 41 20L 41 13.4L 0 13.4L 0 6.6000000000000005Z" stroke="#323232" stroke-width="2" fill-opacity="1" fill="#ffffff"></path><g id="SvgjsG1370"><text id="SvgjsText1371" font-family="微软雅黑" text-anchor="middle" font-size="13px" width="26" fill="#323232" font-weight="400" align="middle" anchor="middle" family="微软雅黑" size="13px" weight="400" font-style="" y="-7.949999999999999" transform="rotate(0)"><tspan id="SvgjsTspan1372" dy="16" x="25.5"><tspan id="SvgjsTspan1373" style="text-decoration:;">栈顶</tspan></tspan><tspan id="SvgjsTspan1374" dy="16" x="25.5"><tspan id="SvgjsTspan1375" style="text-decoration:;"> </tspan></tspan></text></g></g><g id="SvgjsG1376" transform="translate(599,195)"><path id="SvgjsPath1377" d="M 0 6.6000000000000005L 41 6.6000000000000005L 41 0L 51 10L 41 20L 41 13.4L 0 13.4L 0 6.6000000000000005Z" stroke="#323232" stroke-width="2" fill-opacity="1" fill="#ffffff"></path><g id="SvgjsG1378"><text id="SvgjsText1379" font-family="微软雅黑" text-anchor="middle" font-size="13px" width="26" fill="#323232" font-weight="400" align="middle" anchor="middle" family="微软雅黑" size="13px" weight="400" font-style="" y="-7.949999999999999" transform="rotate(0)"><tspan id="SvgjsTspan1380" dy="16" x="25.5"><tspan id="SvgjsTspan1381" style="text-decoration:;">栈底</tspan></tspan><tspan id="SvgjsTspan1382" dy="16" x="25.5"><tspan id="SvgjsTspan1383" style="text-decoration:;"> </tspan></tspan></text></g></g><g id="SvgjsG1384" transform="translate(678,174.5)"><path id="SvgjsPath1385" d="M 0 0L 102 0L 102 29L 0 29Z" stroke="#323232" stroke-width="2" fill-opacity="1" fill="#ffffff"></path><g id="SvgjsG1386"><text id="SvgjsText1387" font-family="微软雅黑" text-anchor="middle" font-size="13px" width="8" fill="#323232" font-weight="400" align="middle" anchor="middle" family="微软雅黑" size="13px" weight="400" font-style="" y="4.55" transform="rotate(0)"><tspan id="SvgjsTspan1388" dy="16" x="51"><tspan id="SvgjsTspan1389" style="text-decoration:;">1</tspan></tspan></text></g></g><g id="SvgjsG1390"><path id="SvgjsPath1391" d="M517 138L555.5 138L555.5 138L594 138" stroke="#323232" stroke-width="2" fill="none" marker-end="url(#SvgjsMarker1392)"></path><rect id="SvgjsRect1394" width="52" height="16" x="529.5" y="130" fill="#ffffff"></rect><text id="SvgjsText1395" font-family="微软雅黑" text-anchor="middle" font-size="13px" width="52" fill="#323232" font-weight="400" align="top" anchor="middle" family="微软雅黑" size="13px" weight="400" font-style="" y="128.05" transform="rotate(0)"><tspan id="SvgjsTspan1396" dy="16" x="555.5"><tspan id="SvgjsTspan1397" style="text-decoration:;">减少元素</tspan></tspan></text></g></svg>