<svg id="SvgjsSvg1065" width="497.66668701171875" height="301.66668701171875" xmlns="http://www.w3.org/2000/svg" version="1.1" xmlns:xlink="http://www.w3.org/1999/xlink" xmlns:svgjs="http://svgjs.com/svgjs"><defs id="SvgjsDefs1066"></defs><rect id="SvgjsRect1067" width="497.66668701171875" height="301.66668701171875" fill="#cce5ff"></rect><g id="SvgjsG1068" transform="translate(55.66667175292969,64.66667175292969)"><path id="SvgjsPath1069" d="M 0 4Q 0 0 4 0L 413.3333282470703 0Q 417.3333282470703 0 417.3333282470703 4L 417.3333282470703 89.33332824707031Q 417.3333282470703 93.33332824707031 413.3333282470703 93.33332824707031L 4 93.33332824707031Q 0 93.33332824707031 0 89.33332824707031Z" stroke="#323232" stroke-width="2" fill-opacity="1" fill="#ffffff"></path><g id="SvgjsG1070"><text id="SvgjsText1071" font-family="微软雅黑" text-anchor="middle" font-size="13px" width="32" fill="#323232" font-weight="400" align="middle" anchor="middle" family="微软雅黑" size="13px" weight="400" font-style="" y="-2.2833336966378353" transform="rotate(0)"><tspan id="SvgjsTspan1072" dy="16" x="209"><tspan id="SvgjsTspan1073" style="text-decoration:;">数组</tspan></tspan></text></g></g><g id="SvgjsG1074" transform="translate(157,89.16666793823242)"><path id="SvgjsPath1075" d="M 0 0L 101 0L 101 44.333335876464844L 0 44.333335876464844Z" stroke="#323232" stroke-width="2" fill-opacity="1" fill="#ffffff"></path><g id="SvgjsG1076"><text id="SvgjsText1077" font-family="微软雅黑" text-anchor="middle" font-size="13px" width="0" fill="#323232" font-weight="400" align="middle" anchor="middle" family="微软雅黑" size="13px" weight="400" font-style="" y="12.216667938232423" transform="rotate(0)"></text></g></g><g id="SvgjsG1078" transform="translate(258,89.16666793823242)"><path id="SvgjsPath1079" d="M 0 0L 101 0L 101 44.333335876464844L 0 44.333335876464844Z" stroke="#323232" stroke-width="2" fill-opacity="1" fill="#ffffff"></path><g id="SvgjsG1080"><text id="SvgjsText1081" font-family="微软雅黑" text-anchor="middle" font-size="13px" width="0" fill="#323232" font-weight="400" align="middle" anchor="middle" family="微软雅黑" size="13px" weight="400" font-style="" y="12.216667938232423" transform="rotate(0)"></text></g></g><g id="SvgjsG1082" transform="translate(359,89.16666793823242)"><path id="SvgjsPath1083" d="M 0 0L 101 0L 101 44.333335876464844L 0 44.333335876464844Z" stroke="#323232" stroke-width="2" fill-opacity="1" fill="#ffffff"></path><g id="SvgjsG1084"><text id="SvgjsText1085" font-family="微软雅黑" text-anchor="middle" font-size="13px" width="0" fill="#323232" font-weight="400" align="middle" anchor="middle" family="微软雅黑" size="13px" weight="400" font-style="" y="12.216667938232423" transform="rotate(0)"></text></g></g><g id="SvgjsG1086" transform="translate(55.66667175292969,183.6666717529297)"><path id="SvgjsPath1087" d="M 0 4Q 0 0 4 0L 413.3333282470703 0Q 417.3333282470703 0 417.3333282470703 4L 417.3333282470703 89.33332824707031Q 417.3333282470703 93.33332824707031 413.3333282470703 93.33332824707031L 4 93.33332824707031Q 0 93.33332824707031 0 89.33332824707031Z" stroke="#323232" stroke-width="2" fill-opacity="1" fill="#ffffff"></path><g id="SvgjsG1088"><text id="SvgjsText1089" font-family="微软雅黑" text-anchor="middle" font-size="13px" width="32" fill="#323232" font-weight="400" align="middle" anchor="middle" family="微软雅黑" size="13px" weight="400" font-style="" y="-2.2833336966378353" transform="rotate(0)"><tspan id="SvgjsTspan1090" dy="16" x="209"><tspan id="SvgjsTspan1091" style="text-decoration:;">数组</tspan></tspan></text></g></g><g id="SvgjsG1092" transform="translate(157,208.16666793823242)"><path id="SvgjsPath1093" d="M 0 0L 101 0L 101 44.333335876464844L 0 44.333335876464844Z" stroke="#323232" stroke-width="2" fill-opacity="1" fill="#ffffff"></path><g id="SvgjsG1094"><text id="SvgjsText1095" font-family="微软雅黑" text-anchor="middle" font-size="13px" width="9" fill="#323232" font-weight="400" align="middle" anchor="middle" family="微软雅黑" size="13px" weight="400" font-style="" y="12.216667938232423" transform="rotate(0)"><tspan id="SvgjsTspan1096" dy="16" x="50.5"><tspan id="SvgjsTspan1097" style="text-decoration:;">1</tspan></tspan></text></g></g><g id="SvgjsG1098" transform="translate(258,208.16666793823242)"><path id="SvgjsPath1099" d="M 0 0L 101 0L 101 44.333335876464844L 0 44.333335876464844Z" stroke="#323232" stroke-width="2" fill-opacity="1" fill="#ffffff"></path><g id="SvgjsG1100"><text id="SvgjsText1101" font-family="微软雅黑" text-anchor="middle" font-size="13px" width="9" fill="#323232" font-weight="400" align="middle" anchor="middle" family="微软雅黑" size="13px" weight="400" font-style="" y="12.216667938232423" transform="rotate(0)"><tspan id="SvgjsTspan1102" dy="16" x="50.5"><tspan id="SvgjsTspan1103" style="text-decoration:;">2</tspan></tspan></text></g></g><g id="SvgjsG1104" transform="translate(359,208.16666793823242)"><path id="SvgjsPath1105" d="M 0 0L 101 0L 101 44.333335876464844L 0 44.333335876464844Z" stroke="#323232" stroke-width="2" fill-opacity="1" fill="#ffffff"></path><g id="SvgjsG1106"><text id="SvgjsText1107" font-family="微软雅黑" text-anchor="middle" font-size="13px" width="9" fill="#323232" font-weight="400" align="middle" anchor="middle" family="微软雅黑" size="13px" weight="400" font-style="" y="12.216667938232423" transform="rotate(0)"><tspan id="SvgjsTspan1108" dy="16" x="50.5"><tspan id="SvgjsTspan1109" style="text-decoration:;">3</tspan></tspan></text></g></g><g id="SvgjsG1110" transform="translate(25,89.16666793823242)"><path id="SvgjsPath1111" d="M 0 0L 160 0L 160 40L 0 40Z" stroke="none" fill="none"></path><g id="SvgjsG1112"><text id="SvgjsText1113" font-family="微软雅黑" text-anchor="middle" font-size="13px" width="64" fill="#323232" font-weight="400" align="middle" anchor="middle" family="微软雅黑" size="13px" weight="400" font-style="" y="2.05" transform="rotate(0)"><tspan id="SvgjsTspan1114" dy="16" x="80"><tspan id="SvgjsTspan1115" style="text-decoration:;">申请3个</tspan></tspan><tspan id="SvgjsTspan1116" dy="16" x="80"><tspan id="SvgjsTspan1117" style="text-decoration:;">连续空间</tspan></tspan></text></g></g><g id="SvgjsG1118" transform="translate(29,208.16666793823242)"><path id="SvgjsPath1119" d="M 0 0L 160 0L 160 40L 0 40Z" stroke="none" fill="none"></path><g id="SvgjsG1120"><text id="SvgjsText1121" font-family="微软雅黑" text-anchor="middle" font-size="13px" width="48" fill="#323232" font-weight="400" align="middle" anchor="middle" family="微软雅黑" size="13px" weight="400" font-style="" y="10.05" transform="rotate(0)"><tspan id="SvgjsTspan1122" dy="16" x="80"><tspan id="SvgjsTspan1123" style="text-decoration:;">初始化</tspan></tspan></text></g></g><g id="SvgjsG1124" transform="translate(193.75,25)"><path id="SvgjsPath1125" d="M 9.075000000000001 0L 18.425 0L 18.425 36.25L 27.5 36.25L 13.75 50L 0 36.25L 9.075000000000001 36.25L 9.075000000000001 0Z" stroke="#323232" stroke-width="2" fill-opacity="1" fill="#ffffff"></path><g id="SvgjsG1126"><text id="SvgjsText1127" font-family="微软雅黑" text-anchor="middle" font-size="13px" width="9" fill="#323232" font-weight="400" align="middle" anchor="middle" family="微软雅黑" size="13px" weight="400" font-style="" y="12.55" transform="rotate(0)"><tspan id="SvgjsTspan1128" dy="16" x="14"><tspan id="SvgjsTspan1129" style="text-decoration:;">0</tspan></tspan></text></g></g><g id="SvgjsG1130" transform="translate(294.75,25)"><path id="SvgjsPath1131" d="M 9.075000000000001 0L 18.425 0L 18.425 36.25L 27.5 36.25L 13.75 50L 0 36.25L 9.075000000000001 36.25L 9.075000000000001 0Z" stroke="#323232" stroke-width="2" fill-opacity="1" fill="#ffffff"></path><g id="SvgjsG1132"><text id="SvgjsText1133" font-family="微软雅黑" text-anchor="middle" font-size="13px" width="9" fill="#323232" font-weight="400" align="middle" anchor="middle" family="微软雅黑" size="13px" weight="400" font-style="" y="12.55" transform="rotate(0)"><tspan id="SvgjsTspan1134" dy="16" x="14"><tspan id="SvgjsTspan1135" style="text-decoration:;">1</tspan></tspan></text></g></g><g id="SvgjsG1136" transform="translate(395.75,25)"><path id="SvgjsPath1137" d="M 9.075000000000001 0L 18.425 0L 18.425 36.25L 27.5 36.25L 13.75 50L 0 36.25L 9.075000000000001 36.25L 9.075000000000001 0Z" stroke="#323232" stroke-width="2" fill-opacity="1" fill="#ffffff"></path><g id="SvgjsG1138"><text id="SvgjsText1139" font-family="微软雅黑" text-anchor="middle" font-size="13px" width="9" fill="#323232" font-weight="400" align="middle" anchor="middle" family="微软雅黑" size="13px" weight="400" font-style="" y="12.55" transform="rotate(0)"><tspan id="SvgjsTspan1140" dy="16" x="14"><tspan id="SvgjsTspan1141" style="text-decoration:;">2</tspan></tspan></text></g></g></svg>