<svg id="SvgjsSvg1006" width="555" height="318.65625" xmlns="http://www.w3.org/2000/svg" version="1.1" xmlns:xlink="http://www.w3.org/1999/xlink" xmlns:svgjs="http://svgjs.com/svgjs"><defs id="SvgjsDefs1007"><marker id="SvgjsMarker1087" markerWidth="16" markerHeight="12" refX="0" refY="6" viewBox="0 0 16 12" orient="auto" markerUnits="userSpaceOnUse"><path id="SvgjsPath1088" d="M15,1.5 L2,6 L15,10.5" fill="#323232" stroke="#323232" stroke-width="2"></path></marker><marker id="SvgjsMarker1089" markerWidth="16" markerHeight="12" refX="16" refY="6" viewBox="0 0 16 12" orient="auto" markerUnits="userSpaceOnUse"><path id="SvgjsPath1090" d="M0,2 L14,6 L0,11 L0,2" fill="#323232" stroke="#323232" stroke-width="2"></path></marker><marker id="SvgjsMarker1097" markerWidth="16" markerHeight="12" refX="0" refY="6" viewBox="0 0 16 12" orient="auto" markerUnits="userSpaceOnUse"><path id="SvgjsPath1098" d="M15,1.5 L2,6 L15,10.5" fill="#323232" stroke="#323232" stroke-width="2"></path></marker><marker id="SvgjsMarker1099" markerWidth="16" markerHeight="12" refX="16" refY="6" viewBox="0 0 16 12" orient="auto" markerUnits="userSpaceOnUse"><path id="SvgjsPath1100" d="M0,2 L14,6 L0,11 L0,2" fill="#323232" stroke="#323232" stroke-width="2"></path></marker></defs><rect id="SvgjsRect1008" width="555" height="318.65625" fill="#cce5ff"></rect><g id="SvgjsG1009" transform="translate(25.001736111111057,104.66323349668812)"><path id="SvgjsPath1010" d="M 0 0L 101 0L 101 44.333335876464844L 0 44.333335876464844Z" stroke="#323232" stroke-width="2" fill-opacity="1" fill="#ffffff"></path><g id="SvgjsG1011"><text id="SvgjsText1012" font-family="微软雅黑" text-anchor="middle" font-size="13px" width="8" fill="#323232" font-weight="400" align="middle" anchor="middle" family="微软雅黑" size="13px" weight="400" font-style="" y="12.216667938232423" transform="rotate(0)"><tspan id="SvgjsTspan1013" dy="16" x="50.5"><tspan id="SvgjsTspan1014" style="text-decoration:;">5</tspan></tspan></text></g></g><g id="SvgjsG1015" transform="translate(126.00173611111111,104.66323349668812)"><path id="SvgjsPath1016" d="M 0 0L 101 0L 101 44.333335876464844L 0 44.333335876464844Z" stroke="#323232" stroke-width="2" fill-opacity="1" fill="#ffffff"></path><g id="SvgjsG1017"><text id="SvgjsText1018" font-family="微软雅黑" text-anchor="middle" font-size="13px" width="8" fill="#323232" font-weight="400" align="middle" anchor="middle" family="微软雅黑" size="13px" weight="400" font-style="" y="12.216667938232423" transform="rotate(0)"><tspan id="SvgjsTspan1019" dy="16" x="50.5"><tspan id="SvgjsTspan1020" style="text-decoration:;">2</tspan></tspan></text></g></g><g id="SvgjsG1021" transform="translate(228.0017361111111,104.66323349668812)"><path id="SvgjsPath1022" d="M 0 0L 101 0L 101 44.333335876464844L 0 44.333335876464844Z" stroke="#323232" stroke-width="2" fill-opacity="1" fill="#ffffff"></path><g id="SvgjsG1023"><text id="SvgjsText1024" font-family="微软雅黑" text-anchor="middle" font-size="13px" width="8" fill="#323232" font-weight="400" align="middle" anchor="middle" family="微软雅黑" size="13px" weight="400" font-style="" y="12.216667938232423" transform="rotate(0)"><tspan id="SvgjsTspan1025" dy="16" x="50.5"><tspan id="SvgjsTspan1026" style="text-decoration:;">3</tspan></tspan></text></g></g><g id="SvgjsG1027" transform="translate(328.0017361111111,104.66323349668812)"><path id="SvgjsPath1028" d="M 0 0L 101 0L 101 44.333335876464844L 0 44.333335876464844Z" stroke="#323232" stroke-width="2" fill-opacity="1" fill="#ffffff"></path><g id="SvgjsG1029"><text id="SvgjsText1030" font-family="微软雅黑" text-anchor="middle" font-size="13px" width="8" fill="#323232" font-weight="400" align="middle" anchor="middle" family="微软雅黑" size="13px" weight="400" font-style="" y="12.216667938232423" transform="rotate(0)"><tspan id="SvgjsTspan1031" dy="16" x="50.5"><tspan id="SvgjsTspan1032" style="text-decoration:;">4</tspan></tspan></text></g></g><g id="SvgjsG1033" transform="translate(429.0017361111111,104.66323349668812)"><path id="SvgjsPath1034" d="M 0 0L 101 0L 101 44.333335876464844L 0 44.333335876464844Z" stroke="#323232" stroke-width="2" fill-opacity="1" fill="#ffffff"></path><g id="SvgjsG1035"><text id="SvgjsText1036" font-family="微软雅黑" text-anchor="middle" font-size="13px" width="8" fill="#323232" font-weight="400" align="middle" anchor="middle" family="微软雅黑" size="13px" weight="400" font-style="" y="12.216667938232423" transform="rotate(0)"><tspan id="SvgjsTspan1037" dy="16" x="50.5"><tspan id="SvgjsTspan1038" style="text-decoration:;">1</tspan></tspan></text></g></g><g id="SvgjsG1039" transform="translate(61.00173611111106,49)"><path id="SvgjsPath1040" d="M 9.57 0L 19.43 0L 19.43 28.5L 29 28.5L 14.5 43L 0 28.5L 9.57 28.5L 9.57 0Z" stroke="#323232" stroke-width="2" fill-opacity="1" fill="#ffffff"></path><g id="SvgjsG1041"><text id="SvgjsText1042" font-family="微软雅黑" text-anchor="middle" font-size="13px" width="0" fill="#323232" font-weight="400" align="middle" anchor="middle" family="微软雅黑" size="13px" weight="400" font-style="" y="9.400000000000002" transform="rotate(0)"></text></g></g><g id="SvgjsG1043" transform="translate(162.00173611111111,49)"><path id="SvgjsPath1044" d="M 9.57 0L 19.43 0L 19.43 28.5L 29 28.5L 14.5 43L 0 28.5L 9.57 28.5L 9.57 0Z" stroke="#323232" stroke-width="2" fill-opacity="1" fill="#ffffff"></path><g id="SvgjsG1045"><text id="SvgjsText1046" font-family="微软雅黑" text-anchor="middle" font-size="13px" width="0" fill="#323232" font-weight="400" align="middle" anchor="middle" family="微软雅黑" size="13px" weight="400" font-style="" y="9.400000000000002" transform="rotate(0)"></text></g></g><g id="SvgjsG1047" transform="translate(25.001736111111086,249.66323349668812)"><path id="SvgjsPath1048" d="M 0 0L 101 0L 101 44.333335876464844L 0 44.333335876464844Z" stroke="#323232" stroke-width="2" fill-opacity="1" fill="#ffffff"></path><g id="SvgjsG1049"><text id="SvgjsText1050" font-family="微软雅黑" text-anchor="middle" font-size="13px" width="8" fill="#323232" font-weight="400" align="middle" anchor="middle" family="微软雅黑" size="13px" weight="400" font-style="" y="12.216667938232423" transform="rotate(0)"><tspan id="SvgjsTspan1051" dy="16" x="50.5"><tspan id="SvgjsTspan1052" style="text-decoration:;">2</tspan></tspan></text></g></g><g id="SvgjsG1053" transform="translate(126.00173611111114,249.66323349668812)"><path id="SvgjsPath1054" d="M 0 0L 101 0L 101 44.333335876464844L 0 44.333335876464844Z" stroke="#323232" stroke-width="2" fill-opacity="1" fill="#ffffff"></path><g id="SvgjsG1055"><text id="SvgjsText1056" font-family="微软雅黑" text-anchor="middle" font-size="13px" width="8" fill="#323232" font-weight="400" align="middle" anchor="middle" family="微软雅黑" size="13px" weight="400" font-style="" y="12.216667938232423" transform="rotate(0)"><tspan id="SvgjsTspan1057" dy="16" x="50.5"><tspan id="SvgjsTspan1058" style="text-decoration:;">5</tspan></tspan></text></g></g><g id="SvgjsG1059" transform="translate(328.0017361111111,249.66323349668812)"><path id="SvgjsPath1060" d="M 0 0L 101 0L 101 44.333335876464844L 0 44.333335876464844Z" stroke="#323232" stroke-width="2" fill-opacity="1" fill="#ffffff"></path><g id="SvgjsG1061"><text id="SvgjsText1062" font-family="微软雅黑" text-anchor="middle" font-size="13px" width="8" fill="#323232" font-weight="400" align="middle" anchor="middle" family="微软雅黑" size="13px" weight="400" font-style="" y="12.216667938232423" transform="rotate(0)"><tspan id="SvgjsTspan1063" dy="16" x="50.5"><tspan id="SvgjsTspan1064" style="text-decoration:;">4</tspan></tspan></text></g></g><g id="SvgjsG1065" transform="translate(429.0017361111111,249.66323349668812)"><path id="SvgjsPath1066" d="M 0 0L 101 0L 101 44.333335876464844L 0 44.333335876464844Z" stroke="#323232" stroke-width="2" fill-opacity="1" fill="#ffffff"></path><g id="SvgjsG1067"><text id="SvgjsText1068" font-family="微软雅黑" text-anchor="middle" font-size="13px" width="8" fill="#323232" font-weight="400" align="middle" anchor="middle" family="微软雅黑" size="13px" weight="400" font-style="" y="12.216667938232423" transform="rotate(0)"><tspan id="SvgjsTspan1069" dy="16" x="50.5"><tspan id="SvgjsTspan1070" style="text-decoration:;">1</tspan></tspan></text></g></g><g id="SvgjsG1071" transform="translate(61.001736111111086,194)"><path id="SvgjsPath1072" d="M 9.57 0L 19.43 0L 19.43 28.5L 29 28.5L 14.5 43L 0 28.5L 9.57 28.5L 9.57 0Z" stroke="#323232" stroke-width="2" fill-opacity="1" fill="#ffffff"></path><g id="SvgjsG1073"><text id="SvgjsText1074" font-family="微软雅黑" text-anchor="middle" font-size="13px" width="0" fill="#323232" font-weight="400" align="middle" anchor="middle" family="微软雅黑" size="13px" weight="400" font-style="" y="9.400000000000002" transform="rotate(0)"></text></g></g><g id="SvgjsG1075" transform="translate(162.00173611111114,194)"><path id="SvgjsPath1076" d="M 9.57 0L 19.43 0L 19.43 28.5L 29 28.5L 14.5 43L 0 28.5L 9.57 28.5L 9.57 0Z" stroke="#323232" stroke-width="2" fill-opacity="1" fill="#ffffff"></path><g id="SvgjsG1077"><text id="SvgjsText1078" font-family="微软雅黑" text-anchor="middle" font-size="13px" width="0" fill="#323232" font-weight="400" align="middle" anchor="middle" family="微软雅黑" size="13px" weight="400" font-style="" y="9.400000000000002" transform="rotate(0)"></text></g></g><g id="SvgjsG1079" transform="translate(227.0017361111111,249.66323349668812)"><path id="SvgjsPath1080" d="M 0 0L 101 0L 101 44.333335876464844L 0 44.333335876464844Z" stroke="#323232" stroke-width="2" fill-opacity="1" fill="#ffffff"></path><g id="SvgjsG1081"><text id="SvgjsText1082" font-family="微软雅黑" text-anchor="middle" font-size="13px" width="8" fill="#323232" font-weight="400" align="middle" anchor="middle" family="微软雅黑" size="13px" weight="400" font-style="" y="12.216667938232423" transform="rotate(0)"><tspan id="SvgjsTspan1083" dy="16" x="50.5"><tspan id="SvgjsTspan1084" style="text-decoration:;">3</tspan></tspan></text></g></g><g id="SvgjsG1085"><path id="SvgjsPath1086" d="M75.50173611111106 49L75.50173611111106 25L176.50173611111111 25L176.50173611111111 49" stroke="#323232" stroke-width="2" fill="none" marker-start="url(#SvgjsMarker1087)" marker-end="url(#SvgjsMarker1089)"></path><rect id="SvgjsRect1091" width="26" height="16" x="113.00173611111109" y="17" fill="#ffffff"></rect><text id="SvgjsText1092" font-family="微软雅黑" text-anchor="middle" font-size="13px" width="26" fill="#323232" font-weight="400" align="top" anchor="middle" family="微软雅黑" size="13px" weight="400" font-style="" y="15.05" transform="rotate(0)"><tspan id="SvgjsTspan1093" dy="16" x="126.00173611111109"><tspan id="SvgjsTspan1094" style="text-decoration:;">比较</tspan></tspan></text></g><g id="SvgjsG1095"><path id="SvgjsPath1096" d="M75.50173611111109 194L75.50173611111109 171L176.50173611111114 171L176.50173611111114 194" stroke="#323232" stroke-width="2" fill="none" marker-start="url(#SvgjsMarker1097)" marker-end="url(#SvgjsMarker1099)"></path><rect id="SvgjsRect1101" width="26" height="16" x="113.00173611111111" y="163" fill="#ffffff"></rect><text id="SvgjsText1102" font-family="微软雅黑" text-anchor="middle" font-size="13px" width="26" fill="#323232" font-weight="400" align="top" anchor="middle" family="微软雅黑" size="13px" weight="400" font-style="" y="161.05" transform="rotate(0)"><tspan id="SvgjsTspan1103" dy="16" x="126.00173611111111"><tspan id="SvgjsTspan1104" style="text-decoration:;">交换</tspan></tspan></text></g><g id="SvgjsG1105" transform="translate(328.0017361111111,160)"><path id="SvgjsPath1106" d="M 0 0L 124 0L 140 16L 140 82.66323349668812L 0 82.66323349668812L 0 0Z" stroke="none" fill-opacity="1" fill="#ffffaa"></path><path id="SvgjsPath1107" d="M 124 0L 124 16L 140 16Z" stroke="none" fill-opacity="1" fill="#cdcdcd"></path><path id="SvgjsPath1108" d="M 0 0L 124 0L 140 16L 140 82.66323349668812L 0 82.66323349668812L 0 0Z" stroke="none" fill="none"></path><g id="SvgjsG1109"><text id="SvgjsText1110" font-family="微软雅黑" text-anchor="middle" font-size="13px" width="117" fill="#323232" font-weight="400" align="middle" anchor="middle" family="微软雅黑" size="13px" weight="400" font-style="" y="23.38161674834406" transform="rotate(0)"><tspan id="SvgjsTspan1111" dy="16" x="70"><tspan id="SvgjsTspan1112" style="text-decoration:;">升序排列，如果满足</tspan></tspan><tspan id="SvgjsTspan1113" dy="16" x="70"><tspan id="SvgjsTspan1114" style="text-decoration:;">条件交换位置</tspan></tspan></text></g></g></svg>