<svg id="SvgjsSvg1006" width="635" height="363" xmlns="http://www.w3.org/2000/svg" version="1.1" xmlns:xlink="http://www.w3.org/1999/xlink" xmlns:svgjs="http://svgjs.com/svgjs"><defs id="SvgjsDefs1007"><marker id="SvgjsMarker1115" markerWidth="16" markerHeight="12" refX="16" refY="6" viewBox="0 0 16 12" orient="auto" markerUnits="userSpaceOnUse"><path id="SvgjsPath1116" d="M0,2 L14,6 L0,11 L0,2" fill="#323232" stroke="#323232" stroke-width="2"></path></marker><marker id="SvgjsMarker1119" markerWidth="16" markerHeight="12" refX="16" refY="6" viewBox="0 0 16 12" orient="auto" markerUnits="userSpaceOnUse"><path id="SvgjsPath1120" d="M0,2 L14,6 L0,11 L0,2" fill="#323232" stroke="#323232" stroke-width="2"></path></marker><marker id="SvgjsMarker1123" markerWidth="16" markerHeight="12" refX="16" refY="6" viewBox="0 0 16 12" orient="auto" markerUnits="userSpaceOnUse"><path id="SvgjsPath1124" d="M0,2 L14,6 L0,11 L0,2" fill="#323232" stroke="#323232" stroke-width="2"></path></marker><marker id="SvgjsMarker1127" markerWidth="16" markerHeight="12" refX="16" refY="6" viewBox="0 0 16 12" orient="auto" markerUnits="userSpaceOnUse"><path id="SvgjsPath1128" d="M0,2 L14,6 L0,11 L0,2" fill="#323232" stroke="#323232" stroke-width="2"></path></marker><marker id="SvgjsMarker1165" markerWidth="16" markerHeight="12" refX="16" refY="6" viewBox="0 0 16 12" orient="auto" markerUnits="userSpaceOnUse"><path id="SvgjsPath1166" d="M0,2 L14,6 L0,11 L0,2" fill="#323232" stroke="#323232" stroke-width="2"></path></marker><marker id="SvgjsMarker1169" markerWidth="16" markerHeight="12" refX="16" refY="6" viewBox="0 0 16 12" orient="auto" markerUnits="userSpaceOnUse"><path id="SvgjsPath1170" d="M0,2 L14,6 L0,11 L0,2" fill="#323232" stroke="#323232" stroke-width="2"></path></marker><marker id="SvgjsMarker1173" markerWidth="16" markerHeight="12" refX="16" refY="6" viewBox="0 0 16 12" orient="auto" markerUnits="userSpaceOnUse"><path id="SvgjsPath1174" d="M0,2 L14,6 L0,11 L0,2" fill="#323232" stroke="#323232" stroke-width="2"></path></marker><marker id="SvgjsMarker1177" markerWidth="16" markerHeight="12" refX="16" refY="6" viewBox="0 0 16 12" orient="auto" markerUnits="userSpaceOnUse"><path id="SvgjsPath1178" d="M0,2 L14,6 L0,11 L0,2" fill="#323232" stroke="#323232" stroke-width="2"></path></marker></defs><rect id="SvgjsRect1008" width="635" height="363" fill="#cce5ff"></rect><g id="SvgjsG1009" transform="translate(64.86111111111111,25.00698349668812)"><path id="SvgjsPath1010" d="M 0 0L 101 0L 101 44.333335876464844L 0 44.333335876464844Z" stroke="#323232" stroke-width="2" fill-opacity="1" fill="#ffffff"></path><g id="SvgjsG1011"><text id="SvgjsText1012" font-family="微软雅黑" text-anchor="middle" font-size="13px" width="8" fill="#323232" font-weight="400" align="middle" anchor="middle" family="微软雅黑" size="13px" weight="400" font-style="" y="12.216667938232423" transform="rotate(0)"><tspan id="SvgjsTspan1013" dy="16" x="50.5"><tspan id="SvgjsTspan1014" style="text-decoration:;">3</tspan></tspan></text></g></g><g id="SvgjsG1015" transform="translate(165.86111111111111,25.00698349668812)"><path id="SvgjsPath1016" d="M 0 0L 101 0L 101 44.333335876464844L 0 44.333335876464844Z" stroke="#323232" stroke-width="2" fill-opacity="1" fill="#ffffff"></path><g id="SvgjsG1017"><text id="SvgjsText1018" font-family="微软雅黑" text-anchor="middle" font-size="13px" width="8" fill="#323232" font-weight="400" align="middle" anchor="middle" family="微软雅黑" size="13px" weight="400" font-style="" y="12.216667938232423" transform="rotate(0)"><tspan id="SvgjsTspan1019" dy="16" x="50.5"><tspan id="SvgjsTspan1020" style="text-decoration:;">2</tspan></tspan></text></g></g><g id="SvgjsG1021" transform="translate(266.8611111111111,25.00698349668812)"><path id="SvgjsPath1022" d="M 0 0L 101 0L 101 44.333335876464844L 0 44.333335876464844Z" stroke="#323232" stroke-width="2" fill-opacity="1" fill="#ffffff"></path><g id="SvgjsG1023"><text id="SvgjsText1024" font-family="微软雅黑" text-anchor="middle" font-size="13px" width="8" fill="#323232" font-weight="400" align="middle" anchor="middle" family="微软雅黑" size="13px" weight="400" font-style="" y="12.216667938232423" transform="rotate(0)"><tspan id="SvgjsTspan1025" dy="16" x="50.5"><tspan id="SvgjsTspan1026" style="text-decoration:;">8</tspan></tspan></text></g></g><g id="SvgjsG1027" transform="translate(367.8611111111111,25.00698349668812)"><path id="SvgjsPath1028" d="M 0 0L 101 0L 101 44.333335876464844L 0 44.333335876464844Z" stroke="#323232" stroke-width="2" fill-opacity="1" fill="#ffffff"></path><g id="SvgjsG1029"><text id="SvgjsText1030" font-family="微软雅黑" text-anchor="middle" font-size="13px" width="8" fill="#323232" font-weight="400" align="middle" anchor="middle" family="微软雅黑" size="13px" weight="400" font-style="" y="12.216667938232423" transform="rotate(0)"><tspan id="SvgjsTspan1031" dy="16" x="50.5"><tspan id="SvgjsTspan1032" style="text-decoration:;">1</tspan></tspan></text></g></g><g id="SvgjsG1033" transform="translate(468.8611111111111,25.00698349668812)"><path id="SvgjsPath1034" d="M 0 0L 101 0L 101 44.333335876464844L 0 44.333335876464844Z" stroke="#323232" stroke-width="2" fill-opacity="1" fill="#ffffff"></path><g id="SvgjsG1035"><text id="SvgjsText1036" font-family="微软雅黑" text-anchor="middle" font-size="13px" width="8" fill="#323232" font-weight="400" align="middle" anchor="middle" family="微软雅黑" size="13px" weight="400" font-style="" y="12.216667938232423" transform="rotate(0)"><tspan id="SvgjsTspan1037" dy="16" x="50.5"><tspan id="SvgjsTspan1038" style="text-decoration:;">9</tspan></tspan></text></g></g><g id="SvgjsG1039" transform="translate(244.09722222222217,108.01042938232422)"><path id="SvgjsPath1040" d="M 0 0L 129.5 0L 145.5 16L 145.5 127.33332061767578L 0 127.33332061767578L 0 0Z" stroke="none" fill-opacity="1" fill="#ffffaa"></path><path id="SvgjsPath1041" d="M 129.5 0L 129.5 16L 145.5 16Z" stroke="none" fill-opacity="1" fill="#cdcdcd"></path><path id="SvgjsPath1042" d="M 0 0L 129.5 0L 145.5 16L 145.5 127.33332061767578L 0 127.33332061767578L 0 0Z" stroke="none" fill="none"></path><g id="SvgjsG1043"><text id="SvgjsText1044" font-family="微软雅黑" text-anchor="middle" font-size="13px" width="119" fill="#323232" font-weight="400" align="middle" anchor="middle" family="微软雅黑" size="13px" weight="400" font-style="" y="29.71666030883789" transform="rotate(0)"><tspan id="SvgjsTspan1045" dy="16" x="73"><tspan id="SvgjsTspan1046" style="text-decoration:;">1. 从第一个非叶子节</tspan></tspan><tspan id="SvgjsTspan1047" dy="16" x="73"><tspan id="SvgjsTspan1048" style="text-decoration:;">点开始调整成大顶堆</tspan></tspan><tspan id="SvgjsTspan1049" dy="16" x="73"><tspan id="SvgjsTspan1050" style="text-decoration:;">2. 将堆顶元素与最后</tspan></tspan><tspan id="SvgjsTspan1051" dy="16" x="73"><tspan id="SvgjsTspan1052" style="text-decoration:;">一个元素交换</tspan></tspan></text></g></g><g id="SvgjsG1053" transform="translate(64.86111111111109,294.0069834966881)"><path id="SvgjsPath1054" d="M 0 0L 101 0L 101 44.333335876464844L 0 44.333335876464844Z" stroke="#323232" stroke-width="2" fill-opacity="1" fill="#ffffff"></path><g id="SvgjsG1055"><text id="SvgjsText1056" font-family="微软雅黑" text-anchor="middle" font-size="13px" width="8" fill="#323232" font-weight="400" align="middle" anchor="middle" family="微软雅黑" size="13px" weight="400" font-style="" y="12.216667938232423" transform="rotate(0)"><tspan id="SvgjsTspan1057" dy="16" x="50.5"><tspan id="SvgjsTspan1058" style="text-decoration:;">1</tspan></tspan></text></g></g><g id="SvgjsG1059" transform="translate(165.8611111111111,294.0069834966881)"><path id="SvgjsPath1060" d="M 0 0L 101 0L 101 44.333335876464844L 0 44.333335876464844Z" stroke="#323232" stroke-width="2" fill-opacity="1" fill="#ffffff"></path><g id="SvgjsG1061"><text id="SvgjsText1062" font-family="微软雅黑" text-anchor="middle" font-size="13px" width="8" fill="#323232" font-weight="400" align="middle" anchor="middle" family="微软雅黑" size="13px" weight="400" font-style="" y="12.216667938232423" transform="rotate(0)"><tspan id="SvgjsTspan1063" dy="16" x="50.5"><tspan id="SvgjsTspan1064" style="text-decoration:;">2</tspan></tspan></text></g></g><g id="SvgjsG1065" transform="translate(266.8611111111111,294.0069834966881)"><path id="SvgjsPath1066" d="M 0 0L 101 0L 101 44.333335876464844L 0 44.333335876464844Z" stroke="#323232" stroke-width="2" fill-opacity="1" fill="#ffffff"></path><g id="SvgjsG1067"><text id="SvgjsText1068" font-family="微软雅黑" text-anchor="middle" font-size="13px" width="8" fill="#323232" font-weight="400" align="middle" anchor="middle" family="微软雅黑" size="13px" weight="400" font-style="" y="12.216667938232423" transform="rotate(0)"><tspan id="SvgjsTspan1069" dy="16" x="50.5"><tspan id="SvgjsTspan1070" style="text-decoration:;">3</tspan></tspan></text></g></g><g id="SvgjsG1071" transform="translate(367.8611111111111,294.0069834966881)"><path id="SvgjsPath1072" d="M 0 0L 101 0L 101 44.333335876464844L 0 44.333335876464844Z" stroke="#323232" stroke-width="2" fill-opacity="1" fill="#ffffff"></path><g id="SvgjsG1073"><text id="SvgjsText1074" font-family="微软雅黑" text-anchor="middle" font-size="13px" width="8" fill="#323232" font-weight="400" align="middle" anchor="middle" family="微软雅黑" size="13px" weight="400" font-style="" y="12.216667938232423" transform="rotate(0)"><tspan id="SvgjsTspan1075" dy="16" x="50.5"><tspan id="SvgjsTspan1076" style="text-decoration:;">8</tspan></tspan></text></g></g><g id="SvgjsG1077" transform="translate(468.8611111111111,294.0069834966881)"><path id="SvgjsPath1078" d="M 0 0L 101 0L 101 44.333335876464844L 0 44.333335876464844Z" stroke="#323232" stroke-width="2" fill-opacity="1" fill="#ffffff"></path><g id="SvgjsG1079"><text id="SvgjsText1080" font-family="微软雅黑" text-anchor="middle" font-size="13px" width="8" fill="#323232" font-weight="400" align="middle" anchor="middle" family="微软雅黑" size="13px" weight="400" font-style="" y="12.216667938232423" transform="rotate(0)"><tspan id="SvgjsTspan1081" dy="16" x="50.5"><tspan id="SvgjsTspan1082" style="text-decoration:;">9</tspan></tspan></text></g></g><g id="SvgjsG1083" transform="translate(131.90277777777771,91.34375)"><path id="SvgjsPath1084" d="M 0 22.5C 0 -7.5 44.69444444444446 -7.5 44.69444444444446 22.5C 44.69444444444446 52.5 0 52.5 0 22.5Z" stroke="#323232" stroke-width="2" fill-opacity="1" fill="#ffffff"></path><g id="SvgjsG1085"><text id="SvgjsText1086" font-family="微软雅黑" text-anchor="middle" font-size="13px" width="8" fill="#323232" font-weight="400" align="middle" anchor="middle" family="微软雅黑" size="13px" weight="400" font-style="" y="12.55" transform="rotate(0)"><tspan id="SvgjsTspan1087" dy="16" x="22.5"><tspan id="SvgjsTspan1088" style="text-decoration:;">3</tspan></tspan></text></g></g><g id="SvgjsG1089" transform="translate(69.70833333333326,141.67366287901234)"><path id="SvgjsPath1090" d="M 0 22.5C 0 -7.5 44.69444444444446 -7.5 44.69444444444446 22.5C 44.69444444444446 52.5 0 52.5 0 22.5Z" stroke="#323232" stroke-width="2" fill-opacity="1" fill="#ffffff"></path><g id="SvgjsG1091"><text id="SvgjsText1092" font-family="微软雅黑" text-anchor="middle" font-size="13px" width="8" fill="#323232" font-weight="400" align="middle" anchor="middle" family="微软雅黑" size="13px" weight="400" font-style="" y="12.55" transform="rotate(0)"><tspan id="SvgjsTspan1093" dy="16" x="22.5"><tspan id="SvgjsTspan1094" style="text-decoration:;">2</tspan></tspan></text></g></g><g id="SvgjsG1095" transform="translate(190.0138888888888,141.67366287901234)"><path id="SvgjsPath1096" d="M 0 22.5C 0 -7.5 44.69444444444446 -7.5 44.69444444444446 22.5C 44.69444444444446 52.5 0 52.5 0 22.5Z" stroke="#323232" stroke-width="2" fill-opacity="1" fill="#ffffff"></path><g id="SvgjsG1097"><text id="SvgjsText1098" font-family="微软雅黑" text-anchor="middle" font-size="13px" width="8" fill="#323232" font-weight="400" align="middle" anchor="middle" family="微软雅黑" size="13px" weight="400" font-style="" y="12.55" transform="rotate(0)"><tspan id="SvgjsTspan1099" dy="16" x="22.5"><tspan id="SvgjsTspan1100" style="text-decoration:;">8</tspan></tspan></text></g></g><g id="SvgjsG1101" transform="translate(25.0138888888888,201.34375)"><path id="SvgjsPath1102" d="M 0 22.5C 0 -7.5 44.69444444444446 -7.5 44.69444444444446 22.5C 44.69444444444446 52.5 0 52.5 0 22.5Z" stroke="#323232" stroke-width="2" fill-opacity="1" fill="#ffffff"></path><g id="SvgjsG1103"><text id="SvgjsText1104" font-family="微软雅黑" text-anchor="middle" font-size="13px" width="8" fill="#323232" font-weight="400" align="middle" anchor="middle" family="微软雅黑" size="13px" weight="400" font-style="" y="12.55" transform="rotate(0)"><tspan id="SvgjsTspan1105" dy="16" x="22.5"><tspan id="SvgjsTspan1106" style="text-decoration:;">1</tspan></tspan></text></g></g><g id="SvgjsG1107" transform="translate(111.70833333333326,201.34375)"><path id="SvgjsPath1108" d="M 0 22.5C 0 -7.5 44.69444444444446 -7.5 44.69444444444446 22.5C 44.69444444444446 52.5 0 52.5 0 22.5Z" stroke="#323232" stroke-width="2" fill-opacity="1" fill="#ffffff"></path><g id="SvgjsG1109"><text id="SvgjsText1110" font-family="微软雅黑" text-anchor="middle" font-size="13px" width="8" fill="#323232" font-weight="400" align="middle" anchor="middle" family="微软雅黑" size="13px" weight="400" font-style="" y="12.55" transform="rotate(0)"><tspan id="SvgjsTspan1111" dy="16" x="22.5"><tspan id="SvgjsTspan1112" style="text-decoration:;">9</tspan></tspan></text></g></g><g id="SvgjsG1113"><path id="SvgjsPath1114" d="M131.90277777777771 113.84375L107.89011544103562 148.05085678118655" stroke="#323232" stroke-width="2" fill="none" marker-end="url(#SvgjsMarker1115)"></path></g><g id="SvgjsG1117"><path id="SvgjsPath1118" d="M176.59722222222217 113.84375L197.01143578459528 147.7579635623731" stroke="#323232" stroke-width="2" fill="none" marker-end="url(#SvgjsMarker1119)"></path></g><g id="SvgjsG1121"><path id="SvgjsPath1122" d="M69.70833333333326 164.17366287901234L47.36111111111103 201.34375" stroke="#323232" stroke-width="2" fill="none" marker-end="url(#SvgjsMarker1123)"></path></g><g id="SvgjsG1125"><path id="SvgjsPath1126" d="M114.40277777777771 164.17366287901234L134.0555555555555 201.34375" stroke="#323232" stroke-width="2" fill="none" marker-end="url(#SvgjsMarker1127)"></path></g><g id="SvgjsG1129" transform="matrix(0.8191520442889918,0.573576436351046,-0.573576436351046,0.8191520442889918,40.975989862409776,112.34374981341449)"><path id="SvgjsPath1130" d="M 0 7.659529738860994L 27.301677104972967 7.659529738860994L 27.301677104972967 0L 38.90702519415629 11.605348089183323L 27.301677104972967 23.210696178366646L 27.301677104972967 15.551166439505653L 0 15.551166439505653L 0 7.659529738860994Z" stroke="#323232" stroke-width="2" fill-opacity="1" fill="#ffffff"></path><g id="SvgjsG1131"><text id="SvgjsText1132" font-family="微软雅黑" text-anchor="middle" font-size="13px" width="0" fill="#323232" font-weight="400" align="middle" anchor="middle" family="微软雅黑" size="13px" weight="400" font-style="" y="1.655348089183324" transform="rotate(0)"></text></g></g><g id="SvgjsG1133" transform="translate(506.9027777777778,91.34375)"><path id="SvgjsPath1134" d="M 0 22.5C 0 -7.5 44.69444444444446 -7.5 44.69444444444446 22.5C 44.69444444444446 52.5 0 52.5 0 22.5Z" stroke="#323232" stroke-width="2" fill-opacity="1" fill="#ffffff"></path><g id="SvgjsG1135"><text id="SvgjsText1136" font-family="微软雅黑" text-anchor="middle" font-size="13px" width="8" fill="#323232" font-weight="400" align="middle" anchor="middle" family="微软雅黑" size="13px" weight="400" font-style="" y="12.55" transform="rotate(0)"><tspan id="SvgjsTspan1137" dy="16" x="22.5"><tspan id="SvgjsTspan1138" style="text-decoration:;">9</tspan></tspan></text></g></g><g id="SvgjsG1139" transform="translate(444.70833333333326,141.67366287901234)"><path id="SvgjsPath1140" d="M 0 22.5C 0 -7.5 44.69444444444446 -7.5 44.69444444444446 22.5C 44.69444444444446 52.5 0 52.5 0 22.5Z" stroke="#323232" stroke-width="2" fill-opacity="1" fill="#ffffff"></path><g id="SvgjsG1141"><text id="SvgjsText1142" font-family="微软雅黑" text-anchor="middle" font-size="13px" width="8" fill="#323232" font-weight="400" align="middle" anchor="middle" family="微软雅黑" size="13px" weight="400" font-style="" y="12.55" transform="rotate(0)"><tspan id="SvgjsTspan1143" dy="16" x="22.5"><tspan id="SvgjsTspan1144" style="text-decoration:;">3</tspan></tspan></text></g></g><g id="SvgjsG1145" transform="translate(565.0138888888889,141.67366287901234)"><path id="SvgjsPath1146" d="M 0 22.5C 0 -7.5 44.69444444444446 -7.5 44.69444444444446 22.5C 44.69444444444446 52.5 0 52.5 0 22.5Z" stroke="#323232" stroke-width="2" fill-opacity="1" fill="#ffffff"></path><g id="SvgjsG1147"><text id="SvgjsText1148" font-family="微软雅黑" text-anchor="middle" font-size="13px" width="8" fill="#323232" font-weight="400" align="middle" anchor="middle" family="微软雅黑" size="13px" weight="400" font-style="" y="12.55" transform="rotate(0)"><tspan id="SvgjsTspan1149" dy="16" x="22.5"><tspan id="SvgjsTspan1150" style="text-decoration:;">8</tspan></tspan></text></g></g><g id="SvgjsG1151" transform="translate(400.0138888888889,201.34375)"><path id="SvgjsPath1152" d="M 0 22.5C 0 -7.5 44.69444444444446 -7.5 44.69444444444446 22.5C 44.69444444444446 52.5 0 52.5 0 22.5Z" stroke="#323232" stroke-width="2" fill-opacity="1" fill="#ffffff"></path><g id="SvgjsG1153"><text id="SvgjsText1154" font-family="微软雅黑" text-anchor="middle" font-size="13px" width="8" fill="#323232" font-weight="400" align="middle" anchor="middle" family="微软雅黑" size="13px" weight="400" font-style="" y="12.55" transform="rotate(0)"><tspan id="SvgjsTspan1155" dy="16" x="22.5"><tspan id="SvgjsTspan1156" style="text-decoration:;">1</tspan></tspan></text></g></g><g id="SvgjsG1157" transform="translate(486.70833333333326,201.34375)"><path id="SvgjsPath1158" d="M 0 22.5C 0 -7.5 44.69444444444446 -7.5 44.69444444444446 22.5C 44.69444444444446 52.5 0 52.5 0 22.5Z" stroke="#323232" stroke-width="2" fill-opacity="1" fill="#ffffff"></path><g id="SvgjsG1159"><text id="SvgjsText1160" font-family="微软雅黑" text-anchor="middle" font-size="13px" width="8" fill="#323232" font-weight="400" align="middle" anchor="middle" family="微软雅黑" size="13px" weight="400" font-style="" y="12.55" transform="rotate(0)"><tspan id="SvgjsTspan1161" dy="16" x="22.5"><tspan id="SvgjsTspan1162" style="text-decoration:;">2</tspan></tspan></text></g></g><g id="SvgjsG1163"><path id="SvgjsPath1164" d="M506.9027777777778 113.84375L482.89011544103573 148.05085678118655" stroke="#323232" stroke-width="2" fill="none" marker-end="url(#SvgjsMarker1165)"></path></g><g id="SvgjsG1167"><path id="SvgjsPath1168" d="M551.5972222222222 113.84375L572.0114357845953 147.7579635623731" stroke="#323232" stroke-width="2" fill="none" marker-end="url(#SvgjsMarker1169)"></path></g><g id="SvgjsG1171"><path id="SvgjsPath1172" d="M444.70833333333326 164.17366287901234L422.3611111111111 201.34375" stroke="#323232" stroke-width="2" fill="none" marker-end="url(#SvgjsMarker1173)"></path></g><g id="SvgjsG1175"><path id="SvgjsPath1176" d="M489.4027777777778 164.17366287901234L509.05555555555566 201.34375" stroke="#323232" stroke-width="2" fill="none" marker-end="url(#SvgjsMarker1177)"></path></g></svg>