<svg id="SvgjsSvg1337" width="555" height="324.65625" xmlns="http://www.w3.org/2000/svg" version="1.1" xmlns:xlink="http://www.w3.org/1999/xlink" xmlns:svgjs="http://svgjs.com/svgjs"><defs id="SvgjsDefs1338"><marker id="SvgjsMarker1420" markerWidth="16" markerHeight="12" refX="0" refY="6" viewBox="0 0 16 12" orient="auto" markerUnits="userSpaceOnUse"><path id="SvgjsPath1421" d="M15,1.5 L2,6 L15,10.5" fill="#323232" stroke="#323232" stroke-width="2"></path></marker><marker id="SvgjsMarker1422" markerWidth="16" markerHeight="12" refX="16" refY="6" viewBox="0 0 16 12" orient="auto" markerUnits="userSpaceOnUse"><path id="SvgjsPath1423" d="M0,2 L14,6 L0,11 L0,2" fill="#323232" stroke="#323232" stroke-width="2"></path></marker><marker id="SvgjsMarker1448" markerWidth="16" markerHeight="12" refX="16" refY="6" viewBox="0 0 16 12" orient="auto" markerUnits="userSpaceOnUse"><path id="SvgjsPath1449" d="M0,2 L14,6 L0,11 L0,2" fill="#323232" stroke="#323232" stroke-width="2"></path></marker></defs><rect id="SvgjsRect1339" width="555" height="324.65625" fill="#cce5ff"></rect><g id="SvgjsG1340" transform="translate(25.00173611111103,110.66323349668812)"><path id="SvgjsPath1341" d="M 0 0L 101 0L 101 44.333335876464844L 0 44.333335876464844Z" stroke="#323232" stroke-width="2" fill-opacity="1" fill="#ffffff"></path><g id="SvgjsG1342"><text id="SvgjsText1343" font-family="微软雅黑" text-anchor="middle" font-size="13px" width="8" fill="#323232" font-weight="400" align="middle" anchor="middle" family="微软雅黑" size="13px" weight="400" font-style="" y="12.216667938232423" transform="rotate(0)"><tspan id="SvgjsTspan1344" dy="16" x="50.5"><tspan id="SvgjsTspan1345" style="text-decoration:;">5</tspan></tspan></text></g></g><g id="SvgjsG1346" transform="translate(126.00173611111109,110.66323349668812)"><path id="SvgjsPath1347" d="M 0 0L 101 0L 101 44.333335876464844L 0 44.333335876464844Z" stroke="#323232" stroke-width="2" fill-opacity="1" fill="#ffffff"></path><g id="SvgjsG1348"><text id="SvgjsText1349" font-family="微软雅黑" text-anchor="middle" font-size="13px" width="8" fill="#323232" font-weight="400" align="middle" anchor="middle" family="微软雅黑" size="13px" weight="400" font-style="" y="12.216667938232423" transform="rotate(0)"><tspan id="SvgjsTspan1350" dy="16" x="50.5"><tspan id="SvgjsTspan1351" style="text-decoration:;">2</tspan></tspan></text></g></g><g id="SvgjsG1352" transform="translate(227.0017361111111,110.66323349668812)"><path id="SvgjsPath1353" d="M 0 0L 101 0L 101 44.333335876464844L 0 44.333335876464844Z" stroke="#323232" stroke-width="2" fill-opacity="1" fill="#ffffff"></path><g id="SvgjsG1354"><text id="SvgjsText1355" font-family="微软雅黑" text-anchor="middle" font-size="13px" width="8" fill="#323232" font-weight="400" align="middle" anchor="middle" family="微软雅黑" size="13px" weight="400" font-style="" y="12.216667938232423" transform="rotate(0)"><tspan id="SvgjsTspan1356" dy="16" x="50.5"><tspan id="SvgjsTspan1357" style="text-decoration:;">3</tspan></tspan></text></g></g><g id="SvgjsG1358" transform="translate(328.0017361111111,110.66323349668812)"><path id="SvgjsPath1359" d="M 0 0L 101 0L 101 44.333335876464844L 0 44.333335876464844Z" stroke="#323232" stroke-width="2" fill-opacity="1" fill="#ffffff"></path><g id="SvgjsG1360"><text id="SvgjsText1361" font-family="微软雅黑" text-anchor="middle" font-size="13px" width="8" fill="#323232" font-weight="400" align="middle" anchor="middle" family="微软雅黑" size="13px" weight="400" font-style="" y="12.216667938232423" transform="rotate(0)"><tspan id="SvgjsTspan1362" dy="16" x="50.5"><tspan id="SvgjsTspan1363" style="text-decoration:;">4</tspan></tspan></text></g></g><g id="SvgjsG1364" transform="translate(429.0017361111111,110.66323349668812)"><path id="SvgjsPath1365" d="M 0 0L 101 0L 101 44.333335876464844L 0 44.333335876464844Z" stroke="#323232" stroke-width="2" fill-opacity="1" fill="#ffffff"></path><g id="SvgjsG1366"><text id="SvgjsText1367" font-family="微软雅黑" text-anchor="middle" font-size="13px" width="8" fill="#323232" font-weight="400" align="middle" anchor="middle" family="微软雅黑" size="13px" weight="400" font-style="" y="12.216667938232423" transform="rotate(0)"><tspan id="SvgjsTspan1368" dy="16" x="50.5"><tspan id="SvgjsTspan1369" style="text-decoration:;">1</tspan></tspan></text></g></g><g id="SvgjsG1370" transform="translate(61.001736111111086,55)"><path id="SvgjsPath1371" d="M 9.57 0L 19.43 0L 19.43 28.5L 29 28.5L 14.5 43L 0 28.5L 9.57 28.5L 9.57 0Z" stroke="#323232" stroke-width="2" fill-opacity="1" fill="#ffffff"></path><g id="SvgjsG1372"><text id="SvgjsText1373" font-family="微软雅黑" text-anchor="middle" font-size="13px" width="26" fill="#323232" font-weight="400" align="middle" anchor="middle" family="微软雅黑" size="13px" weight="400" font-style="" y="9.400000000000002" transform="rotate(0)"><tspan id="SvgjsTspan1374" dy="16" x="14.7"><tspan id="SvgjsTspan1375" style="text-decoration:;">移动</tspan></tspan></text></g></g><g id="SvgjsG1376" transform="translate(25.001736111111086,255.66323349668812)"><path id="SvgjsPath1377" d="M 0 0L 101 0L 101 44.333335876464844L 0 44.333335876464844Z" stroke="#323232" stroke-width="2" fill-opacity="1" fill="#ffffff"></path><g id="SvgjsG1378"><text id="SvgjsText1379" font-family="微软雅黑" text-anchor="middle" font-size="13px" width="8" fill="#323232" font-weight="400" align="middle" anchor="middle" family="微软雅黑" size="13px" weight="400" font-style="" y="12.216667938232423" transform="rotate(0)"><tspan id="SvgjsTspan1380" dy="16" x="50.5"><tspan id="SvgjsTspan1381" style="text-decoration:;">2</tspan></tspan></text></g></g><g id="SvgjsG1382" transform="translate(126.00173611111109,255.66323349668812)"><path id="SvgjsPath1383" d="M 0 0L 101 0L 101 44.333335876464844L 0 44.333335876464844Z" stroke="#323232" stroke-width="2" fill-opacity="1" fill="#ffffff"></path><g id="SvgjsG1384"><text id="SvgjsText1385" font-family="微软雅黑" text-anchor="middle" font-size="13px" width="8" fill="#323232" font-weight="400" align="middle" anchor="middle" family="微软雅黑" size="13px" weight="400" font-style="" y="12.216667938232423" transform="rotate(0)"><tspan id="SvgjsTspan1386" dy="16" x="50.5"><tspan id="SvgjsTspan1387" style="text-decoration:;">5</tspan></tspan></text></g></g><g id="SvgjsG1388" transform="translate(328.0017361111111,255.66323349668812)"><path id="SvgjsPath1389" d="M 0 0L 101 0L 101 44.333335876464844L 0 44.333335876464844Z" stroke="#323232" stroke-width="2" fill-opacity="1" fill="#ffffff"></path><g id="SvgjsG1390"><text id="SvgjsText1391" font-family="微软雅黑" text-anchor="middle" font-size="13px" width="8" fill="#323232" font-weight="400" align="middle" anchor="middle" family="微软雅黑" size="13px" weight="400" font-style="" y="12.216667938232423" transform="rotate(0)"><tspan id="SvgjsTspan1392" dy="16" x="50.5"><tspan id="SvgjsTspan1393" style="text-decoration:;">4</tspan></tspan></text></g></g><g id="SvgjsG1394" transform="translate(429.0017361111111,255.66323349668812)"><path id="SvgjsPath1395" d="M 0 0L 101 0L 101 44.333335876464844L 0 44.333335876464844Z" stroke="#323232" stroke-width="2" fill-opacity="1" fill="#ffffff"></path><g id="SvgjsG1396"><text id="SvgjsText1397" font-family="微软雅黑" text-anchor="middle" font-size="13px" width="8" fill="#323232" font-weight="400" align="middle" anchor="middle" family="微软雅黑" size="13px" weight="400" font-style="" y="12.216667938232423" transform="rotate(0)"><tspan id="SvgjsTspan1398" dy="16" x="50.5"><tspan id="SvgjsTspan1399" style="text-decoration:;">1</tspan></tspan></text></g></g><g id="SvgjsG1400" transform="translate(61.001736111111086,200)"><path id="SvgjsPath1401" d="M 9.57 0L 19.43 0L 19.43 28.5L 29 28.5L 14.5 43L 0 28.5L 9.57 28.5L 9.57 0Z" stroke="#323232" stroke-width="2" fill-opacity="1" fill="#ffffff"></path><g id="SvgjsG1402"><text id="SvgjsText1403" font-family="微软雅黑" text-anchor="middle" font-size="13px" width="26" fill="#323232" font-weight="400" align="middle" anchor="middle" family="微软雅黑" size="13px" weight="400" font-style="" y="9.400000000000002" transform="rotate(0)"><tspan id="SvgjsTspan1404" dy="16" x="14.7"><tspan id="SvgjsTspan1405" style="text-decoration:;">移动</tspan></tspan></text></g></g><g id="SvgjsG1406" transform="translate(162.0017361111111,200)"><path id="SvgjsPath1407" d="M 9.57 0L 19.43 0L 19.43 28.5L 29 28.5L 14.5 43L 0 28.5L 9.57 28.5L 9.57 0Z" stroke="#323232" stroke-width="2" fill-opacity="1" fill="#ffffff"></path><g id="SvgjsG1408"><text id="SvgjsText1409" font-family="微软雅黑" text-anchor="middle" font-size="13px" width="26" fill="#323232" font-weight="400" align="middle" anchor="middle" family="微软雅黑" size="13px" weight="400" font-style="" y="9.400000000000002" transform="rotate(0)"><tspan id="SvgjsTspan1410" dy="16" x="14.7"><tspan id="SvgjsTspan1411" style="text-decoration:;">目标</tspan></tspan></text></g></g><g id="SvgjsG1412" transform="translate(227.0017361111111,255.66323349668812)"><path id="SvgjsPath1413" d="M 0 0L 101 0L 101 44.333335876464844L 0 44.333335876464844Z" stroke="#323232" stroke-width="2" fill-opacity="1" fill="#ffffff"></path><g id="SvgjsG1414"><text id="SvgjsText1415" font-family="微软雅黑" text-anchor="middle" font-size="13px" width="8" fill="#323232" font-weight="400" align="middle" anchor="middle" family="微软雅黑" size="13px" weight="400" font-style="" y="12.216667938232423" transform="rotate(0)"><tspan id="SvgjsTspan1416" dy="16" x="50.5"><tspan id="SvgjsTspan1417" style="text-decoration:;">3</tspan></tspan></text></g></g><g id="SvgjsG1418"><path id="SvgjsPath1419" d="M75.50173611111109 200L75.50173611111109 170L176.5017361111111 170L176.5017361111111 200" stroke="#323232" stroke-width="2" fill="none" marker-start="url(#SvgjsMarker1420)" marker-end="url(#SvgjsMarker1422)"></path><rect id="SvgjsRect1424" width="117" height="16" x="67.50173611111109" y="162" fill="#ffffff"></rect><text id="SvgjsText1425" font-family="微软雅黑" text-anchor="middle" font-size="13px" width="117" fill="#323232" font-weight="400" align="top" anchor="middle" family="微软雅黑" size="13px" weight="400" font-style="" y="160.05" transform="rotate(0)"><tspan id="SvgjsTspan1426" dy="16" x="126.00173611111109"><tspan id="SvgjsTspan1427" style="text-decoration:;">满足条件将数据后移</tspan></tspan></text></g><g id="SvgjsG1428" transform="translate(306.69618055555554,185)"><path id="SvgjsPath1429" d="M 0 0L 127.61111111111109 0L 143.6111111111111 16L 143.6111111111111 61.66323349668812L 0 61.66323349668812L 0 0Z" stroke="none" fill-opacity="1" fill="#ffffaa"></path><path id="SvgjsPath1430" d="M 127.61111111111109 0L 127.61111111111109 16L 143.6111111111111 16Z" stroke="none" fill-opacity="1" fill="#cdcdcd"></path><path id="SvgjsPath1431" d="M 0 0L 127.61111111111109 0L 143.6111111111111 16L 143.6111111111111 61.66323349668812L 0 61.66323349668812L 0 0Z" stroke="none" fill="none"></path><g id="SvgjsG1432"><text id="SvgjsText1433" font-family="微软雅黑" text-anchor="middle" font-size="13px" width="117" fill="#323232" font-weight="400" align="middle" anchor="middle" family="微软雅黑" size="13px" weight="400" font-style="" y="4.881616748344061" transform="rotate(0)"><tspan id="SvgjsTspan1434" dy="16" x="72"><tspan id="SvgjsTspan1435" style="text-decoration:;">升序排列，如果移动</tspan></tspan><tspan id="SvgjsTspan1436" dy="16" x="72"><tspan id="SvgjsTspan1437" style="text-decoration:;">指针的数据满足条件</tspan></tspan><tspan id="SvgjsTspan1438" dy="16" x="72"><tspan id="SvgjsTspan1439" style="text-decoration:;">后移，目标数据交换</tspan></tspan></text></g></g><g id="SvgjsG1440" transform="translate(162.0017361111111,55)"><path id="SvgjsPath1441" d="M 9.57 0L 19.43 0L 19.43 28.5L 29 28.5L 14.5 43L 0 28.5L 9.57 28.5L 9.57 0Z" stroke="#323232" stroke-width="2" fill-opacity="1" fill="#ffffff"></path><g id="SvgjsG1442"><text id="SvgjsText1443" font-family="微软雅黑" text-anchor="middle" font-size="13px" width="26" fill="#323232" font-weight="400" align="middle" anchor="middle" family="微软雅黑" size="13px" weight="400" font-style="" y="9.400000000000002" transform="rotate(0)"><tspan id="SvgjsTspan1444" dy="16" x="14.7"><tspan id="SvgjsTspan1445" style="text-decoration:;">目标</tspan></tspan></text></g></g><g id="SvgjsG1446"><path id="SvgjsPath1447" d="M176.5017361111111 55L176.5017361111111 25L75.50173611111109 25L75.50173611111109 55" stroke="#323232" stroke-width="2" fill="none" marker-end="url(#SvgjsMarker1448)"></path><rect id="SvgjsRect1450" width="104" height="16" x="74.00173611111109" y="17" fill="#ffffff"></rect><text id="SvgjsText1451" font-family="微软雅黑" text-anchor="middle" font-size="13px" width="104" fill="#323232" font-weight="400" align="top" anchor="middle" family="微软雅黑" size="13px" weight="400" font-style="" y="15.05" transform="rotate(0)"><tspan id="SvgjsTspan1452" dy="16" x="126.00173611111109"><tspan id="SvgjsTspan1453" style="text-decoration:;">与之前的数据比较</tspan></tspan></text></g></svg>