<svg id="SvgjsSvg1006" width="569.0000305175781" height="324.6458282470703" xmlns="http://www.w3.org/2000/svg" version="1.1" xmlns:xlink="http://www.w3.org/1999/xlink" xmlns:svgjs="http://svgjs.com/svgjs"><defs id="SvgjsDefs1007"><marker id="SvgjsMarker1089" markerWidth="16" markerHeight="12" refX="0" refY="6" viewBox="0 0 16 12" orient="auto" markerUnits="userSpaceOnUse"><path id="SvgjsPath1090" d="M15,1.5 L2,6 L15,10.5" fill="#323232" stroke="#323232" stroke-width="2"></path></marker><marker id="SvgjsMarker1091" markerWidth="16" markerHeight="12" refX="16" refY="6" viewBox="0 0 16 12" orient="auto" markerUnits="userSpaceOnUse"><path id="SvgjsPath1092" d="M0,2 L14,6 L0,11 L0,2" fill="#323232" stroke="#323232" stroke-width="2"></path></marker><marker id="SvgjsMarker1123" markerWidth="16" markerHeight="12" refX="0" refY="6" viewBox="0 0 16 12" orient="auto" markerUnits="userSpaceOnUse"><path id="SvgjsPath1124" d="M15,1.5 L2,6 L15,10.5" fill="#323232" stroke="#323232" stroke-width="2"></path></marker><marker id="SvgjsMarker1125" markerWidth="16" markerHeight="12" refX="16" refY="6" viewBox="0 0 16 12" orient="auto" markerUnits="userSpaceOnUse"><path id="SvgjsPath1126" d="M0,2 L14,6 L0,11 L0,2" fill="#323232" stroke="#323232" stroke-width="2"></path></marker></defs><rect id="SvgjsRect1008" width="569.0000305175781" height="324.6458282470703" fill="#cce5ff"></rect><g id="SvgjsG1009" transform="translate(39.00693935818134,110.66323349668812)"><path id="SvgjsPath1010" d="M 0 0L 101 0L 101 44.333335876464844L 0 44.333335876464844Z" stroke="#323232" stroke-width="2" fill-opacity="1" fill="#ffffff"></path><g id="SvgjsG1011"><text id="SvgjsText1012" font-family="微软雅黑" text-anchor="middle" font-size="13px" width="9" fill="#323232" font-weight="400" align="middle" anchor="middle" family="微软雅黑" size="13px" weight="400" font-style="" y="12.216667938232423" transform="rotate(0)"><tspan id="SvgjsTspan1013" dy="16" x="50.5"><tspan id="SvgjsTspan1014" style="text-decoration:;">5</tspan></tspan></text></g></g><g id="SvgjsG1015" transform="translate(140.0069393581814,110.66323349668812)"><path id="SvgjsPath1016" d="M 0 0L 101 0L 101 44.333335876464844L 0 44.333335876464844Z" stroke="#323232" stroke-width="2" fill-opacity="1" fill="#ffffff"></path><g id="SvgjsG1017"><text id="SvgjsText1018" font-family="微软雅黑" text-anchor="middle" font-size="13px" width="9" fill="#323232" font-weight="400" align="middle" anchor="middle" family="微软雅黑" size="13px" weight="400" font-style="" y="12.216667938232423" transform="rotate(0)"><tspan id="SvgjsTspan1019" dy="16" x="50.5"><tspan id="SvgjsTspan1020" style="text-decoration:;">2</tspan></tspan></text></g></g><g id="SvgjsG1021" transform="translate(241.0069393581814,110.66323349668812)"><path id="SvgjsPath1022" d="M 0 0L 101 0L 101 44.333335876464844L 0 44.333335876464844Z" stroke="#323232" stroke-width="2" fill-opacity="1" fill="#ffffff"></path><g id="SvgjsG1023"><text id="SvgjsText1024" font-family="微软雅黑" text-anchor="middle" font-size="13px" width="9" fill="#323232" font-weight="400" align="middle" anchor="middle" family="微软雅黑" size="13px" weight="400" font-style="" y="12.216667938232423" transform="rotate(0)"><tspan id="SvgjsTspan1025" dy="16" x="50.5"><tspan id="SvgjsTspan1026" style="text-decoration:;">3</tspan></tspan></text></g></g><g id="SvgjsG1027" transform="translate(342.0069393581814,110.66323349668812)"><path id="SvgjsPath1028" d="M 0 0L 101 0L 101 44.333335876464844L 0 44.333335876464844Z" stroke="#323232" stroke-width="2" fill-opacity="1" fill="#ffffff"></path><g id="SvgjsG1029"><text id="SvgjsText1030" font-family="微软雅黑" text-anchor="middle" font-size="13px" width="9" fill="#323232" font-weight="400" align="middle" anchor="middle" family="微软雅黑" size="13px" weight="400" font-style="" y="12.216667938232423" transform="rotate(0)"><tspan id="SvgjsTspan1031" dy="16" x="50.5"><tspan id="SvgjsTspan1032" style="text-decoration:;">4</tspan></tspan></text></g></g><g id="SvgjsG1033" transform="translate(443.0069393581814,110.66323349668812)"><path id="SvgjsPath1034" d="M 0 0L 101 0L 101 44.333335876464844L 0 44.333335876464844Z" stroke="#323232" stroke-width="2" fill-opacity="1" fill="#ffffff"></path><g id="SvgjsG1035"><text id="SvgjsText1036" font-family="微软雅黑" text-anchor="middle" font-size="13px" width="9" fill="#323232" font-weight="400" align="middle" anchor="middle" family="微软雅黑" size="13px" weight="400" font-style="" y="12.216667938232423" transform="rotate(0)"><tspan id="SvgjsTspan1037" dy="16" x="50.5"><tspan id="SvgjsTspan1038" style="text-decoration:;">1</tspan></tspan></text></g></g><g id="SvgjsG1039" transform="translate(39.0069393581814,55)"><path id="SvgjsPath1040" d="M 9.57 0L 19.43 0L 19.43 28.5L 29 28.5L 14.5 43L 0 28.5L 9.57 28.5L 9.57 0Z" stroke="#323232" stroke-width="2" fill-opacity="1" fill="#ffffff"></path><g id="SvgjsG1041"><text id="SvgjsText1042" font-family="微软雅黑" text-anchor="middle" font-size="13px" width="32" fill="#323232" font-weight="400" align="middle" anchor="middle" family="微软雅黑" size="13px" weight="400" font-style="" y="9.400000000000002" transform="rotate(0)"><tspan id="SvgjsTspan1043" dy="16" x="14.7"><tspan id="SvgjsTspan1044" style="text-decoration:;">基准</tspan></tspan></text></g></g><g id="SvgjsG1045" transform="translate(39.0069393581814,255.66323349668812)"><path id="SvgjsPath1046" d="M 0 0L 101 0L 101 44.333335876464844L 0 44.333335876464844Z" stroke="#323232" stroke-width="2" fill-opacity="1" fill="#ffffff"></path><g id="SvgjsG1047"><text id="SvgjsText1048" font-family="微软雅黑" text-anchor="middle" font-size="13px" width="9" fill="#323232" font-weight="400" align="middle" anchor="middle" family="微软雅黑" size="13px" weight="400" font-style="" y="12.216667938232423" transform="rotate(0)"><tspan id="SvgjsTspan1049" dy="16" x="50.5"><tspan id="SvgjsTspan1050" style="text-decoration:;">1</tspan></tspan></text></g></g><g id="SvgjsG1051" transform="translate(140.0069393581814,255.66323349668812)"><path id="SvgjsPath1052" d="M 0 0L 101 0L 101 44.333335876464844L 0 44.333335876464844Z" stroke="#323232" stroke-width="2" fill-opacity="1" fill="#ffffff"></path><g id="SvgjsG1053"><text id="SvgjsText1054" font-family="微软雅黑" text-anchor="middle" font-size="13px" width="9" fill="#323232" font-weight="400" align="middle" anchor="middle" family="微软雅黑" size="13px" weight="400" font-style="" y="12.216667938232423" transform="rotate(0)"><tspan id="SvgjsTspan1055" dy="16" x="50.5"><tspan id="SvgjsTspan1056" style="text-decoration:;">2</tspan></tspan></text></g></g><g id="SvgjsG1057" transform="translate(342.0069393581814,255.66323349668812)"><path id="SvgjsPath1058" d="M 0 0L 101 0L 101 44.333335876464844L 0 44.333335876464844Z" stroke="#323232" stroke-width="2" fill-opacity="1" fill="#ffffff"></path><g id="SvgjsG1059"><text id="SvgjsText1060" font-family="微软雅黑" text-anchor="middle" font-size="13px" width="9" fill="#323232" font-weight="400" align="middle" anchor="middle" family="微软雅黑" size="13px" weight="400" font-style="" y="12.216667938232423" transform="rotate(0)"><tspan id="SvgjsTspan1061" dy="16" x="50.5"><tspan id="SvgjsTspan1062" style="text-decoration:;">4</tspan></tspan></text></g></g><g id="SvgjsG1063" transform="translate(443.0069393581814,255.66323349668812)"><path id="SvgjsPath1064" d="M 0 0L 101 0L 101 44.333335876464844L 0 44.333335876464844Z" stroke="#323232" stroke-width="2" fill-opacity="1" fill="#ffffff"></path><g id="SvgjsG1065"><text id="SvgjsText1066" font-family="微软雅黑" text-anchor="middle" font-size="13px" width="9" fill="#323232" font-weight="400" align="middle" anchor="middle" family="微软雅黑" size="13px" weight="400" font-style="" y="12.216667938232423" transform="rotate(0)"><tspan id="SvgjsTspan1067" dy="16" x="50.5"><tspan id="SvgjsTspan1068" style="text-decoration:;">5</tspan></tspan></text></g></g><g id="SvgjsG1069" transform="translate(176.0069393581814,203.66323349668812)"><path id="SvgjsPath1070" d="M 9.57 0L 19.43 0L 19.43 28.5L 29 28.5L 14.5 43L 0 28.5L 9.57 28.5L 9.57 0Z" stroke="#323232" stroke-width="2" fill-opacity="1" fill="#ffffff"></path><g id="SvgjsG1071"><text id="SvgjsText1072" font-family="微软雅黑" text-anchor="middle" font-size="13px" width="32" fill="#323232" font-weight="400" align="middle" anchor="middle" family="微软雅黑" size="13px" weight="400" font-style="" y="9.400000000000002" transform="rotate(0)"><tspan id="SvgjsTspan1073" dy="16" x="14.7"><tspan id="SvgjsTspan1074" style="text-decoration:;">指针</tspan></tspan></text></g></g><g id="SvgjsG1075" transform="translate(378.0069393581814,203.66323349668812)"><path id="SvgjsPath1076" d="M 9.57 0L 19.43 0L 19.43 28.5L 29 28.5L 14.5 43L 0 28.5L 9.57 28.5L 9.57 0Z" stroke="#323232" stroke-width="2" fill-opacity="1" fill="#ffffff"></path><g id="SvgjsG1077"><text id="SvgjsText1078" font-family="微软雅黑" text-anchor="middle" font-size="13px" width="32" fill="#323232" font-weight="400" align="middle" anchor="middle" family="微软雅黑" size="13px" weight="400" font-style="" y="9.400000000000002" transform="rotate(0)"><tspan id="SvgjsTspan1079" dy="16" x="14.7"><tspan id="SvgjsTspan1080" style="text-decoration:;">指针</tspan></tspan></text></g></g><g id="SvgjsG1081" transform="translate(241.0069393581814,255.66323349668812)"><path id="SvgjsPath1082" d="M 0 0L 101 0L 101 44.333335876464844L 0 44.333335876464844Z" stroke="#323232" stroke-width="2" fill-opacity="1" fill="#ffffff"></path><g id="SvgjsG1083"><text id="SvgjsText1084" font-family="微软雅黑" text-anchor="middle" font-size="13px" width="9" fill="#323232" font-weight="400" align="middle" anchor="middle" family="微软雅黑" size="13px" weight="400" font-style="" y="12.216667938232423" transform="rotate(0)"><tspan id="SvgjsTspan1085" dy="16" x="50.5"><tspan id="SvgjsTspan1086" style="text-decoration:;">3</tspan></tspan></text></g></g><g id="SvgjsG1087"><path id="SvgjsPath1088" d="M190.5069393581814 203.66323349668812L190.5069393581814 173.66323349668812L392.5069393581814 173.66323349668812L392.5069393581814 203.66323349668812" stroke="#323232" stroke-width="2" fill="none" marker-start="url(#SvgjsMarker1089)" marker-end="url(#SvgjsMarker1091)"></path><rect id="SvgjsRect1093" width="80" height="16" x="251.5069393581814" y="165.66323349668812" fill="#ffffff"></rect><text id="SvgjsText1094" font-family="微软雅黑" text-anchor="middle" font-size="13px" width="80" fill="#323232" font-weight="400" align="top" anchor="middle" family="微软雅黑" size="13px" weight="400" font-style="" y="163.71323349668813" transform="rotate(0)"><tspan id="SvgjsTspan1095" dy="16" x="291.5069393581814"><tspan id="SvgjsTspan1096" style="text-decoration:;">一趟遍历后</tspan></tspan></text></g><g id="SvgjsG1097" transform="translate(25.0069393581814,182)"><path id="SvgjsPath1098" d="M 0 0L 127.61111111111109 0L 143.6111111111111 16L 143.6111111111111 61.66323349668812L 0 61.66323349668812L 0 0Z" stroke="none" fill-opacity="1" fill="#ffffaa"></path><path id="SvgjsPath1099" d="M 127.61111111111109 0L 127.61111111111109 16L 143.6111111111111 16Z" stroke="none" fill-opacity="1" fill="#cdcdcd"></path><path id="SvgjsPath1100" d="M 0 0L 127.61111111111109 0L 143.6111111111111 16L 143.6111111111111 61.66323349668812L 0 61.66323349668812L 0 0Z" stroke="none" fill="none"></path><g id="SvgjsG1101"><text id="SvgjsText1102" font-family="微软雅黑" text-anchor="middle" font-size="13px" width="112" fill="#323232" font-weight="400" align="middle" anchor="middle" family="微软雅黑" size="13px" weight="400" font-style="" y="4.881616748344061" transform="rotate(0)"><tspan id="SvgjsTspan1103" dy="16" x="72"><tspan id="SvgjsTspan1104" style="text-decoration:;">升序排列，如果</tspan></tspan><tspan id="SvgjsTspan1105" dy="16" x="72"><tspan id="SvgjsTspan1106" style="text-decoration:;">基准与右指针满</tspan></tspan><tspan id="SvgjsTspan1107" dy="16" x="72"><tspan id="SvgjsTspan1108" style="text-decoration:;">足条件移动</tspan></tspan></text></g></g><g id="SvgjsG1109" transform="translate(479.0069393581814,55)"><path id="SvgjsPath1110" d="M 9.57 0L 19.43 0L 19.43 28.5L 29 28.5L 14.5 43L 0 28.5L 9.57 28.5L 9.57 0Z" stroke="#323232" stroke-width="2" fill-opacity="1" fill="#ffffff"></path><g id="SvgjsG1111"><text id="SvgjsText1112" font-family="微软雅黑" text-anchor="middle" font-size="13px" width="32" fill="#323232" font-weight="400" align="middle" anchor="middle" family="微软雅黑" size="13px" weight="400" font-style="" y="9.400000000000002" transform="rotate(0)"><tspan id="SvgjsTspan1113" dy="16" x="14.7"><tspan id="SvgjsTspan1114" style="text-decoration:;">指针</tspan></tspan></text></g></g><g id="SvgjsG1115" transform="translate(75.0069393581814,55)"><path id="SvgjsPath1116" d="M 9.57 0L 19.43 0L 19.43 28.5L 29 28.5L 14.5 43L 0 28.5L 9.57 28.5L 9.57 0Z" stroke="#323232" stroke-width="2" fill-opacity="1" fill="#ffffff"></path><g id="SvgjsG1117"><text id="SvgjsText1118" font-family="微软雅黑" text-anchor="middle" font-size="13px" width="32" fill="#323232" font-weight="400" align="middle" anchor="middle" family="微软雅黑" size="13px" weight="400" font-style="" y="9.400000000000002" transform="rotate(0)"><tspan id="SvgjsTspan1119" dy="16" x="14.7"><tspan id="SvgjsTspan1120" style="text-decoration:;">指针</tspan></tspan></text></g></g><g id="SvgjsG1121"><path id="SvgjsPath1122" d="M53.5069393581814 55L53.5069393581814 25L493.5069393581814 25L493.5069393581814 55" stroke="#323232" stroke-width="2" fill="none" marker-start="url(#SvgjsMarker1123)" marker-end="url(#SvgjsMarker1125)"></path><rect id="SvgjsRect1127" width="128" height="16" x="209.5069393581814" y="17" fill="#ffffff"></rect><text id="SvgjsText1128" font-family="微软雅黑" text-anchor="middle" font-size="13px" width="128" fill="#323232" font-weight="400" align="top" anchor="middle" family="微软雅黑" size="13px" weight="400" font-style="" y="15.05" transform="rotate(0)"><tspan id="SvgjsTspan1129" dy="16" x="273.5069393581814"><tspan id="SvgjsTspan1130" style="text-decoration:;">基准与右指针比较</tspan></tspan></text></g><g id="SvgjsG1131" transform="translate(479.0069393581814,203.66323349668812)"><path id="SvgjsPath1132" d="M 9.57 0L 19.43 0L 19.43 28.5L 29 28.5L 14.5 43L 0 28.5L 9.57 28.5L 9.57 0Z" stroke="#323232" stroke-width="2" fill-opacity="1" fill="#ffffff"></path><g id="SvgjsG1133"><text id="SvgjsText1134" font-family="微软雅黑" text-anchor="middle" font-size="13px" width="32" fill="#323232" font-weight="400" align="middle" anchor="middle" family="微软雅黑" size="13px" weight="400" font-style="" y="9.400000000000002" transform="rotate(0)"><tspan id="SvgjsTspan1135" dy="16" x="14.7"><tspan id="SvgjsTspan1136" style="text-decoration:;">基准</tspan></tspan></text></g></g></svg>