<svg id="SvgjsSvg1113" width="555" height="294.65625" xmlns="http://www.w3.org/2000/svg" version="1.1" xmlns:xlink="http://www.w3.org/1999/xlink" xmlns:svgjs="http://svgjs.com/svgjs"><defs id="SvgjsDefs1114"><marker id="SvgjsMarker1196" markerWidth="16" markerHeight="12" refX="0" refY="6" viewBox="0 0 16 12" orient="auto" markerUnits="userSpaceOnUse"><path id="SvgjsPath1197" d="M15,1.5 L2,6 L15,10.5" fill="#323232" stroke="#323232" stroke-width="2"></path></marker><marker id="SvgjsMarker1198" markerWidth="16" markerHeight="12" refX="16" refY="6" viewBox="0 0 16 12" orient="auto" markerUnits="userSpaceOnUse"><path id="SvgjsPath1199" d="M0,2 L14,6 L0,11 L0,2" fill="#323232" stroke="#323232" stroke-width="2"></path></marker></defs><rect id="SvgjsRect1115" width="555" height="294.65625" fill="#cce5ff"></rect><g id="SvgjsG1116" transform="translate(25.00173611111103,80.66323349668812)"><path id="SvgjsPath1117" d="M 0 0L 101 0L 101 44.333335876464844L 0 44.333335876464844Z" stroke="#323232" stroke-width="2" fill-opacity="1" fill="#ffffff"></path><g id="SvgjsG1118"><text id="SvgjsText1119" font-family="微软雅黑" text-anchor="middle" font-size="13px" width="8" fill="#323232" font-weight="400" align="middle" anchor="middle" family="微软雅黑" size="13px" weight="400" font-style="" y="12.216667938232423" transform="rotate(0)"><tspan id="SvgjsTspan1120" dy="16" x="50.5"><tspan id="SvgjsTspan1121" style="text-decoration:;">5</tspan></tspan></text></g></g><g id="SvgjsG1122" transform="translate(126.00173611111109,80.66323349668812)"><path id="SvgjsPath1123" d="M 0 0L 101 0L 101 44.333335876464844L 0 44.333335876464844Z" stroke="#323232" stroke-width="2" fill-opacity="1" fill="#ffffff"></path><g id="SvgjsG1124"><text id="SvgjsText1125" font-family="微软雅黑" text-anchor="middle" font-size="13px" width="8" fill="#323232" font-weight="400" align="middle" anchor="middle" family="微软雅黑" size="13px" weight="400" font-style="" y="12.216667938232423" transform="rotate(0)"><tspan id="SvgjsTspan1126" dy="16" x="50.5"><tspan id="SvgjsTspan1127" style="text-decoration:;">2</tspan></tspan></text></g></g><g id="SvgjsG1128" transform="translate(227.0017361111111,80.66323349668812)"><path id="SvgjsPath1129" d="M 0 0L 101 0L 101 44.333335876464844L 0 44.333335876464844Z" stroke="#323232" stroke-width="2" fill-opacity="1" fill="#ffffff"></path><g id="SvgjsG1130"><text id="SvgjsText1131" font-family="微软雅黑" text-anchor="middle" font-size="13px" width="8" fill="#323232" font-weight="400" align="middle" anchor="middle" family="微软雅黑" size="13px" weight="400" font-style="" y="12.216667938232423" transform="rotate(0)"><tspan id="SvgjsTspan1132" dy="16" x="50.5"><tspan id="SvgjsTspan1133" style="text-decoration:;">3</tspan></tspan></text></g></g><g id="SvgjsG1134" transform="translate(328.0017361111111,80.66323349668812)"><path id="SvgjsPath1135" d="M 0 0L 101 0L 101 44.333335876464844L 0 44.333335876464844Z" stroke="#323232" stroke-width="2" fill-opacity="1" fill="#ffffff"></path><g id="SvgjsG1136"><text id="SvgjsText1137" font-family="微软雅黑" text-anchor="middle" font-size="13px" width="8" fill="#323232" font-weight="400" align="middle" anchor="middle" family="微软雅黑" size="13px" weight="400" font-style="" y="12.216667938232423" transform="rotate(0)"><tspan id="SvgjsTspan1138" dy="16" x="50.5"><tspan id="SvgjsTspan1139" style="text-decoration:;">4</tspan></tspan></text></g></g><g id="SvgjsG1140" transform="translate(429.0017361111111,80.66323349668812)"><path id="SvgjsPath1141" d="M 0 0L 101 0L 101 44.333335876464844L 0 44.333335876464844Z" stroke="#323232" stroke-width="2" fill-opacity="1" fill="#ffffff"></path><g id="SvgjsG1142"><text id="SvgjsText1143" font-family="微软雅黑" text-anchor="middle" font-size="13px" width="8" fill="#323232" font-weight="400" align="middle" anchor="middle" family="微软雅黑" size="13px" weight="400" font-style="" y="12.216667938232423" transform="rotate(0)"><tspan id="SvgjsTspan1144" dy="16" x="50.5"><tspan id="SvgjsTspan1145" style="text-decoration:;">1</tspan></tspan></text></g></g><g id="SvgjsG1146" transform="translate(61.001736111111086,25)"><path id="SvgjsPath1147" d="M 9.57 0L 19.43 0L 19.43 28.5L 29 28.5L 14.5 43L 0 28.5L 9.57 28.5L 9.57 0Z" stroke="#323232" stroke-width="2" fill-opacity="1" fill="#ffffff"></path><g id="SvgjsG1148"><text id="SvgjsText1149" font-family="微软雅黑" text-anchor="middle" font-size="13px" width="26" fill="#323232" font-weight="400" align="middle" anchor="middle" family="微软雅黑" size="13px" weight="400" font-style="" y="9.400000000000002" transform="rotate(0)"><tspan id="SvgjsTspan1150" dy="16" x="14.7"><tspan id="SvgjsTspan1151" style="text-decoration:;">移动</tspan></tspan></text></g></g><g id="SvgjsG1152" transform="translate(25.001736111111086,225.66323349668812)"><path id="SvgjsPath1153" d="M 0 0L 101 0L 101 44.333335876464844L 0 44.333335876464844Z" stroke="#323232" stroke-width="2" fill-opacity="1" fill="#ffffff"></path><g id="SvgjsG1154"><text id="SvgjsText1155" font-family="微软雅黑" text-anchor="middle" font-size="13px" width="8" fill="#323232" font-weight="400" align="middle" anchor="middle" family="微软雅黑" size="13px" weight="400" font-style="" y="12.216667938232423" transform="rotate(0)"><tspan id="SvgjsTspan1156" dy="16" x="50.5"><tspan id="SvgjsTspan1157" style="text-decoration:;">1</tspan></tspan></text></g></g><g id="SvgjsG1158" transform="translate(126.00173611111109,225.66323349668812)"><path id="SvgjsPath1159" d="M 0 0L 101 0L 101 44.333335876464844L 0 44.333335876464844Z" stroke="#323232" stroke-width="2" fill-opacity="1" fill="#ffffff"></path><g id="SvgjsG1160"><text id="SvgjsText1161" font-family="微软雅黑" text-anchor="middle" font-size="13px" width="8" fill="#323232" font-weight="400" align="middle" anchor="middle" family="微软雅黑" size="13px" weight="400" font-style="" y="12.216667938232423" transform="rotate(0)"><tspan id="SvgjsTspan1162" dy="16" x="50.5"><tspan id="SvgjsTspan1163" style="text-decoration:;">2</tspan></tspan></text></g></g><g id="SvgjsG1164" transform="translate(328.0017361111111,225.66323349668812)"><path id="SvgjsPath1165" d="M 0 0L 101 0L 101 44.333335876464844L 0 44.333335876464844Z" stroke="#323232" stroke-width="2" fill-opacity="1" fill="#ffffff"></path><g id="SvgjsG1166"><text id="SvgjsText1167" font-family="微软雅黑" text-anchor="middle" font-size="13px" width="8" fill="#323232" font-weight="400" align="middle" anchor="middle" family="微软雅黑" size="13px" weight="400" font-style="" y="12.216667938232423" transform="rotate(0)"><tspan id="SvgjsTspan1168" dy="16" x="50.5"><tspan id="SvgjsTspan1169" style="text-decoration:;">4</tspan></tspan></text></g></g><g id="SvgjsG1170" transform="translate(429.0017361111111,225.66323349668812)"><path id="SvgjsPath1171" d="M 0 0L 101 0L 101 44.333335876464844L 0 44.333335876464844Z" stroke="#323232" stroke-width="2" fill-opacity="1" fill="#ffffff"></path><g id="SvgjsG1172"><text id="SvgjsText1173" font-family="微软雅黑" text-anchor="middle" font-size="13px" width="8" fill="#323232" font-weight="400" align="middle" anchor="middle" family="微软雅黑" size="13px" weight="400" font-style="" y="12.216667938232423" transform="rotate(0)"><tspan id="SvgjsTspan1174" dy="16" x="50.5"><tspan id="SvgjsTspan1175" style="text-decoration:;">5</tspan></tspan></text></g></g><g id="SvgjsG1176" transform="translate(61.001736111111086,170)"><path id="SvgjsPath1177" d="M 9.57 0L 19.43 0L 19.43 28.5L 29 28.5L 14.5 43L 0 28.5L 9.57 28.5L 9.57 0Z" stroke="#323232" stroke-width="2" fill-opacity="1" fill="#ffffff"></path><g id="SvgjsG1178"><text id="SvgjsText1179" font-family="微软雅黑" text-anchor="middle" font-size="13px" width="26" fill="#323232" font-weight="400" align="middle" anchor="middle" family="微软雅黑" size="13px" weight="400" font-style="" y="9.400000000000002" transform="rotate(0)"><tspan id="SvgjsTspan1180" dy="16" x="14.7"><tspan id="SvgjsTspan1181" style="text-decoration:;">移动</tspan></tspan></text></g></g><g id="SvgjsG1182" transform="translate(465.0017361111111,170)"><path id="SvgjsPath1183" d="M 9.57 0L 19.43 0L 19.43 28.5L 29 28.5L 14.5 43L 0 28.5L 9.57 28.5L 9.57 0Z" stroke="#323232" stroke-width="2" fill-opacity="1" fill="#ffffff"></path><g id="SvgjsG1184"><text id="SvgjsText1185" font-family="微软雅黑" text-anchor="middle" font-size="13px" width="26" fill="#323232" font-weight="400" align="middle" anchor="middle" family="微软雅黑" size="13px" weight="400" font-style="" y="9.400000000000002" transform="rotate(0)"><tspan id="SvgjsTspan1186" dy="16" x="14.7"><tspan id="SvgjsTspan1187" style="text-decoration:;">目标</tspan></tspan></text></g></g><g id="SvgjsG1188" transform="translate(227.0017361111111,225.66323349668812)"><path id="SvgjsPath1189" d="M 0 0L 101 0L 101 44.333335876464844L 0 44.333335876464844Z" stroke="#323232" stroke-width="2" fill-opacity="1" fill="#ffffff"></path><g id="SvgjsG1190"><text id="SvgjsText1191" font-family="微软雅黑" text-anchor="middle" font-size="13px" width="8" fill="#323232" font-weight="400" align="middle" anchor="middle" family="微软雅黑" size="13px" weight="400" font-style="" y="12.216667938232423" transform="rotate(0)"><tspan id="SvgjsTspan1192" dy="16" x="50.5"><tspan id="SvgjsTspan1193" style="text-decoration:;">3</tspan></tspan></text></g></g><g id="SvgjsG1194"><path id="SvgjsPath1195" d="M75.50173611111109 170L75.50173611111109 140L479.5017361111111 140L479.5017361111111 170" stroke="#323232" stroke-width="2" fill="none" marker-start="url(#SvgjsMarker1196)" marker-end="url(#SvgjsMarker1198)"></path><rect id="SvgjsRect1200" width="208" height="16" x="173.5017361111111" y="132" fill="#ffffff"></rect><text id="SvgjsText1201" font-family="微软雅黑" text-anchor="middle" font-size="13px" width="208" fill="#323232" font-weight="400" align="top" anchor="middle" family="微软雅黑" size="13px" weight="400" font-style="" y="130.05" transform="rotate(0)"><tspan id="SvgjsTspan1202" dy="16" x="277.5017361111111"><tspan id="SvgjsTspan1203" style="text-decoration:;">遍历后，最大（小）同目标位置交换</tspan></tspan></text></g><g id="SvgjsG1204" transform="translate(306.69618055555554,155)"><path id="SvgjsPath1205" d="M 0 0L 127.61111111111109 0L 143.6111111111111 16L 143.6111111111111 61.66323349668812L 0 61.66323349668812L 0 0Z" stroke="none" fill-opacity="1" fill="#ffffaa"></path><path id="SvgjsPath1206" d="M 127.61111111111109 0L 127.61111111111109 16L 143.6111111111111 16Z" stroke="none" fill-opacity="1" fill="#cdcdcd"></path><path id="SvgjsPath1207" d="M 0 0L 127.61111111111109 0L 143.6111111111111 16L 143.6111111111111 61.66323349668812L 0 61.66323349668812L 0 0Z" stroke="none" fill="none"></path><g id="SvgjsG1208"><text id="SvgjsText1209" font-family="微软雅黑" text-anchor="middle" font-size="13px" width="117" fill="#323232" font-weight="400" align="middle" anchor="middle" family="微软雅黑" size="13px" weight="400" font-style="" y="12.881616748344062" transform="rotate(0)"><tspan id="SvgjsTspan1210" dy="16" x="72"><tspan id="SvgjsTspan1211" style="text-decoration:;">升序排列，如果查找</tspan></tspan><tspan id="SvgjsTspan1212" dy="16" x="72"><tspan id="SvgjsTspan1213" style="text-decoration:;">最大（小）交换位置</tspan></tspan></text></g></g><g id="SvgjsG1214" transform="translate(465.0017361111111,25)"><path id="SvgjsPath1215" d="M 9.57 0L 19.43 0L 19.43 28.5L 29 28.5L 14.5 43L 0 28.5L 9.57 28.5L 9.57 0Z" stroke="#323232" stroke-width="2" fill-opacity="1" fill="#ffffff"></path><g id="SvgjsG1216"><text id="SvgjsText1217" font-family="微软雅黑" text-anchor="middle" font-size="13px" width="26" fill="#323232" font-weight="400" align="middle" anchor="middle" family="微软雅黑" size="13px" weight="400" font-style="" y="9.400000000000002" transform="rotate(0)"><tspan id="SvgjsTspan1218" dy="16" x="14.7"><tspan id="SvgjsTspan1219" style="text-decoration:;">目标</tspan></tspan></text></g></g></svg>