<svg id="SvgjsSvg1454" width="567" height="324.65625" xmlns="http://www.w3.org/2000/svg" version="1.1" xmlns:xlink="http://www.w3.org/1999/xlink" xmlns:svgjs="http://svgjs.com/svgjs"><defs id="SvgjsDefs1455"><marker id="SvgjsMarker1537" markerWidth="16" markerHeight="12" refX="0" refY="6" viewBox="0 0 16 12" orient="auto" markerUnits="userSpaceOnUse"><path id="SvgjsPath1538" d="M15,1.5 L2,6 L15,10.5" fill="#323232" stroke="#323232" stroke-width="2"></path></marker><marker id="SvgjsMarker1539" markerWidth="16" markerHeight="12" refX="16" refY="6" viewBox="0 0 16 12" orient="auto" markerUnits="userSpaceOnUse"><path id="SvgjsPath1540" d="M0,2 L14,6 L0,11 L0,2" fill="#323232" stroke="#323232" stroke-width="2"></path></marker><marker id="SvgjsMarker1565" markerWidth="16" markerHeight="12" refX="16" refY="6" viewBox="0 0 16 12" orient="auto" markerUnits="userSpaceOnUse"><path id="SvgjsPath1566" d="M0,2 L14,6 L0,11 L0,2" fill="#323232" stroke="#323232" stroke-width="2"></path></marker></defs><rect id="SvgjsRect1456" width="567" height="324.65625" fill="#cce5ff"></rect><g id="SvgjsG1457" transform="translate(25.00173611111103,110.66323349668812)"><path id="SvgjsPath1458" d="M 0 0L 101 0L 101 44.333335876464844L 0 44.333335876464844Z" stroke="#323232" stroke-width="2" fill-opacity="1" fill="#ffffff"></path><g id="SvgjsG1459"><text id="SvgjsText1460" font-family="微软雅黑" text-anchor="middle" font-size="13px" width="8" fill="#323232" font-weight="400" align="middle" anchor="middle" family="微软雅黑" size="13px" weight="400" font-style="" y="12.216667938232423" transform="rotate(0)"><tspan id="SvgjsTspan1461" dy="16" x="50.5"><tspan id="SvgjsTspan1462" style="text-decoration:;">5</tspan></tspan></text></g></g><g id="SvgjsG1463" transform="translate(126.00173611111109,110.66323349668812)"><path id="SvgjsPath1464" d="M 0 0L 101 0L 101 44.333335876464844L 0 44.333335876464844Z" stroke="#323232" stroke-width="2" fill-opacity="1" fill="#ffffff"></path><g id="SvgjsG1465"><text id="SvgjsText1466" font-family="微软雅黑" text-anchor="middle" font-size="13px" width="8" fill="#323232" font-weight="400" align="middle" anchor="middle" family="微软雅黑" size="13px" weight="400" font-style="" y="12.216667938232423" transform="rotate(0)"><tspan id="SvgjsTspan1467" dy="16" x="50.5"><tspan id="SvgjsTspan1468" style="text-decoration:;">2</tspan></tspan></text></g></g><g id="SvgjsG1469" transform="translate(227.0017361111111,110.66323349668812)"><path id="SvgjsPath1470" d="M 0 0L 101 0L 101 44.333335876464844L 0 44.333335876464844Z" stroke="#323232" stroke-width="2" fill-opacity="1" fill="#ffffff"></path><g id="SvgjsG1471"><text id="SvgjsText1472" font-family="微软雅黑" text-anchor="middle" font-size="13px" width="8" fill="#323232" font-weight="400" align="middle" anchor="middle" family="微软雅黑" size="13px" weight="400" font-style="" y="12.216667938232423" transform="rotate(0)"><tspan id="SvgjsTspan1473" dy="16" x="50.5"><tspan id="SvgjsTspan1474" style="text-decoration:;">3</tspan></tspan></text></g></g><g id="SvgjsG1475" transform="translate(328.0017361111111,110.66323349668812)"><path id="SvgjsPath1476" d="M 0 0L 101 0L 101 44.333335876464844L 0 44.333335876464844Z" stroke="#323232" stroke-width="2" fill-opacity="1" fill="#ffffff"></path><g id="SvgjsG1477"><text id="SvgjsText1478" font-family="微软雅黑" text-anchor="middle" font-size="13px" width="8" fill="#323232" font-weight="400" align="middle" anchor="middle" family="微软雅黑" size="13px" weight="400" font-style="" y="12.216667938232423" transform="rotate(0)"><tspan id="SvgjsTspan1479" dy="16" x="50.5"><tspan id="SvgjsTspan1480" style="text-decoration:;">4</tspan></tspan></text></g></g><g id="SvgjsG1481" transform="translate(429.0017361111111,110.66323349668812)"><path id="SvgjsPath1482" d="M 0 0L 101 0L 101 44.333335876464844L 0 44.333335876464844Z" stroke="#323232" stroke-width="2" fill-opacity="1" fill="#ffffff"></path><g id="SvgjsG1483"><text id="SvgjsText1484" font-family="微软雅黑" text-anchor="middle" font-size="13px" width="8" fill="#323232" font-weight="400" align="middle" anchor="middle" family="微软雅黑" size="13px" weight="400" font-style="" y="12.216667938232423" transform="rotate(0)"><tspan id="SvgjsTspan1485" dy="16" x="50.5"><tspan id="SvgjsTspan1486" style="text-decoration:;">1</tspan></tspan></text></g></g><g id="SvgjsG1487" transform="translate(61.001736111111086,55)"><path id="SvgjsPath1488" d="M 9.57 0L 19.43 0L 19.43 28.5L 29 28.5L 14.5 43L 0 28.5L 9.57 28.5L 9.57 0Z" stroke="#323232" stroke-width="2" fill-opacity="1" fill="#ffffff"></path><g id="SvgjsG1489"><text id="SvgjsText1490" font-family="微软雅黑" text-anchor="middle" font-size="13px" width="26" fill="#323232" font-weight="400" align="middle" anchor="middle" family="微软雅黑" size="13px" weight="400" font-style="" y="9.400000000000002" transform="rotate(0)"><tspan id="SvgjsTspan1491" dy="16" x="14.7"><tspan id="SvgjsTspan1492" style="text-decoration:;">移动</tspan></tspan></text></g></g><g id="SvgjsG1493" transform="translate(25.001736111111086,255.66323349668812)"><path id="SvgjsPath1494" d="M 0 0L 101 0L 101 44.333335876464844L 0 44.333335876464844Z" stroke="#323232" stroke-width="2" fill-opacity="1" fill="#ffffff"></path><g id="SvgjsG1495"><text id="SvgjsText1496" font-family="微软雅黑" text-anchor="middle" font-size="13px" width="8" fill="#323232" font-weight="400" align="middle" anchor="middle" family="微软雅黑" size="13px" weight="400" font-style="" y="12.216667938232423" transform="rotate(0)"><tspan id="SvgjsTspan1497" dy="16" x="50.5"><tspan id="SvgjsTspan1498" style="text-decoration:;">4</tspan></tspan></text></g></g><g id="SvgjsG1499" transform="translate(126.00173611111109,255.66323349668812)"><path id="SvgjsPath1500" d="M 0 0L 101 0L 101 44.333335876464844L 0 44.333335876464844Z" stroke="#323232" stroke-width="2" fill-opacity="1" fill="#ffffff"></path><g id="SvgjsG1501"><text id="SvgjsText1502" font-family="微软雅黑" text-anchor="middle" font-size="13px" width="8" fill="#323232" font-weight="400" align="middle" anchor="middle" family="微软雅黑" size="13px" weight="400" font-style="" y="12.216667938232423" transform="rotate(0)"><tspan id="SvgjsTspan1503" dy="16" x="50.5"><tspan id="SvgjsTspan1504" style="text-decoration:;">2</tspan></tspan></text></g></g><g id="SvgjsG1505" transform="translate(328.0017361111111,255.66323349668812)"><path id="SvgjsPath1506" d="M 0 0L 101 0L 101 44.333335876464844L 0 44.333335876464844Z" stroke="#323232" stroke-width="2" fill-opacity="1" fill="#ffffff"></path><g id="SvgjsG1507"><text id="SvgjsText1508" font-family="微软雅黑" text-anchor="middle" font-size="13px" width="8" fill="#323232" font-weight="400" align="middle" anchor="middle" family="微软雅黑" size="13px" weight="400" font-style="" y="12.216667938232423" transform="rotate(0)"><tspan id="SvgjsTspan1509" dy="16" x="50.5"><tspan id="SvgjsTspan1510" style="text-decoration:;">5</tspan></tspan></text></g></g><g id="SvgjsG1511" transform="translate(429.0017361111111,255.66323349668812)"><path id="SvgjsPath1512" d="M 0 0L 101 0L 101 44.333335876464844L 0 44.333335876464844Z" stroke="#323232" stroke-width="2" fill-opacity="1" fill="#ffffff"></path><g id="SvgjsG1513"><text id="SvgjsText1514" font-family="微软雅黑" text-anchor="middle" font-size="13px" width="8" fill="#323232" font-weight="400" align="middle" anchor="middle" family="微软雅黑" size="13px" weight="400" font-style="" y="12.216667938232423" transform="rotate(0)"><tspan id="SvgjsTspan1515" dy="16" x="50.5"><tspan id="SvgjsTspan1516" style="text-decoration:;">1</tspan></tspan></text></g></g><g id="SvgjsG1517" transform="translate(61.001736111111086,200)"><path id="SvgjsPath1518" d="M 9.57 0L 19.43 0L 19.43 28.5L 29 28.5L 14.5 43L 0 28.5L 9.57 28.5L 9.57 0Z" stroke="#323232" stroke-width="2" fill-opacity="1" fill="#ffffff"></path><g id="SvgjsG1519"><text id="SvgjsText1520" font-family="微软雅黑" text-anchor="middle" font-size="13px" width="26" fill="#323232" font-weight="400" align="middle" anchor="middle" family="微软雅黑" size="13px" weight="400" font-style="" y="9.400000000000002" transform="rotate(0)"><tspan id="SvgjsTspan1521" dy="16" x="14.7"><tspan id="SvgjsTspan1522" style="text-decoration:;">移动</tspan></tspan></text></g></g><g id="SvgjsG1523" transform="translate(364.0017361111111,203.66323349668812)"><path id="SvgjsPath1524" d="M 9.57 0L 19.43 0L 19.43 28.5L 29 28.5L 14.5 43L 0 28.5L 9.57 28.5L 9.57 0Z" stroke="#323232" stroke-width="2" fill-opacity="1" fill="#ffffff"></path><g id="SvgjsG1525"><text id="SvgjsText1526" font-family="微软雅黑" text-anchor="middle" font-size="13px" width="26" fill="#323232" font-weight="400" align="middle" anchor="middle" family="微软雅黑" size="13px" weight="400" font-style="" y="9.400000000000002" transform="rotate(0)"><tspan id="SvgjsTspan1527" dy="16" x="14.7"><tspan id="SvgjsTspan1528" style="text-decoration:;">目标</tspan></tspan></text></g></g><g id="SvgjsG1529" transform="translate(227.0017361111111,255.66323349668812)"><path id="SvgjsPath1530" d="M 0 0L 101 0L 101 44.333335876464844L 0 44.333335876464844Z" stroke="#323232" stroke-width="2" fill-opacity="1" fill="#ffffff"></path><g id="SvgjsG1531"><text id="SvgjsText1532" font-family="微软雅黑" text-anchor="middle" font-size="13px" width="8" fill="#323232" font-weight="400" align="middle" anchor="middle" family="微软雅黑" size="13px" weight="400" font-style="" y="12.216667938232423" transform="rotate(0)"><tspan id="SvgjsTspan1533" dy="16" x="50.5"><tspan id="SvgjsTspan1534" style="text-decoration:;">3</tspan></tspan></text></g></g><g id="SvgjsG1535"><path id="SvgjsPath1536" d="M75.50173611111109 200L75.50173611111109 170L378.5017361111111 170L378.5017361111111 203.66323349668812" stroke="#323232" stroke-width="2" fill="none" marker-start="url(#SvgjsMarker1537)" marker-end="url(#SvgjsMarker1539)"></path><rect id="SvgjsRect1541" width="117" height="16" x="170.33335285945515" y="162" fill="#ffffff"></rect><text id="SvgjsText1542" font-family="微软雅黑" text-anchor="middle" font-size="13px" width="117" fill="#323232" font-weight="400" align="top" anchor="middle" family="微软雅黑" size="13px" weight="400" font-style="" y="160.05" transform="rotate(0)"><tspan id="SvgjsTspan1543" dy="16" x="228.83335285945515"><tspan id="SvgjsTspan1544" style="text-decoration:;">满足条件将数据后移</tspan></tspan></text></g><g id="SvgjsG1545" transform="translate(398.0017361111111,190.66838325165594)"><path id="SvgjsPath1546" d="M 0 0L 127.61111111111109 0L 143.6111111111111 16L 143.6111111111111 61.66323349668812L 0 61.66323349668812L 0 0Z" stroke="none" fill-opacity="1" fill="#ffffaa"></path><path id="SvgjsPath1547" d="M 127.61111111111109 0L 127.61111111111109 16L 143.6111111111111 16Z" stroke="none" fill-opacity="1" fill="#cdcdcd"></path><path id="SvgjsPath1548" d="M 0 0L 127.61111111111109 0L 143.6111111111111 16L 143.6111111111111 61.66323349668812L 0 61.66323349668812L 0 0Z" stroke="none" fill="none"></path><g id="SvgjsG1549"><text id="SvgjsText1550" font-family="微软雅黑" text-anchor="middle" font-size="13px" width="117" fill="#323232" font-weight="400" align="middle" anchor="middle" family="微软雅黑" size="13px" weight="400" font-style="" y="4.881616748344061" transform="rotate(0)"><tspan id="SvgjsTspan1551" dy="16" x="72"><tspan id="SvgjsTspan1552" style="text-decoration:;">升序排列，如果移动</tspan></tspan><tspan id="SvgjsTspan1553" dy="16" x="72"><tspan id="SvgjsTspan1554" style="text-decoration:;">指针的数据满足条件</tspan></tspan><tspan id="SvgjsTspan1555" dy="16" x="72"><tspan id="SvgjsTspan1556" style="text-decoration:;">后移，目标数据交换</tspan></tspan></text></g></g><g id="SvgjsG1557" transform="translate(364.0017361111111,55)"><path id="SvgjsPath1558" d="M 9.57 0L 19.43 0L 19.43 28.5L 29 28.5L 14.5 43L 0 28.5L 9.57 28.5L 9.57 0Z" stroke="#323232" stroke-width="2" fill-opacity="1" fill="#ffffff"></path><g id="SvgjsG1559"><text id="SvgjsText1560" font-family="微软雅黑" text-anchor="middle" font-size="13px" width="26" fill="#323232" font-weight="400" align="middle" anchor="middle" family="微软雅黑" size="13px" weight="400" font-style="" y="9.400000000000002" transform="rotate(0)"><tspan id="SvgjsTspan1561" dy="16" x="14.7"><tspan id="SvgjsTspan1562" style="text-decoration:;">目标</tspan></tspan></text></g></g><g id="SvgjsG1563"><path id="SvgjsPath1564" d="M378.5017361111111 55L378.5017361111111 25L75.50173611111109 25L75.50173611111109 55" stroke="#323232" stroke-width="2" fill="none" marker-end="url(#SvgjsMarker1565)"></path><rect id="SvgjsRect1567" width="169" height="16" x="142.5017361111111" y="17" fill="#ffffff"></rect><text id="SvgjsText1568" font-family="微软雅黑" text-anchor="middle" font-size="13px" width="169" fill="#323232" font-weight="400" align="top" anchor="middle" family="微软雅黑" size="13px" weight="400" font-style="" y="15.05" transform="rotate(0)"><tspan id="SvgjsTspan1569" dy="16" x="227.0017361111111"><tspan id="SvgjsTspan1570" style="text-decoration:;">从增量位置与之前的数据比较</tspan></tspan></text></g></svg>