<svg id="SvgjsSvg1006" width="645" height="387.09375" xmlns="http://www.w3.org/2000/svg" version="1.1" xmlns:xlink="http://www.w3.org/1999/xlink" xmlns:svgjs="http://svgjs.com/svgjs"><defs id="SvgjsDefs1007"><marker id="SvgjsMarker1091" markerWidth="16" markerHeight="12" refX="16" refY="6" viewBox="0 0 16 12" orient="auto" markerUnits="userSpaceOnUse"><path id="SvgjsPath1092" d="M0,2 L14,6 L0,11 L0,2" fill="#323232" stroke="#323232" stroke-width="2"></path></marker></defs><rect id="SvgjsRect1008" width="645" height="387.09375" fill="#cce5ff"></rect><g id="SvgjsG1009" transform="translate(25.008683098687243,79.38545699047614)"><path id="SvgjsPath1010" d="M 0 4Q 0 0 4 0L 591.4444342719183 0Q 595.4444342719183 0 595.4444342719183 4L 595.4444342719183 82.8888888888888Q 595.4444342719183 86.8888888888888 591.4444342719183 86.8888888888888L 4 86.8888888888888Q 0 86.8888888888888 0 82.8888888888888Z" stroke="#323232" stroke-width="2" fill-opacity="1" fill="#ffffff"></path><g id="SvgjsG1011"><text id="SvgjsText1012" font-family="微软雅黑" text-anchor="middle" font-size="13px" width="52" fill="#323232" font-weight="400" align="middle" anchor="middle" family="微软雅黑" size="13px" weight="400" font-style="" y="-2.743650793650801" transform="rotate(0)"><tspan id="SvgjsTspan1013" dy="16" x="298"><tspan id="SvgjsTspan1014" style="text-decoration:;">顺序查找</tspan></tspan></text></g></g><g id="SvgjsG1015" transform="translate(74.56423611111103,100.66323349668812)"><path id="SvgjsPath1016" d="M 0 0L 101 0L 101 44.333335876464844L 0 44.333335876464844Z" stroke="#323232" stroke-width="2" fill-opacity="1" fill="#ffffff"></path><g id="SvgjsG1017"><text id="SvgjsText1018" font-family="微软雅黑" text-anchor="middle" font-size="13px" width="8" fill="#323232" font-weight="400" align="middle" anchor="middle" family="微软雅黑" size="13px" weight="400" font-style="" y="12.216667938232423" transform="rotate(0)"><tspan id="SvgjsTspan1019" dy="16" x="50.5"><tspan id="SvgjsTspan1020" style="text-decoration:;">5</tspan></tspan></text></g></g><g id="SvgjsG1021" transform="translate(175.5642361111111,100.66323349668812)"><path id="SvgjsPath1022" d="M 0 0L 101 0L 101 44.333335876464844L 0 44.333335876464844Z" stroke="#323232" stroke-width="2" fill-opacity="1" fill="#ffffff"></path><g id="SvgjsG1023"><text id="SvgjsText1024" font-family="微软雅黑" text-anchor="middle" font-size="13px" width="8" fill="#323232" font-weight="400" align="middle" anchor="middle" family="微软雅黑" size="13px" weight="400" font-style="" y="12.216667938232423" transform="rotate(0)"><tspan id="SvgjsTspan1025" dy="16" x="50.5"><tspan id="SvgjsTspan1026" style="text-decoration:;">9</tspan></tspan></text></g></g><g id="SvgjsG1027" transform="translate(276.5642361111111,100.66323349668812)"><path id="SvgjsPath1028" d="M 0 0L 101 0L 101 44.333335876464844L 0 44.333335876464844Z" stroke="#323232" stroke-width="2" fill-opacity="1" fill="#ffffff"></path><g id="SvgjsG1029"><text id="SvgjsText1030" font-family="微软雅黑" text-anchor="middle" font-size="13px" width="8" fill="#323232" font-weight="400" align="middle" anchor="middle" family="微软雅黑" size="13px" weight="400" font-style="" y="12.216667938232423" transform="rotate(0)"><tspan id="SvgjsTspan1031" dy="16" x="50.5"><tspan id="SvgjsTspan1032" style="text-decoration:;">7</tspan></tspan></text></g></g><g id="SvgjsG1033" transform="translate(377.5642361111111,100.66323349668812)"><path id="SvgjsPath1034" d="M 0 0L 101 0L 101 44.333335876464844L 0 44.333335876464844Z" stroke="#323232" stroke-width="2" fill-opacity="1" fill="#ffffff"></path><g id="SvgjsG1035"><text id="SvgjsText1036" font-family="微软雅黑" text-anchor="middle" font-size="13px" width="8" fill="#323232" font-weight="400" align="middle" anchor="middle" family="微软雅黑" size="13px" weight="400" font-style="" y="12.216667938232423" transform="rotate(0)"><tspan id="SvgjsTspan1037" dy="16" x="50.5"><tspan id="SvgjsTspan1038" style="text-decoration:;">4</tspan></tspan></text></g></g><g id="SvgjsG1039" transform="translate(478.5642361111111,100.66323349668812)"><path id="SvgjsPath1040" d="M 0 0L 101 0L 101 44.333335876464844L 0 44.333335876464844Z" stroke="#323232" stroke-width="2" fill-opacity="1" fill="#ffffff"></path><g id="SvgjsG1041"><text id="SvgjsText1042" font-family="微软雅黑" text-anchor="middle" font-size="13px" width="8" fill="#323232" font-weight="400" align="middle" anchor="middle" family="微软雅黑" size="13px" weight="400" font-style="" y="12.216667938232423" transform="rotate(0)"><tspan id="SvgjsTspan1043" dy="16" x="50.5"><tspan id="SvgjsTspan1044" style="text-decoration:;">1</tspan></tspan></text></g></g><g id="SvgjsG1045" transform="translate(25.008683098687243,275.10768048426416)"><path id="SvgjsPath1046" d="M 0 4Q 0 0 4 0L 591.4444342719183 0Q 595.4444342719183 0 595.4444342719183 4L 595.4444342719183 82.8888888888888Q 595.4444342719183 86.8888888888888 591.4444342719183 86.8888888888888L 4 86.8888888888888Q 0 86.8888888888888 0 82.8888888888888Z" stroke="#323232" stroke-width="2" fill-opacity="1" fill="#ffffff"></path><g id="SvgjsG1047"><text id="SvgjsText1048" font-family="微软雅黑" text-anchor="middle" font-size="13px" width="52" fill="#323232" font-weight="400" align="middle" anchor="middle" family="微软雅黑" size="13px" weight="400" font-style="" y="-2.743650793650801" transform="rotate(0)"><tspan id="SvgjsTspan1049" dy="16" x="298"><tspan id="SvgjsTspan1050" style="text-decoration:;">二分查找</tspan></tspan></text></g></g><g id="SvgjsG1051" transform="translate(74.56423611111109,296.38545699047614)"><path id="SvgjsPath1052" d="M 0 0L 101 0L 101 44.333335876464844L 0 44.333335876464844Z" stroke="#323232" stroke-width="2" fill-opacity="1" fill="#ffffff"></path><g id="SvgjsG1053"><text id="SvgjsText1054" font-family="微软雅黑" text-anchor="middle" font-size="13px" width="8" fill="#323232" font-weight="400" align="middle" anchor="middle" family="微软雅黑" size="13px" weight="400" font-style="" y="12.216667938232423" transform="rotate(0)"><tspan id="SvgjsTspan1055" dy="16" x="50.5"><tspan id="SvgjsTspan1056" style="text-decoration:;">1</tspan></tspan></text></g></g><g id="SvgjsG1057" transform="translate(175.56423611111103,296.38545699047614)"><path id="SvgjsPath1058" d="M 0 0L 101 0L 101 44.333335876464844L 0 44.333335876464844Z" stroke="#323232" stroke-width="2" fill-opacity="1" fill="#ffffff"></path><g id="SvgjsG1059"><text id="SvgjsText1060" font-family="微软雅黑" text-anchor="middle" font-size="13px" width="8" fill="#323232" font-weight="400" align="middle" anchor="middle" family="微软雅黑" size="13px" weight="400" font-style="" y="12.216667938232423" transform="rotate(0)"><tspan id="SvgjsTspan1061" dy="16" x="50.5"><tspan id="SvgjsTspan1062" style="text-decoration:;">4</tspan></tspan></text></g></g><g id="SvgjsG1063" transform="translate(276.56423611111103,296.38545699047614)"><path id="SvgjsPath1064" d="M 0 0L 101 0L 101 44.333335876464844L 0 44.333335876464844Z" stroke="#323232" stroke-width="2" fill-opacity="1" fill="#ffffff"></path><g id="SvgjsG1065"><text id="SvgjsText1066" font-family="微软雅黑" text-anchor="middle" font-size="13px" width="8" fill="#323232" font-weight="400" align="middle" anchor="middle" family="微软雅黑" size="13px" weight="400" font-style="" y="12.216667938232423" transform="rotate(0)"><tspan id="SvgjsTspan1067" dy="16" x="50.5"><tspan id="SvgjsTspan1068" style="text-decoration:;">5</tspan></tspan></text></g></g><g id="SvgjsG1069" transform="translate(377.56423611111103,296.38545699047614)"><path id="SvgjsPath1070" d="M 0 0L 101 0L 101 44.333335876464844L 0 44.333335876464844Z" stroke="#323232" stroke-width="2" fill-opacity="1" fill="#ffffff"></path><g id="SvgjsG1071"><text id="SvgjsText1072" font-family="微软雅黑" text-anchor="middle" font-size="13px" width="8" fill="#323232" font-weight="400" align="middle" anchor="middle" family="微软雅黑" size="13px" weight="400" font-style="" y="12.216667938232423" transform="rotate(0)"><tspan id="SvgjsTspan1073" dy="16" x="50.5"><tspan id="SvgjsTspan1074" style="text-decoration:;">7</tspan></tspan></text></g></g><g id="SvgjsG1075" transform="translate(478.5642361111111,296.38545699047614)"><path id="SvgjsPath1076" d="M 0 0L 101 0L 101 44.333335876464844L 0 44.333335876464844Z" stroke="#323232" stroke-width="2" fill-opacity="1" fill="#ffffff"></path><g id="SvgjsG1077"><text id="SvgjsText1078" font-family="微软雅黑" text-anchor="middle" font-size="13px" width="8" fill="#323232" font-weight="400" align="middle" anchor="middle" family="微软雅黑" size="13px" weight="400" font-style="" y="12.216667938232423" transform="rotate(0)"><tspan id="SvgjsTspan1079" dy="16" x="50.5"><tspan id="SvgjsTspan1080" style="text-decoration:;">9</tspan></tspan></text></g></g><g id="SvgjsG1081" transform="translate(110.56423611111109,45)"><path id="SvgjsPath1082" d="M 9.57 0L 19.43 0L 19.43 28.5L 29 28.5L 14.5 43L 0 28.5L 9.57 28.5L 9.57 0Z" stroke="#323232" stroke-width="2" fill-opacity="1" fill="#ffffff"></path><g id="SvgjsG1083"><text id="SvgjsText1084" font-family="微软雅黑" text-anchor="middle" font-size="13px" width="0" fill="#323232" font-weight="400" align="middle" anchor="middle" family="微软雅黑" size="13px" weight="400" font-style="" y="9.400000000000002" transform="rotate(0)"></text></g></g><g id="SvgjsG1085" transform="translate(514.5642361111111,45)"><path id="SvgjsPath1086" d="M 9.57 0L 19.43 0L 19.43 28.5L 29 28.5L 14.5 43L 0 28.5L 9.57 28.5L 9.57 0Z" stroke="#323232" stroke-width="2" fill-opacity="1" fill="#ffffff"></path><g id="SvgjsG1087"><text id="SvgjsText1088" font-family="微软雅黑" text-anchor="middle" font-size="13px" width="0" fill="#323232" font-weight="400" align="middle" anchor="middle" family="微软雅黑" size="13px" weight="400" font-style="" y="9.400000000000002" transform="rotate(0)"></text></g></g><g id="SvgjsG1089"><path id="SvgjsPath1090" d="M125.06423611111109 45L125.06423611111109 25L529.0642361111111 25L529.0642361111111 45" stroke-dasharray="8,5" stroke="#323232" stroke-width="2" fill="none" marker-end="url(#SvgjsMarker1091)"></path><rect id="SvgjsRect1093" width="52" height="16" x="301.0642361111111" y="17" fill="#ffffff"></rect><text id="SvgjsText1094" font-family="微软雅黑" text-anchor="middle" font-size="13px" width="52" fill="#323232" font-weight="400" align="top" anchor="middle" family="微软雅黑" size="13px" weight="400" font-style="" y="15.05" transform="rotate(0)"><tspan id="SvgjsTspan1095" dy="16" x="327.0642361111111"><tspan id="SvgjsTspan1096" style="text-decoration:;">依次查找</tspan></tspan></text></g><g id="SvgjsG1097" transform="translate(110.56423611111109,242)"><path id="SvgjsPath1098" d="M 9.57 0L 19.43 0L 19.43 28.5L 29 28.5L 14.5 43L 0 28.5L 9.57 28.5L 9.57 0Z" stroke="#323232" stroke-width="2" fill-opacity="1" fill="#ffffff"></path><g id="SvgjsG1099"><text id="SvgjsText1100" font-family="微软雅黑" text-anchor="middle" font-size="13px" width="20" fill="#323232" font-weight="400" align="middle" anchor="middle" family="微软雅黑" size="13px" weight="400" font-style="" y="9.400000000000002" transform="rotate(0)"><tspan id="SvgjsTspan1101" dy="16" x="14.7"><tspan id="SvgjsTspan1102" style="text-decoration:;">left</tspan></tspan></text></g></g><g id="SvgjsG1103" transform="translate(514.5642361111111,242)"><path id="SvgjsPath1104" d="M 9.57 0L 19.43 0L 19.43 28.5L 29 28.5L 14.5 43L 0 28.5L 9.57 28.5L 9.57 0Z" stroke="#323232" stroke-width="2" fill-opacity="1" fill="#ffffff"></path><g id="SvgjsG1105"><text id="SvgjsText1106" font-family="微软雅黑" text-anchor="middle" font-size="13px" width="30" fill="#323232" font-weight="400" align="middle" anchor="middle" family="微软雅黑" size="13px" weight="400" font-style="" y="9.400000000000002" transform="rotate(0)"><tspan id="SvgjsTspan1107" dy="16" x="14.7"><tspan id="SvgjsTspan1108" style="text-decoration:;">right</tspan></tspan></text></g></g><g id="SvgjsG1109" transform="translate(312.56423611111103,230)"><path id="SvgjsPath1110" d="M 9.57 0L 19.43 0L 19.43 28.5L 29 28.5L 14.5 43L 0 28.5L 9.57 28.5L 9.57 0Z" stroke="#323232" stroke-width="2" fill-opacity="1" fill="#ffffff"></path><g id="SvgjsG1111"><text id="SvgjsText1112" font-family="微软雅黑" text-anchor="middle" font-size="13px" width="24" fill="#323232" font-weight="400" align="middle" anchor="middle" family="微软雅黑" size="13px" weight="400" font-style="" y="9.400000000000002" transform="rotate(0)"><tspan id="SvgjsTspan1113" dy="16" x="14.7"><tspan id="SvgjsTspan1114" style="text-decoration:;">mid</tspan></tspan></text></g></g><g id="SvgjsG1115" transform="translate(350.453125,205)"><path id="SvgjsPath1116" d="M 0 0L 69 0L 85 16L 85 68L 0 68L 0 0Z" stroke="none" fill-opacity="1" fill="#ffffaa"></path><path id="SvgjsPath1117" d="M 69 0L 69 16L 85 16Z" stroke="none" fill-opacity="1" fill="#cdcdcd"></path><path id="SvgjsPath1118" d="M 0 0L 69 0L 85 16L 85 68L 0 68L 0 0Z" stroke="none" fill="none"></path><g id="SvgjsG1119"><text id="SvgjsText1120" font-family="微软雅黑" text-anchor="middle" font-size="13px" width="65" fill="#323232" font-weight="400" align="middle" anchor="middle" family="微软雅黑" size="13px" weight="400" font-style="" y="16.05" transform="rotate(0)"><tspan id="SvgjsTspan1121" dy="16" x="42.5"><tspan id="SvgjsTspan1122" style="text-decoration:;">每次只比较</tspan></tspan><tspan id="SvgjsTspan1123" dy="16" x="42.5"><tspan id="SvgjsTspan1124" style="text-decoration:;">中间值</tspan></tspan></text></g></g></svg>